{"glyphs":{"0":{"ha":945,"x_min":153,"x_max":1010,"o":"m 671 962 q 918 869 825 962 q 1010 619 1010 776 q 933 284 1010 443 q 747 55 857 126 q 495 -17 638 -17 q 313 25 387 -17 q 196 146 239 67 q 153 334 153 224 q 197 585 153 463 q 314 793 241 707 q 477 921 388 880 q 671 962 567 962 m 658 817 q 584 799 623 817 q 516 748 545 781 q 454 638 486 715 q 401 462 422 561 q 380 288 380 363 q 396 200 380 236 q 442 146 412 165 q 506 127 471 127 q 595 155 549 127 q 673 234 642 182 q 749 428 714 304 q 783 648 783 551 q 767 742 783 704 q 722 798 751 779 q 658 817 693 817 z "},"1":{"ha":945,"x_min":211,"x_max":838,"o":"m 834 962 l 664 210 q 656 168 656 175 q 663 148 656 157 q 683 134 670 138 q 729 131 695 131 l 838 131 l 808 0 l 211 0 l 241 131 l 323 131 q 390 134 372 131 q 418 145 408 138 q 435 163 429 152 q 452 214 446 184 l 573 748 l 380 748 l 410 879 q 766 962 566 888 l 834 962 z "},"2":{"ha":945,"x_min":90,"x_max":989,"o":"m 345 563 l 208 569 q 252 772 212 699 q 393 910 297 858 q 628 962 488 962 q 826 927 746 962 q 948 830 907 891 q 989 696 989 768 q 967 595 989 646 q 899 494 945 544 q 776 393 852 445 q 640 310 699 341 q 619 298 631 305 l 441 197 l 647 197 q 723 201 705 197 q 755 215 741 205 q 780 244 769 226 q 806 314 787 256 l 945 314 l 824 -34 l 733 -34 l 729 0 l 90 0 l 119 131 q 430 336 239 203 q 685 530 622 470 q 738 605 720 565 q 751 667 751 634 q 709 759 751 726 q 569 802 654 802 q 452 774 502 802 q 375 695 401 746 q 345 563 348 645 z "},"3":{"ha":945,"x_min":135,"x_max":969,"o":"m 396 654 l 254 654 q 316 820 267 753 q 449 924 364 886 q 648 962 533 962 q 884 894 799 962 q 969 729 969 826 q 938 618 969 671 q 850 531 907 566 q 747 489 810 507 q 850 443 817 468 q 904 377 884 418 q 924 293 924 336 q 874 142 924 214 q 730 27 825 70 q 507 -16 635 -16 q 236 63 337 -16 q 135 237 135 143 q 164 319 135 288 q 239 350 194 350 q 351 254 318 350 q 371 199 368 205 q 400 161 380 180 q 449 131 420 142 q 511 120 478 120 q 604 143 561 120 q 668 205 646 166 q 690 293 690 245 q 647 390 690 352 q 525 427 604 427 l 504 427 l 460 427 l 490 559 l 549 559 q 663 572 628 559 q 719 615 699 585 q 739 681 739 645 q 722 740 739 714 q 669 782 705 766 q 585 797 633 797 q 494 780 535 797 q 432 736 453 762 q 396 654 410 709 z "},"4":{"ha":945,"x_min":110,"x_max":991,"o":"m 718 946 l 930 946 l 812 427 l 991 427 l 954 264 l 776 264 l 718 0 l 503 0 l 564 264 l 110 264 l 157 469 l 718 946 m 600 427 l 666 716 l 323 427 l 600 427 z "},"5":{"ha":945,"x_min":157,"x_max":1026,"o":"m 398 946 l 857 946 q 907 947 898 946 q 928 957 921 951 q 936 976 932 962 l 1026 976 l 972 743 l 499 743 l 465 622 q 550 624 522 624 q 859 541 752 624 q 953 339 953 467 q 831 91 953 197 q 526 -16 710 -16 q 332 22 418 -16 q 201 117 245 60 q 157 229 157 174 q 171 288 157 261 q 207 323 182 309 q 259 336 232 336 q 307 323 284 336 q 342 292 329 311 q 375 227 347 285 q 443 148 399 174 q 543 122 486 122 q 680 174 623 122 q 731 291 731 221 q 704 378 731 341 q 624 437 677 416 q 476 459 571 459 q 254 439 369 459 l 398 946 z "},"6":{"ha":945,"x_min":174,"x_max":996,"o":"m 996 962 l 968 829 q 792 819 865 829 q 662 785 719 808 q 566 733 605 763 q 500 667 526 703 q 458 581 475 632 q 528 619 492 607 q 658 640 590 640 q 819 603 749 640 q 927 501 889 566 q 966 355 966 435 q 912 169 966 258 q 766 32 858 79 q 547 -16 674 -16 q 273 81 372 -16 q 174 344 174 178 q 228 595 174 470 q 369 799 281 720 q 568 911 456 878 q 920 962 741 962 l 996 962 m 587 485 q 493 458 537 485 q 422 382 449 431 q 396 277 396 333 q 437 165 396 203 q 541 127 479 127 q 635 155 591 127 q 706 232 680 182 q 732 340 732 281 q 692 445 732 405 q 587 485 652 485 z "},"7":{"ha":945,"x_min":218,"x_max":1114,"o":"m 368 977 l 459 977 l 459 946 l 1114 946 l 1083 815 q 889 630 968 720 q 746 436 810 540 q 640 227 682 332 q 568 0 584 83 l 318 0 q 394 216 353 127 q 490 383 435 305 q 659 590 564 486 q 819 744 754 694 l 490 744 q 429 735 453 744 q 400 715 411 729 q 368 661 380 692 l 340 590 l 218 637 l 368 977 z "},"8":{"ha":945,"x_min":147,"x_max":970,"o":"m 765 520 q 934 289 934 435 q 886 139 934 209 q 744 26 838 69 q 518 -16 650 -16 q 315 18 399 -16 q 189 107 231 52 q 147 220 147 163 q 199 346 147 285 q 395 479 261 418 q 314 550 335 524 q 278 615 292 576 q 264 692 264 655 q 308 824 264 762 q 431 921 351 886 q 642 962 528 962 q 893 891 795 962 q 970 751 970 836 q 928 640 970 691 q 765 520 874 573 m 648 577 q 744 659 719 625 q 769 724 769 694 q 731 790 769 763 q 625 818 693 818 q 514 789 554 818 q 473 724 473 760 q 506 660 473 692 q 648 577 538 627 m 505 414 q 395 330 439 376 q 351 241 351 283 q 391 165 351 195 q 532 130 443 130 q 679 167 623 130 q 721 242 721 195 q 709 288 721 268 q 658 335 693 313 q 505 414 623 357 z "},"9":{"ha":945,"x_min":165,"x_max":987,"o":"m 165 -16 l 193 116 q 369 127 296 116 q 499 160 441 138 q 595 213 556 182 q 661 278 635 243 q 703 365 686 314 q 633 326 669 338 q 503 306 571 306 q 341 342 411 306 q 233 445 272 379 q 195 591 195 511 q 249 778 195 688 q 395 915 303 867 q 614 962 487 962 q 888 865 789 962 q 987 602 987 768 q 933 351 987 475 q 792 147 880 226 q 593 35 705 68 q 241 -16 420 -16 l 165 -16 m 574 460 q 668 488 624 460 q 739 564 712 515 q 765 669 765 612 q 724 781 765 743 q 620 819 682 819 q 526 791 570 819 q 455 714 481 764 q 429 606 429 664 q 469 501 429 541 q 574 460 509 460 z "}," ":{"ha":472,"x_min":0,"x_max":0,"o":""},"!":{"ha":444,"x_min":127,"x_max":543,"o":"m 355 288 l 226 288 q 258 517 251 433 l 279 768 q 297 872 286 845 q 329 921 309 900 q 375 952 349 941 q 427 962 400 962 q 510 931 477 962 q 543 852 543 899 q 536 801 543 826 q 499 708 529 777 q 419 499 463 625 q 355 288 398 438 m 261 232 q 320 217 293 232 q 362 176 347 203 q 376 118 376 149 q 357 52 376 84 q 307 1 338 19 q 237 -16 275 -16 q 158 15 189 -16 q 127 96 127 46 q 145 163 127 133 q 196 213 163 194 q 261 232 229 232 z "},"\"":{"ha":528,"x_min":221,"x_max":646,"o":"m 221 574 l 231 801 q 234 852 232 842 q 255 908 239 882 q 293 949 271 935 q 338 962 315 962 q 380 944 364 962 q 396 890 396 925 q 377 817 396 858 q 370 801 372 808 l 274 574 l 221 574 m 471 574 l 480 801 q 484 852 482 842 q 505 908 489 882 q 543 949 522 935 q 588 962 565 962 q 630 944 614 962 q 646 890 646 925 q 627 817 646 858 q 620 801 623 808 l 524 574 l 471 574 z "},"#":{"ha":833,"x_min":189,"x_max":865,"o":"m 830 415 l 830 293 l 690 293 l 646 0 l 523 0 l 566 293 l 448 293 l 406 0 l 283 0 l 327 293 l 189 293 l 189 415 l 345 415 l 363 530 l 227 530 l 227 653 l 380 653 l 421 926 l 541 926 l 501 653 l 618 653 l 659 926 l 782 926 l 741 653 l 865 653 l 865 530 l 724 530 l 708 415 l 830 415 m 602 530 l 484 530 l 467 415 l 583 415 l 602 530 z "},"$":{"ha":945,"x_min":184,"x_max":978,"o":"m 686 1095 l 802 1095 l 760 918 q 829 876 796 899 l 859 924 l 951 924 l 978 603 l 840 586 q 817 664 831 631 q 782 721 802 696 q 728 770 762 746 l 682 568 q 888 451 829 518 q 947 296 947 384 q 903 153 947 221 q 773 42 858 84 q 586 -1 688 -1 q 552 0 574 -1 l 514 -164 l 398 -164 l 440 21 q 374 52 396 39 q 321 92 352 65 l 277 16 l 184 16 l 184 391 l 321 401 q 354 296 334 338 q 403 222 374 254 q 473 166 432 190 l 527 401 q 332 505 390 448 q 264 670 264 570 q 304 805 264 743 q 423 905 345 867 q 601 943 501 943 q 650 941 617 943 l 686 1095 m 617 800 q 532 790 564 802 q 483 755 500 778 q 467 709 467 733 q 478 671 467 691 q 506 638 489 650 q 574 608 524 626 l 617 800 m 584 142 q 602 141 596 141 q 705 174 665 141 q 744 252 744 207 q 723 309 744 286 q 635 364 695 340 l 584 142 z "},"%":{"ha":1222,"x_min":168,"x_max":1263,"o":"m 481 962 q 634 912 578 962 q 690 783 690 862 q 645 613 690 694 q 534 492 601 532 q 376 453 467 453 q 223 504 279 453 q 168 636 168 555 q 211 802 168 723 q 325 921 255 880 q 481 962 394 962 m 473 880 q 406 855 436 880 q 347 756 376 831 q 318 614 318 682 q 336 556 318 576 q 384 535 355 535 q 451 561 419 535 q 511 660 482 586 q 539 796 539 734 q 522 859 539 838 q 473 880 504 880 m 1185 962 l 368 -8 l 259 -8 l 1078 962 l 1185 962 m 1056 500 q 1208 450 1153 500 q 1263 321 1263 400 q 1219 151 1263 233 q 1108 31 1175 70 q 951 -8 1042 -8 q 798 43 853 -8 q 742 174 742 94 q 785 340 742 261 q 898 459 829 418 q 1056 500 968 500 m 1048 418 q 980 393 1010 418 q 921 295 950 369 q 892 153 892 220 q 910 94 892 115 q 958 73 929 73 q 1025 99 994 73 q 1085 198 1056 124 q 1114 335 1114 272 q 1096 397 1114 376 q 1048 418 1078 418 z "},"&":{"ha":1361,"x_min":121,"x_max":1416,"o":"m 960 623 l 1329 623 l 1300 494 l 1269 494 q 1214 487 1232 494 q 1177 458 1197 480 q 1143 406 1169 450 q 1068 293 1104 340 q 993 206 1031 245 q 1124 122 1057 122 q 1173 135 1150 122 q 1207 169 1195 147 q 1220 218 1220 191 l 1219 245 q 1217 275 1217 272 q 1246 353 1217 324 q 1316 381 1274 381 q 1387 350 1358 381 q 1416 269 1416 318 q 1373 135 1416 201 q 1249 22 1323 61 q 1072 -16 1175 -16 q 933 5 990 -16 q 831 75 877 27 q 678 5 753 26 q 513 -16 604 -16 q 301 24 387 -16 q 169 134 216 64 q 121 283 121 204 q 161 424 121 357 q 274 536 201 491 q 480 610 348 582 q 422 660 441 632 q 393 749 393 702 q 429 851 393 800 q 533 932 465 902 q 690 962 600 962 q 829 937 771 962 q 916 870 888 911 q 944 777 944 828 q 912 675 944 724 q 821 597 880 627 q 711 562 778 574 q 758 531 740 547 q 823 457 791 501 q 919 308 840 436 q 999 411 959 345 q 1019 466 1019 444 q 1007 487 1019 479 q 960 494 996 494 l 930 494 l 960 623 m 677 838 q 610 806 637 838 q 582 728 582 774 q 591 682 582 703 q 614 659 599 668 q 654 648 633 648 q 719 682 690 648 q 747 762 747 715 q 729 818 747 799 q 677 838 710 838 m 569 518 q 403 428 454 483 q 351 313 351 373 q 377 227 351 267 q 450 163 402 186 q 559 139 498 139 q 739 182 652 139 q 701 249 718 214 q 652 364 683 284 q 601 481 616 454 q 569 518 589 502 z "},"'":{"ha":250,"x_min":207,"x_max":382,"o":"m 207 574 l 216 801 q 224 873 218 852 q 265 938 237 913 q 323 962 293 962 q 366 943 350 962 q 382 889 382 924 q 377 858 382 875 q 356 801 373 842 l 260 574 l 207 574 z "},"(":{"ha":361,"x_min":77,"x_max":541,"o":"m 446 986 l 541 893 q 433 730 472 815 q 319 378 368 588 q 258 -24 258 122 q 297 -266 258 -159 l 179 -321 q 101 -140 125 -231 q 77 55 77 -50 q 112 349 77 176 q 196 641 147 522 q 308 845 245 760 q 446 986 371 930 z "},")":{"ha":361,"x_min":-38,"x_max":426,"o":"m 57 -321 l -38 -228 q 70 -64 31 -150 q 184 287 136 77 q 244 690 244 543 q 205 931 244 823 l 323 986 q 402 805 378 895 q 426 610 426 715 q 391 316 426 490 q 307 24 356 143 q 195 -180 258 -96 q 57 -321 132 -264 z "},"*":{"ha":639,"x_min":201,"x_max":724,"o":"m 435 762 q 413 876 413 844 q 435 938 413 913 q 488 962 457 962 q 537 942 517 962 q 557 892 557 922 q 548 850 557 871 q 488 752 534 819 q 511 728 502 741 l 538 743 q 607 780 585 772 q 650 787 629 787 q 703 767 682 787 q 724 718 724 746 q 701 668 724 688 q 646 647 679 647 q 519 674 613 647 q 504 644 514 658 q 574 581 559 596 q 600 542 593 559 q 606 509 606 526 q 587 458 606 478 q 539 437 567 437 q 495 454 515 437 q 466 498 474 470 q 455 620 458 526 q 422 626 438 621 q 360 509 387 536 q 300 481 333 481 q 252 501 272 481 q 231 547 231 521 q 258 606 231 581 q 384 665 286 631 q 376 699 379 682 q 322 703 368 699 q 252 719 277 707 q 214 750 227 730 q 201 791 201 769 q 220 838 201 819 q 269 858 240 858 q 316 843 294 858 q 382 774 338 829 l 404 746 q 435 762 418 756 z "},"+":{"ha":833,"x_min":191,"x_max":863,"o":"m 863 409 l 595 409 l 595 141 l 459 141 l 459 409 l 191 409 l 191 536 l 459 536 l 459 805 l 595 805 l 595 536 l 863 536 l 863 409 z "},",":{"ha":472,"x_min":66,"x_max":422,"o":"m 109 -253 l 66 -164 q 177 -107 131 -138 q 248 -45 222 -76 q 279 17 265 -24 q 251 4 264 9 q 227 0 238 0 q 160 32 189 0 q 132 109 132 64 q 171 200 132 162 q 267 237 210 237 q 345 216 309 237 q 402 155 381 195 q 422 68 422 116 q 388 -50 422 12 q 289 -162 354 -112 q 109 -253 224 -212 z "},"-":{"ha":389,"x_min":102,"x_max":442,"o":"m 135 416 l 442 416 l 408 269 l 102 269 l 135 416 z "},"­":{"ha":389,"x_min":102,"x_max":442,"o":"m 135 416 l 442 416 l 408 269 l 102 269 l 135 416 z "},".":{"ha":472,"x_min":134,"x_max":391,"o":"m 271 238 q 331 222 302 238 q 376 179 360 207 q 391 121 391 152 q 372 53 391 87 q 321 1 353 19 q 250 -16 290 -16 q 165 15 197 -16 q 134 98 134 46 q 152 167 134 135 q 203 219 170 199 q 271 238 237 238 z "},"/":{"ha":500,"x_min":-68,"x_max":748,"o":"m 748 1000 l 102 -215 l -68 -215 l 580 1000 l 748 1000 z "},":":{"ha":472,"x_min":134,"x_max":493,"o":"m 379 693 q 437 678 410 693 q 479 637 465 663 q 493 578 493 611 q 475 508 493 540 q 421 456 456 476 q 353 436 385 436 q 293 452 323 436 q 250 493 264 468 q 236 552 236 518 q 255 623 236 590 q 308 674 273 655 q 379 693 342 693 m 271 238 q 331 222 302 238 q 376 179 360 207 q 391 121 391 152 q 372 53 391 87 q 321 1 353 19 q 250 -16 290 -16 q 165 15 197 -16 q 134 98 134 46 q 152 167 134 135 q 203 219 170 199 q 271 238 237 238 z "},";":{"ha":472,"x_min":66,"x_max":488,"o":"m 373 693 q 433 679 406 693 q 471 640 459 664 q 488 574 488 607 q 470 506 488 539 q 419 453 451 472 q 352 435 387 435 q 291 450 319 435 q 247 494 262 466 q 231 554 231 522 q 251 622 231 588 q 303 674 270 656 q 373 693 337 693 m 108 -254 l 66 -165 q 176 -106 123 -142 q 248 -47 229 -71 q 279 16 267 -23 q 252 3 262 6 q 228 0 241 0 q 158 33 185 0 q 132 111 132 66 q 149 173 132 143 q 198 219 166 202 q 267 236 230 236 q 344 214 307 236 q 402 154 381 192 q 422 68 422 116 q 389 -53 422 7 q 285 -167 355 -114 q 108 -254 215 -220 z "},";":{"ha":472,"x_min":66,"x_max":488,"o":"m 373 693 q 433 679 406 693 q 471 640 459 664 q 488 574 488 607 q 470 506 488 539 q 419 453 451 472 q 352 435 387 435 q 291 450 319 435 q 247 494 262 466 q 231 554 231 522 q 251 622 231 588 q 303 674 270 656 q 373 693 337 693 m 108 -254 l 66 -165 q 176 -106 123 -142 q 248 -47 229 -71 q 279 16 267 -23 q 252 3 262 6 q 228 0 241 0 q 158 33 185 0 q 132 111 132 66 q 149 173 132 143 q 198 219 166 202 q 267 236 230 236 q 344 214 307 236 q 402 154 381 192 q 422 68 422 116 q 389 -53 422 7 q 285 -167 355 -114 q 108 -254 215 -220 z "},"<":{"ha":861,"x_min":205,"x_max":877,"o":"m 877 230 l 877 100 l 205 415 l 205 530 l 877 846 l 877 715 l 373 473 l 877 230 z "},"=":{"ha":833,"x_min":191,"x_max":863,"o":"m 863 538 l 191 538 l 191 666 l 863 666 l 863 538 m 863 279 l 191 279 l 191 408 l 863 408 l 863 279 z "},">":{"ha":861,"x_min":205,"x_max":877,"o":"m 205 715 l 205 846 l 877 530 l 877 415 l 205 100 l 205 230 l 709 473 l 205 715 z "},"?":{"ha":861,"x_min":224,"x_max":956,"o":"m 326 288 l 383 546 q 439 545 422 545 q 597 553 533 545 q 687 576 661 562 q 728 617 713 591 q 743 671 743 642 q 692 771 743 728 q 560 819 635 819 q 498 807 528 819 q 445 770 469 794 q 411 725 432 757 q 387 693 393 699 q 357 677 374 683 q 323 671 340 671 q 253 699 281 671 q 224 765 224 726 q 261 856 224 810 q 379 932 297 901 q 565 962 462 962 q 772 920 680 962 q 909 808 863 877 q 956 661 956 739 q 908 512 956 582 q 775 406 861 443 q 540 370 690 370 q 486 371 524 370 l 467 288 l 326 288 m 367 233 q 425 218 399 233 q 466 177 452 203 q 481 119 481 151 q 443 25 481 66 q 345 -16 406 -16 q 262 15 294 -16 q 231 96 231 45 q 250 163 231 132 q 301 214 269 195 q 367 233 334 233 z "},"@":{"ha":1083,"x_min":99,"x_max":1298,"o":"m 836 627 l 1002 634 l 878 208 q 857 104 857 138 q 872 65 857 81 q 912 49 888 49 q 1036 106 962 49 q 1157 261 1111 163 q 1204 470 1204 360 q 1148 692 1204 593 q 996 845 1092 791 q 770 898 899 898 q 466 819 601 898 q 251 593 332 741 q 170 272 170 446 q 330 -122 170 28 q 701 -262 478 -262 q 959 -206 838 -262 q 1162 -52 1080 -150 q 1257 112 1220 16 l 1298 112 q 1156 -114 1243 -24 q 952 -252 1069 -203 q 699 -300 836 -300 q 277 -140 446 -300 q 99 296 99 28 q 184 626 99 478 q 417 858 269 774 q 755 941 566 941 q 1013 883 904 941 q 1182 721 1121 826 q 1242 482 1242 615 q 1184 232 1242 347 q 1035 58 1126 117 q 836 0 944 0 q 761 14 790 0 q 715 58 732 28 q 698 121 698 87 q 714 214 698 155 q 633 93 661 126 q 548 18 593 45 q 480 0 518 0 q 398 39 431 0 q 366 153 366 79 q 400 335 366 242 q 493 503 433 427 q 629 625 553 578 q 716 653 675 653 q 787 621 761 653 q 813 547 806 600 l 836 627 m 736 604 q 696 588 719 604 q 637 504 674 572 q 570 341 600 437 q 541 188 541 245 q 553 141 541 157 q 581 124 566 124 q 614 140 593 124 q 691 231 650 165 q 757 374 732 296 q 782 513 782 452 q 767 581 782 558 q 736 604 753 604 z "},"A":{"ha":1000,"x_min":1,"x_max":1031,"o":"m 609 946 l 821 946 l 944 210 q 958 153 951 164 q 977 137 964 142 q 1031 131 990 131 l 999 0 l 566 0 l 597 131 l 635 131 q 688 139 675 131 q 712 180 712 153 q 706 237 712 193 l 696 313 l 402 313 l 340 204 q 321 157 321 170 q 336 136 321 143 q 384 131 345 131 l 420 131 l 390 0 l 1 0 l 32 131 q 84 137 66 130 q 115 156 102 143 q 158 217 128 169 l 609 946 m 680 438 l 641 726 l 480 438 l 680 438 z "},"B":{"ha":1000,"x_min":45,"x_max":1072,"o":"m 259 946 l 721 946 q 930 921 862 946 q 1036 846 999 895 q 1072 734 1072 796 q 1021 593 1072 656 q 854 489 970 530 q 951 440 918 467 q 1002 376 985 413 q 1020 298 1020 339 q 990 183 1020 239 q 899 82 960 127 q 764 22 838 37 q 517 0 661 0 l 45 0 l 74 131 l 98 131 q 174 143 153 131 q 205 199 195 155 l 328 739 q 334 775 334 763 q 318 808 334 799 q 269 815 307 815 l 229 815 l 259 946 m 517 562 l 608 562 q 720 568 691 562 q 804 615 772 579 q 836 701 836 651 q 802 772 836 748 q 678 797 768 797 l 571 797 l 517 562 m 486 425 l 434 202 q 429 170 429 179 q 437 152 429 157 q 476 148 443 148 l 553 148 q 683 167 640 148 q 753 227 726 186 q 781 311 781 267 q 763 374 781 348 q 711 413 745 401 q 601 425 677 425 l 486 425 z "},"C":{"ha":972,"x_min":139,"x_max":1067,"o":"m 1034 946 l 1067 591 l 926 575 q 854 760 912 699 q 711 821 797 821 q 564 773 635 821 q 448 631 493 725 q 398 419 398 525 q 429 270 398 335 q 510 172 460 205 q 620 140 560 140 q 714 156 667 140 q 810 206 762 172 q 926 314 858 241 l 1023 230 q 811 45 942 116 q 569 -16 700 -16 q 264 106 385 -16 q 139 422 139 234 q 211 689 139 564 q 407 888 283 814 q 669 962 531 962 q 815 940 745 962 q 905 895 863 925 l 936 946 l 1034 946 z "},"D":{"ha":1055,"x_min":43,"x_max":1139,"o":"m 43 0 l 74 131 l 108 131 q 157 135 143 131 q 189 157 178 142 q 208 212 197 169 l 325 730 q 334 779 334 771 q 317 809 334 798 q 267 815 307 815 l 230 815 l 259 946 l 676 946 q 871 926 797 946 q 989 873 946 906 q 1101 741 1063 817 q 1139 566 1139 665 q 1094 336 1139 444 q 973 156 1049 227 q 780 38 887 76 q 508 0 673 0 l 43 0 m 570 796 l 437 211 q 429 168 429 178 q 438 153 429 158 q 480 148 448 148 l 526 148 q 715 194 647 148 q 827 325 783 241 q 888 571 888 438 q 862 700 888 650 q 789 773 835 750 q 653 796 743 796 l 570 796 z "},"E":{"ha":1000,"x_min":44,"x_max":1105,"o":"m 229 815 l 258 946 l 1015 946 l 1105 662 l 980 621 q 943 698 965 668 q 880 760 915 738 q 796 791 844 781 q 702 798 764 798 l 569 798 l 513 555 l 543 555 q 621 562 594 555 q 662 586 647 570 q 689 635 677 602 q 702 693 694 648 l 828 693 l 738 292 l 612 292 q 625 366 625 349 q 600 416 625 399 q 524 428 582 428 l 487 428 l 439 216 l 433 189 q 429 168 429 177 q 442 150 429 155 q 487 148 448 148 l 565 148 q 725 167 665 148 q 864 251 805 192 q 956 392 923 310 l 1076 340 l 911 0 l 44 0 l 75 131 l 109 131 q 178 147 159 131 q 210 222 197 163 l 325 730 q 332 777 332 764 q 326 799 332 789 q 310 811 320 808 q 273 815 300 815 l 229 815 z "},"F":{"ha":917,"x_min":45,"x_max":1064,"o":"m 261 946 l 975 946 l 1064 659 l 939 619 q 892 708 921 671 q 836 762 864 745 q 751 787 808 778 q 660 795 695 795 l 572 795 l 513 536 l 536 535 q 598 544 570 535 q 640 565 625 552 q 662 594 654 578 q 673 633 665 601 q 682 671 680 661 l 809 671 l 716 267 l 591 267 q 597 299 594 281 q 604 343 604 330 q 593 378 604 363 q 564 399 583 393 q 501 406 546 406 l 484 406 l 437 199 q 431 166 431 172 q 442 141 431 151 q 475 131 454 131 l 536 131 l 506 0 l 45 0 l 77 131 l 114 131 q 166 138 150 131 q 192 157 183 144 q 210 210 200 169 l 330 739 q 336 777 336 764 q 330 799 336 789 q 311 812 323 808 q 270 815 303 815 l 233 815 l 261 946 z "},"G":{"ha":1055,"x_min":140,"x_max":1171,"o":"m 1045 946 l 1077 618 l 936 604 q 895 723 926 673 q 819 798 863 773 q 718 822 774 822 q 566 773 640 822 q 445 627 492 724 q 398 420 398 530 q 429 268 398 334 q 507 169 459 201 q 615 137 555 137 q 696 152 659 137 q 752 186 734 166 q 779 249 769 206 l 793 306 q 796 335 796 319 q 786 364 796 355 q 751 374 775 374 l 735 373 l 676 373 l 706 504 l 1171 504 l 1141 373 l 1099 373 q 1053 367 1066 373 q 1030 346 1039 360 q 1011 290 1021 332 l 946 0 l 806 0 l 793 57 q 677 1 734 18 q 554 -16 619 -16 q 260 107 379 -16 q 140 417 140 230 q 212 691 140 566 q 409 889 283 816 q 678 962 534 962 q 774 954 726 962 q 859 930 821 945 q 918 897 885 920 l 946 946 l 1045 946 z "},"H":{"ha":1111,"x_min":42,"x_max":1282,"o":"m 258 946 l 716 946 l 686 815 l 647 815 q 595 808 611 815 q 571 787 579 800 q 552 727 562 774 l 515 563 l 850 563 l 890 733 q 897 778 897 764 q 882 807 897 796 q 833 815 871 815 l 793 815 l 823 946 l 1282 946 l 1252 815 l 1225 815 q 1160 807 1177 815 q 1135 782 1144 800 q 1120 727 1129 770 l 1004 220 q 994 164 994 176 q 1010 137 994 144 q 1064 131 1023 131 l 1098 131 l 1070 0 l 609 0 l 638 131 l 679 131 q 730 139 713 131 q 755 161 747 147 q 774 224 764 176 l 819 420 l 482 420 l 434 208 q 427 164 427 176 q 447 137 427 146 q 504 131 460 131 l 531 131 l 504 0 l 42 0 l 72 131 l 102 131 q 163 139 142 131 q 188 158 180 145 q 206 215 196 170 l 322 733 q 331 778 331 771 q 315 807 331 796 q 262 815 304 815 l 227 815 l 258 946 z "},"I":{"ha":528,"x_min":33,"x_max":705,"o":"m 245 946 l 705 946 l 676 815 l 643 815 q 586 808 602 815 q 561 788 570 802 q 543 731 552 774 l 425 206 q 418 167 418 174 q 434 138 418 148 q 485 131 445 131 l 523 131 l 492 0 l 33 0 l 63 131 l 98 131 q 154 138 137 131 q 179 158 171 145 q 199 220 188 172 l 315 736 q 321 776 321 765 q 308 806 321 796 q 254 815 295 815 l 216 815 l 245 946 z "},"J":{"ha":861,"x_min":60,"x_max":1059,"o":"m 600 946 l 1059 946 l 1029 815 l 989 815 q 942 808 955 815 q 913 784 924 800 q 895 728 905 772 l 801 313 q 722 131 776 201 q 583 22 667 61 q 389 -16 499 -16 q 149 61 238 -16 q 60 252 60 139 q 99 374 60 329 q 191 420 137 420 q 269 389 239 420 q 298 305 298 359 q 295 273 298 291 q 291 232 291 242 q 305 181 291 205 q 346 144 319 157 q 406 132 372 132 q 510 174 469 132 q 577 336 551 216 l 669 741 q 675 777 675 769 q 657 809 675 799 q 608 815 646 815 l 571 815 l 600 946 z "},"K":{"ha":1083,"x_min":42,"x_max":1237,"o":"m 257 946 l 716 946 l 686 815 l 650 815 q 597 808 612 815 q 572 787 582 802 q 553 735 562 773 l 500 499 l 804 743 q 844 791 844 774 q 831 810 844 804 q 760 815 822 815 l 791 946 l 1237 946 l 1206 815 q 1135 805 1162 815 q 1059 758 1107 794 l 791 554 l 983 210 q 1034 145 1011 159 q 1112 131 1056 132 l 1084 0 l 627 0 l 656 131 l 690 131 q 741 139 729 131 q 753 161 753 146 q 736 204 753 174 l 616 420 l 454 300 l 434 210 q 427 165 427 180 q 441 139 427 148 q 500 131 454 131 l 531 131 l 500 0 l 42 0 l 71 131 l 108 131 q 162 137 147 131 q 187 157 178 144 q 205 210 196 170 l 326 743 q 332 778 332 768 q 318 807 332 797 q 267 815 307 815 l 227 815 l 257 946 z "},"L":{"ha":889,"x_min":6,"x_max":1003,"o":"m 220 946 l 679 946 l 648 815 l 608 815 q 566 811 579 815 q 536 789 547 804 q 517 736 526 774 l 397 206 q 390 170 390 175 q 398 154 390 159 q 431 149 407 149 l 466 149 q 591 155 551 149 q 714 194 661 165 q 810 272 768 222 q 883 390 852 321 l 1003 339 l 838 0 l 6 0 l 36 131 l 68 131 q 124 138 108 131 q 150 158 140 144 q 170 216 159 172 l 288 736 q 295 777 295 770 q 282 807 295 795 q 243 815 273 815 l 191 815 l 220 946 z "},"M":{"ha":1194,"x_min":39,"x_max":1373,"o":"m 252 946 l 678 946 l 688 408 l 944 946 l 1373 946 l 1345 815 l 1312 815 q 1269 811 1281 815 q 1246 797 1256 807 q 1228 768 1236 786 q 1221 736 1227 764 l 1101 207 q 1094 166 1094 177 q 1106 141 1094 151 q 1142 131 1118 131 l 1190 131 l 1160 0 l 734 0 l 763 131 l 789 131 q 855 147 836 131 q 884 212 873 163 l 1017 808 l 623 0 l 510 0 l 489 829 l 348 207 q 341 169 341 180 q 353 140 341 151 q 385 130 364 130 l 399 131 l 439 131 l 409 0 l 39 0 l 68 131 l 93 131 q 149 138 133 131 q 175 158 165 144 q 193 212 184 172 l 313 740 q 319 777 319 768 q 309 804 319 792 q 272 815 300 815 l 222 815 l 252 946 z "},"N":{"ha":1027,"x_min":43,"x_max":1213,"o":"m 258 946 l 626 946 l 801 354 l 894 742 q 900 778 900 767 q 884 808 900 798 q 833 815 873 815 l 795 815 l 827 946 l 1213 946 l 1181 815 l 1143 815 q 1093 807 1109 815 q 1067 783 1077 800 q 1048 723 1059 772 l 884 0 l 690 0 l 477 705 l 366 212 q 357 167 357 175 q 376 136 357 146 q 425 131 387 131 l 463 131 l 433 0 l 43 0 l 73 131 l 100 131 q 174 143 153 131 q 204 199 195 156 l 326 742 q 332 778 332 766 q 316 808 332 798 q 271 815 305 815 l 227 815 l 258 946 z "},"O":{"ha":1055,"x_min":139,"x_max":1134,"o":"m 697 962 q 921 905 819 962 q 1078 752 1022 848 q 1134 533 1134 655 q 1060 256 1134 385 q 860 56 987 127 q 581 -16 734 -16 q 239 132 363 -16 q 139 415 139 250 q 214 690 139 560 q 414 891 288 819 q 697 962 540 962 m 687 818 q 550 772 612 818 q 441 615 488 726 q 394 383 394 505 q 420 242 394 302 q 487 156 446 182 q 589 130 528 130 q 725 174 666 130 q 830 334 783 218 q 876 578 876 451 q 850 706 876 649 q 782 791 824 764 q 687 818 741 818 z "},"P":{"ha":889,"x_min":46,"x_max":1013,"o":"m 260 946 l 667 946 q 870 917 802 946 q 975 834 938 888 q 1013 704 1013 779 q 994 600 1013 650 q 939 506 976 551 q 854 433 901 462 q 749 393 807 405 q 581 374 663 374 l 476 374 l 438 211 q 432 165 432 182 q 444 140 432 149 q 488 131 455 131 l 535 131 l 504 0 l 46 0 l 76 131 l 111 131 q 179 145 161 131 q 208 204 198 160 l 330 743 q 335 778 335 766 q 329 800 335 791 q 313 812 323 808 q 275 815 304 815 l 231 815 l 260 946 m 509 524 l 556 524 q 661 534 629 524 q 736 592 705 550 q 767 683 767 634 q 750 745 767 719 q 704 784 733 772 q 608 795 674 795 l 572 795 l 509 524 z "},"Q":{"ha":1055,"x_min":139,"x_max":1134,"o":"m 395 17 q 208 173 277 66 q 139 415 139 279 q 213 689 139 560 q 412 890 287 819 q 688 962 537 962 q 1008 840 883 962 q 1134 533 1134 718 q 1064 263 1134 389 q 871 62 995 137 q 616 -16 748 -12 q 629 -75 614 -51 q 675 -113 644 -98 q 753 -128 707 -128 q 841 -114 793 -128 q 922 -80 889 -100 l 980 -197 q 827 -261 897 -242 q 687 -279 757 -279 q 525 -247 591 -279 q 427 -158 459 -214 q 394 -12 394 -102 q 395 17 394 2 m 687 818 q 550 772 612 818 q 441 615 488 726 q 394 383 394 505 q 420 242 394 302 q 487 156 446 182 q 589 130 528 130 q 725 174 666 130 q 830 334 783 218 q 876 578 876 451 q 850 706 876 649 q 782 791 824 764 q 687 818 741 818 z "},"R":{"ha":1027,"x_min":45,"x_max":1078,"o":"m 258 946 l 703 946 q 928 919 856 946 q 1039 839 1000 892 q 1078 716 1078 785 q 1000 527 1078 609 q 781 419 922 444 l 916 202 q 967 142 946 153 q 1057 131 988 131 l 1027 0 l 770 0 l 549 407 l 480 407 l 433 202 q 429 168 429 184 q 446 138 429 147 q 494 131 458 131 l 533 131 l 505 0 l 45 0 l 73 131 l 105 131 q 178 145 159 131 q 206 202 197 159 l 326 736 q 332 777 332 762 q 326 799 332 789 q 309 812 319 809 q 269 815 302 815 l 228 815 l 258 946 m 512 546 l 618 546 q 744 562 703 546 q 808 613 785 578 q 831 692 831 648 q 789 773 831 750 q 652 796 746 796 l 569 796 l 512 546 z "},"S":{"ha":972,"x_min":140,"x_max":1036,"o":"m 1010 946 l 1036 618 l 898 597 q 782 755 863 696 q 602 815 701 815 q 515 801 551 815 q 463 763 480 787 q 445 715 445 739 q 476 655 445 683 q 604 601 507 627 q 844 517 768 555 q 960 424 920 479 q 1000 292 1000 370 q 882 68 1000 161 q 611 -16 775 -16 q 438 10 514 -16 q 296 94 362 37 l 237 0 l 140 0 l 140 380 l 277 390 q 355 257 300 319 q 477 163 409 195 q 616 132 545 132 q 739 164 696 132 q 783 243 783 196 q 755 304 783 277 q 647 355 728 331 q 411 434 479 405 q 307 497 343 463 q 251 578 271 531 q 231 673 231 625 q 275 814 231 748 q 407 922 319 881 q 606 962 495 962 q 762 937 689 962 q 868 878 815 918 l 911 946 l 1010 946 z "},"T":{"ha":972,"x_min":149,"x_max":1116,"o":"m 319 977 l 409 977 l 414 946 l 951 946 l 963 977 l 1053 977 l 1116 635 l 979 608 l 972 629 q 936 730 946 711 q 879 795 915 770 q 812 820 843 820 q 789 811 798 820 q 775 779 781 803 l 648 218 q 640 165 640 180 q 656 137 640 146 q 700 131 666 131 l 743 131 l 713 0 l 254 0 l 285 131 l 319 131 l 336 130 q 390 147 372 130 q 420 218 408 164 l 543 765 q 547 800 547 787 q 541 814 547 809 q 521 820 535 820 q 463 806 490 820 q 373 734 418 783 q 273 593 340 699 l 149 657 l 319 977 z "},"U":{"ha":1027,"x_min":202,"x_max":1220,"o":"m 233 946 l 692 946 l 662 815 l 632 815 q 577 810 589 815 q 548 789 558 802 q 531 741 538 775 l 449 376 l 445 359 q 434 284 434 319 q 477 182 434 222 q 590 141 521 141 q 690 165 645 141 q 767 236 736 190 q 817 366 798 281 l 902 741 q 906 778 906 760 q 893 806 906 797 q 839 815 880 815 l 802 815 l 833 946 l 1220 946 l 1190 815 l 1154 815 q 1111 812 1122 815 q 1089 799 1100 808 q 1072 777 1078 790 q 1059 732 1065 764 l 964 318 q 927 211 954 272 q 845 96 900 149 q 714 14 791 43 q 545 -16 638 -16 q 362 20 438 -16 q 244 121 286 56 q 202 258 202 185 q 212 347 202 303 l 300 741 q 307 777 307 770 q 289 808 307 798 q 240 815 277 815 l 204 815 l 233 946 z "},"V":{"ha":917,"x_min":189,"x_max":1129,"o":"m 218 946 l 652 946 l 623 815 l 581 815 q 534 810 546 815 q 515 795 522 806 q 506 764 506 780 q 509 727 506 759 l 555 258 l 795 732 q 812 779 812 766 q 800 806 812 797 q 751 815 788 815 l 713 815 l 742 946 l 1129 946 l 1099 815 q 1044 808 1062 815 q 1009 782 1026 801 q 979 732 998 770 l 581 0 l 369 0 l 274 736 q 261 790 269 777 q 241 809 254 804 q 189 815 229 815 l 218 946 z "},"W":{"ha":1389,"x_min":193,"x_max":1592,"o":"m 222 946 l 647 946 l 618 815 l 583 815 q 524 805 536 815 q 507 766 507 791 l 508 747 l 508 734 l 551 237 l 780 673 l 768 734 l 768 743 q 754 787 764 771 q 731 809 744 804 q 684 815 719 815 l 714 946 l 1132 946 l 1101 815 l 1063 815 q 1005 803 1020 815 q 991 760 991 790 q 991 748 991 756 l 1031 257 l 1259 725 q 1275 766 1267 741 q 1278 779 1278 774 q 1271 800 1278 790 q 1255 812 1264 809 q 1215 815 1246 815 l 1177 815 l 1206 946 l 1592 946 l 1562 815 q 1519 811 1533 814 q 1495 801 1506 808 q 1471 778 1483 793 q 1452 743 1465 770 l 1063 0 l 848 0 l 800 445 l 568 0 l 355 0 l 275 734 q 262 787 271 773 q 241 808 254 802 q 193 815 228 815 l 222 946 z "},"X":{"ha":1027,"x_min":9,"x_max":1194,"o":"m 246 946 l 713 946 l 684 815 l 646 815 q 600 807 612 815 q 589 781 589 798 q 606 739 589 769 l 688 585 l 820 739 q 842 771 832 753 q 846 784 846 778 q 840 801 846 793 q 822 812 833 809 q 781 815 814 815 l 760 815 l 789 946 l 1194 946 l 1166 815 q 1099 804 1122 815 q 1036 758 1067 789 l 753 463 l 909 227 q 977 147 951 163 q 1057 131 1003 131 l 1027 0 l 555 0 l 585 131 l 616 131 q 667 138 655 131 q 678 163 678 146 q 661 210 678 182 q 654 220 657 214 l 557 397 l 387 203 q 363 174 367 180 q 359 157 359 165 q 371 138 359 144 q 420 131 382 131 l 450 131 l 420 0 l 9 0 l 39 131 q 96 140 70 132 q 137 161 122 148 q 184 203 168 185 l 492 525 l 341 750 q 286 804 316 788 q 216 815 264 816 l 246 946 z "},"Y":{"ha":917,"x_min":184,"x_max":1124,"o":"m 214 946 l 656 946 l 628 815 l 581 815 q 538 809 548 815 q 522 778 522 798 q 530 743 522 764 l 610 519 l 762 727 q 786 766 781 755 q 791 785 791 777 q 780 807 791 799 q 731 815 768 815 l 701 815 l 731 946 l 1124 946 l 1096 815 q 1043 810 1060 815 q 1009 791 1026 804 q 968 749 992 779 l 674 381 l 635 205 q 628 169 628 176 q 645 138 628 148 q 694 131 656 131 l 731 131 l 701 0 l 243 0 l 273 131 l 300 131 q 361 137 344 131 q 388 156 378 143 q 405 205 397 169 l 443 376 l 292 734 q 264 789 275 776 q 235 808 253 802 q 184 815 218 815 l 214 946 z "},"Z":{"ha":945,"x_min":56,"x_max":1074,"o":"m 350 946 l 1074 946 l 1044 815 l 404 147 l 470 147 q 657 169 593 147 q 781 246 722 191 q 896 401 840 301 l 1012 342 l 819 0 l 56 0 l 85 131 l 724 795 l 667 795 q 455 753 530 795 q 288 568 359 699 l 172 624 l 350 946 z "},"[":{"ha":361,"x_min":-12,"x_max":587,"o":"m 284 985 l 587 985 l 560 869 l 436 869 l 191 -204 l 318 -204 l 291 -321 l -12 -321 l 284 985 z "},"\\":{"ha":806,"x_min":57,"x_max":871,"o":"m 224 1000 l 871 -215 l 702 -215 l 57 1000 l 224 1000 z "},"]":{"ha":361,"x_min":-117,"x_max":481,"o":"m 185 -321 l -117 -321 l -91 -204 l 34 -204 l 279 869 l 152 869 l 179 985 l 481 985 l 185 -321 z "},"^":{"ha":861,"x_min":195,"x_max":887,"o":"m 344 393 l 195 393 l 470 946 l 612 946 l 887 393 l 739 393 l 541 777 l 344 393 z "},"_":{"ha":694,"x_min":-8,"x_max":703,"o":"m -8 -104 l 703 -104 l 703 -174 l -8 -174 l -8 -104 z "},"`":{"ha":528,"x_min":153,"x_max":467,"o":"m 467 831 l 408 770 l 256 846 q 173 907 194 879 q 153 964 153 935 q 178 1024 153 999 q 239 1048 203 1048 q 320 1017 281 1048 q 467 831 359 986 z "},"a":{"ha":945,"x_min":117,"x_max":1013,"o":"m 731 618 l 774 677 l 930 677 l 826 222 q 816 163 816 176 q 825 143 816 151 q 847 135 833 135 q 885 146 861 135 q 935 182 908 158 l 1013 93 q 892 9 951 35 q 772 -16 833 -16 q 695 -1 730 -16 q 636 41 660 14 q 602 103 612 68 q 531 38 572 66 q 450 -3 489 9 q 363 -16 411 -16 q 235 18 290 -16 q 148 113 180 52 q 117 260 117 174 q 242 565 117 436 q 530 693 368 693 q 634 676 589 693 q 731 618 680 660 m 675 505 q 612 544 638 534 q 559 554 587 554 q 411 458 471 554 q 352 252 352 363 q 376 175 352 205 q 433 146 399 146 q 506 172 470 146 q 601 295 555 210 q 675 505 647 380 z "},"b":{"ha":833,"x_min":87,"x_max":885,"o":"m 524 995 l 426 561 q 507 639 472 614 q 586 679 542 664 q 669 693 630 693 q 775 661 724 693 q 855 569 825 629 q 885 437 885 510 q 825 210 885 322 q 675 41 764 98 q 483 -16 586 -16 q 284 57 366 -16 l 241 0 l 87 0 l 269 806 l 160 806 l 191 938 q 308 950 254 939 q 463 995 362 961 l 524 995 m 338 165 q 397 130 376 138 q 439 121 418 121 q 528 157 482 121 q 610 273 574 193 q 646 429 646 353 q 627 504 646 479 q 575 529 608 529 q 506 503 538 529 q 405 368 452 459 q 338 165 357 276 z "},"c":{"ha":778,"x_min":113,"x_max":831,"o":"m 719 227 l 795 124 q 422 -16 612 -16 q 197 64 281 -16 q 113 271 113 144 q 174 476 113 378 q 341 633 235 574 q 570 693 448 693 q 760 636 690 693 q 831 505 831 580 q 801 421 831 452 q 722 390 771 390 q 669 404 692 390 q 630 441 645 417 q 614 482 623 452 q 597 527 606 515 q 574 547 589 539 q 543 554 559 554 q 468 523 506 554 q 384 409 418 483 q 349 263 349 334 q 385 170 349 205 q 479 134 421 134 q 590 158 526 134 q 719 227 654 181 z "},"d":{"ha":945,"x_min":115,"x_max":1008,"o":"m 998 995 l 820 212 l 818 204 q 812 168 812 182 q 821 144 812 152 q 844 136 829 136 q 932 182 873 136 l 1008 94 q 893 13 958 43 q 770 -16 827 -16 q 689 0 726 -16 q 630 44 653 16 q 596 117 607 72 q 521 43 564 74 q 435 -2 478 13 q 346 -16 392 -16 q 172 71 237 -16 q 115 246 115 146 q 174 473 115 364 q 322 638 233 583 q 522 693 412 693 q 622 679 579 693 q 702 633 664 665 l 743 806 l 633 806 l 664 938 q 780 949 729 939 q 932 995 831 960 l 998 995 m 674 505 q 563 555 614 555 q 470 518 519 555 q 388 405 422 481 q 353 250 353 329 q 374 172 353 198 q 428 146 395 146 q 509 178 465 146 q 602 301 553 211 q 674 505 650 391 z "},"e":{"ha":778,"x_min":113,"x_max":835,"o":"m 715 244 l 801 146 q 613 21 702 58 q 431 -16 525 -16 q 226 39 300 -16 q 113 272 113 126 q 174 476 113 381 q 352 632 235 572 q 600 693 468 693 q 773 644 711 693 q 835 524 835 594 q 813 439 835 475 q 733 357 785 390 q 576 303 681 325 q 353 280 471 281 l 353 263 q 389 171 353 207 q 483 135 425 135 q 587 161 531 135 q 715 244 663 196 m 378 399 q 543 424 485 406 q 625 468 601 441 q 643 512 643 488 q 626 549 643 534 q 580 564 608 564 q 506 544 546 564 q 434 490 466 525 q 378 399 403 456 z "},"f":{"ha":583,"x_min":-149,"x_max":868,"o":"m 532 677 l 656 677 l 627 546 l 502 546 l 377 -8 q 306 -177 355 -109 q 195 -278 258 -246 q 45 -310 132 -310 q -89 -276 -39 -310 q -149 -182 -149 -236 q -121 -113 -149 -141 q -52 -85 -93 -85 q -17 -91 -34 -85 q 16 -109 1 -97 q 52 -148 25 -116 q 72 -166 63 -161 q 94 -171 81 -171 q 159 -74 140 -171 l 289 546 l 184 546 l 213 677 l 318 677 l 333 747 q 445 930 359 865 q 672 995 531 995 q 782 978 742 995 q 845 930 823 962 q 868 866 868 899 q 855 815 868 840 q 819 780 842 791 q 769 768 797 768 q 721 778 743 768 q 677 814 699 789 q 642 848 653 842 q 618 855 631 855 q 575 830 593 855 q 550 756 564 814 l 532 677 z "},"g":{"ha":861,"x_min":41,"x_max":925,"o":"m 767 677 l 925 677 l 794 105 q 764 -11 776 24 q 707 -132 741 -82 q 615 -223 673 -182 q 480 -287 557 -264 q 313 -310 404 -310 q 159 -288 222 -310 q 69 -231 96 -265 q 41 -157 41 -197 q 71 -88 41 -116 q 144 -60 100 -60 q 191 -71 170 -60 q 241 -117 212 -82 q 292 -162 268 -151 q 349 -174 317 -174 q 463 -135 408 -174 q 550 -24 517 -95 q 583 90 572 21 q 513 29 546 50 q 439 -4 481 8 q 355 -16 397 -16 q 180 58 250 -16 q 109 245 109 132 q 167 471 109 366 q 319 635 224 577 q 522 693 414 693 q 626 676 581 693 q 724 616 671 660 l 767 677 m 670 501 q 614 540 642 527 q 557 553 586 553 q 463 518 510 553 q 382 409 416 484 q 347 253 347 333 q 369 172 347 199 q 428 144 391 144 q 545 214 486 144 q 663 467 628 313 l 670 501 z "},"h":{"ha":972,"x_min":136,"x_max":1036,"o":"m 511 995 l 575 995 l 477 559 q 557 638 520 611 q 637 679 595 665 q 724 693 680 693 q 824 672 783 693 q 889 612 865 652 q 913 529 913 572 q 911 500 913 514 q 902 458 910 493 l 848 216 q 839 164 839 174 q 848 144 839 153 q 869 135 857 135 q 903 144 884 135 q 959 183 923 153 l 1036 94 q 910 8 966 33 q 799 -16 854 -16 q 673 27 722 -16 q 623 129 623 71 q 636 224 623 166 l 680 418 q 692 486 692 469 q 680 516 692 505 q 647 528 667 528 q 553 484 602 528 q 441 312 492 429 q 372 99 397 213 l 349 0 l 136 0 l 319 806 l 212 806 l 242 938 q 511 995 370 944 z "},"i":{"ha":528,"x_min":152,"x_max":589,"o":"m 463 995 q 544 962 515 995 q 573 882 573 928 q 555 815 573 847 q 504 764 537 783 q 439 745 471 745 q 381 760 410 745 q 337 802 353 776 q 322 859 322 829 q 341 926 322 893 q 392 977 361 960 q 463 995 423 995 m 465 693 l 530 693 l 408 220 q 395 160 395 170 q 403 141 395 149 q 424 134 411 134 q 512 184 459 134 l 589 94 q 354 -16 478 -16 q 261 2 299 -16 q 200 57 223 21 q 177 127 177 93 q 182 169 177 139 q 196 240 189 213 l 264 503 l 152 503 l 182 633 q 465 693 340 651 z "},"j":{"ha":444,"x_min":-186,"x_max":572,"o":"m 458 995 q 541 963 509 995 q 572 881 572 932 q 554 814 572 846 q 503 764 536 783 q 435 746 470 746 q 355 779 388 746 q 322 859 322 811 q 359 952 322 910 q 458 995 397 995 m 516 693 l 351 -44 q 324 -135 336 -106 q 262 -224 304 -186 q 155 -287 220 -263 q 9 -310 90 -310 q -146 -265 -94 -310 q -186 -182 -186 -229 q -172 -130 -186 -157 q -137 -97 -161 -110 q -87 -84 -113 -84 q -54 -91 -73 -84 q -18 -109 -35 -97 q 16 -142 -9 -114 q 41 -168 37 -165 q 62 -172 50 -172 q 100 -153 84 -172 q 129 -78 117 -134 l 260 504 l 155 504 l 184 635 q 307 651 243 637 q 451 693 371 665 l 516 693 z "},"k":{"ha":972,"x_min":136,"x_max":1038,"o":"m 574 995 l 442 399 q 541 528 492 477 q 653 619 590 578 q 765 676 715 660 q 861 693 814 693 q 983 659 939 693 q 1027 579 1027 625 q 1015 532 1027 553 q 978 497 1002 510 q 928 485 954 485 q 853 511 895 485 q 801 541 812 537 q 771 547 786 547 q 728 536 751 547 q 670 498 705 526 l 742 299 q 787 189 773 212 q 826 146 805 159 q 865 132 847 132 q 964 182 905 132 l 1038 94 q 790 -16 926 -16 q 653 28 709 -16 q 562 177 597 73 l 507 341 q 411 183 448 262 q 345 0 374 104 l 136 0 l 317 807 l 209 807 l 239 938 q 368 952 307 939 q 507 995 429 965 l 574 995 z "},"l":{"ha":528,"x_min":180,"x_max":589,"o":"m 576 995 l 401 209 q 394 165 394 179 q 402 142 394 151 q 422 134 410 134 q 456 144 436 134 q 511 183 488 160 l 589 96 q 465 8 522 33 q 349 -16 408 -16 q 227 28 273 -16 q 180 138 180 73 q 193 227 180 172 l 321 807 l 213 807 l 244 938 q 367 952 304 939 q 511 995 430 965 l 576 995 z "},"m":{"ha":1333,"x_min":138,"x_max":1411,"o":"m 498 693 l 467 555 q 549 638 513 612 q 625 679 585 665 q 703 693 664 693 q 782 677 745 693 q 841 636 819 661 q 875 568 863 610 q 944 636 905 608 q 1025 679 984 665 q 1109 693 1065 693 q 1237 647 1187 693 q 1286 532 1286 601 q 1284 490 1286 510 q 1274 444 1282 479 l 1223 217 q 1215 168 1215 182 q 1224 143 1215 152 q 1248 135 1232 135 q 1277 144 1261 135 q 1335 182 1310 160 l 1411 95 q 1168 -16 1293 -16 q 1046 27 1093 -16 q 999 129 999 70 q 1008 205 999 162 l 1059 433 q 1068 485 1068 472 q 1056 517 1068 505 q 1025 530 1043 530 q 966 505 996 530 q 877 379 915 463 q 798 123 838 296 l 769 0 l 555 0 l 650 420 q 662 485 662 472 q 649 518 662 505 q 616 530 637 530 q 591 526 604 530 q 553 503 572 518 q 508 451 534 487 q 455 359 482 414 q 417 261 429 304 l 376 104 l 353 0 l 138 0 l 251 505 l 146 505 l 176 635 q 436 693 297 641 l 498 693 z "},"n":{"ha":945,"x_min":139,"x_max":1023,"o":"m 139 0 l 253 505 l 147 505 l 176 634 q 437 693 302 641 l 500 693 l 471 562 q 553 639 515 612 q 632 680 591 666 q 716 693 673 693 q 848 645 797 693 q 899 530 899 597 q 897 495 899 512 q 886 447 896 487 l 838 231 q 827 171 827 182 q 836 149 827 157 q 858 141 844 141 q 946 189 898 141 l 1023 100 q 900 13 955 37 q 785 -12 844 -12 q 656 34 702 -12 q 610 134 610 80 q 626 231 610 165 l 672 439 q 680 488 680 472 q 667 517 680 506 q 632 529 654 529 q 585 517 606 529 q 506 438 548 496 q 436 310 463 381 q 376 100 408 239 l 353 0 l 139 0 z "},"o":{"ha":833,"x_min":117,"x_max":873,"o":"m 545 693 q 779 615 685 693 q 873 404 873 536 q 816 193 873 293 q 663 39 758 94 q 448 -16 568 -16 q 206 67 296 -16 q 117 283 117 150 q 173 489 117 393 q 327 638 229 584 q 545 693 425 693 m 538 555 q 452 522 493 555 q 380 413 411 490 q 349 255 349 336 q 377 157 349 190 q 450 124 405 124 q 537 156 496 124 q 610 263 578 187 q 641 423 641 339 q 613 522 641 489 q 538 555 585 555 z "},"p":{"ha":917,"x_min":-35,"x_max":955,"o":"m 253 504 l 147 504 l 178 633 q 436 693 332 650 l 501 693 l 473 563 q 548 639 513 614 q 627 679 583 664 q 718 693 671 693 q 840 661 787 693 q 924 567 893 629 q 955 422 955 505 q 896 204 955 311 q 744 40 837 97 q 543 -16 651 -16 q 451 -3 492 -16 q 363 41 410 9 l 331 -104 q 324 -142 324 -134 q 341 -166 324 -159 q 400 -172 353 -172 l 432 -172 l 400 -302 l -35 -302 l -7 -172 l 18 -172 q 77 -166 63 -172 q 100 -148 92 -161 q 119 -92 109 -135 l 253 504 m 395 175 q 509 122 447 122 q 601 156 555 122 q 682 268 648 191 q 717 425 717 345 q 694 504 717 477 q 635 530 672 530 q 548 492 595 530 q 453 359 500 453 q 404 220 420 294 l 395 175 z "},"q":{"ha":861,"x_min":108,"x_max":917,"o":"m 917 677 l 743 -94 q 735 -140 735 -132 q 748 -163 735 -155 q 802 -172 761 -172 l 831 -172 l 802 -302 l 366 -302 l 397 -172 l 428 -172 q 487 -165 471 -172 q 512 -147 504 -159 q 530 -91 521 -135 l 574 101 q 339 -16 471 -16 q 223 15 273 -16 q 141 111 174 46 q 108 248 108 175 q 167 473 108 363 q 317 638 227 584 q 519 693 407 693 q 629 676 582 693 q 720 618 676 659 l 764 677 l 917 677 m 666 505 q 612 542 639 530 q 557 555 585 555 q 463 518 511 555 q 380 406 414 482 q 346 248 346 330 q 367 173 346 199 q 423 146 389 146 q 543 220 484 146 q 666 505 628 328 z "},"r":{"ha":694,"x_min":136,"x_max":823,"o":"m 496 693 l 463 541 q 537 630 501 599 q 615 677 574 661 q 696 693 656 693 q 789 662 755 693 q 823 581 823 630 q 793 496 823 530 q 718 462 762 462 q 684 467 700 462 q 638 491 675 469 q 595 505 613 505 q 568 499 581 505 q 521 462 547 489 q 465 381 495 435 q 416 255 443 341 q 372 93 389 170 l 349 0 l 136 0 l 249 503 l 144 503 l 175 634 q 434 693 285 636 l 496 693 z "},"s":{"ha":750,"x_min":94,"x_max":816,"o":"m 527 693 q 687 668 616 693 q 787 609 758 643 q 816 541 816 575 q 792 478 816 503 q 729 453 768 453 q 694 458 711 453 q 662 473 677 463 q 624 505 651 479 q 585 538 596 532 q 545 554 568 549 q 495 560 522 560 q 428 546 448 560 q 408 509 408 531 q 419 481 408 492 q 468 454 435 465 q 660 381 603 410 q 746 314 717 353 q 774 220 774 275 q 735 104 774 159 q 621 16 696 49 q 433 -16 547 -16 q 170 45 269 -16 q 94 156 94 93 q 120 219 94 193 q 184 245 146 245 q 215 240 199 245 q 249 221 231 235 q 286 184 261 212 q 318 153 307 161 q 377 121 350 130 q 447 112 405 112 q 528 126 502 112 q 562 172 562 146 q 536 214 562 197 q 412 261 518 226 q 243 354 290 302 q 196 472 196 405 q 232 581 196 530 q 342 662 268 631 q 527 693 416 693 z "},"t":{"ha":611,"x_min":155,"x_max":705,"o":"m 420 908 l 559 908 l 506 677 l 705 677 l 673 546 l 475 546 l 408 248 q 398 186 398 204 q 411 150 398 163 q 446 137 424 137 q 510 161 471 137 q 599 241 549 185 l 688 163 q 532 21 598 58 q 391 -16 466 -16 q 241 37 299 -16 q 182 160 182 90 q 196 258 182 197 l 260 546 l 155 546 l 183 659 q 284 706 243 676 q 361 789 324 736 q 420 908 398 842 z "},"u":{"ha":945,"x_min":134,"x_max":1008,"o":"m 925 677 l 819 206 q 812 166 812 175 q 821 144 812 153 q 842 135 829 135 q 876 145 857 135 q 930 183 907 161 l 1008 94 q 767 -16 891 -16 q 650 24 694 -16 q 595 119 613 56 q 488 23 553 62 q 343 -16 423 -16 q 214 30 262 -16 q 165 149 165 77 q 176 223 165 191 q 180 243 178 233 l 239 503 l 134 503 l 163 633 q 299 651 227 635 q 431 693 370 667 l 495 693 l 393 238 q 385 190 385 203 q 398 158 385 170 q 431 145 411 145 q 490 166 459 145 q 573 257 536 197 q 642 406 611 317 q 676 523 672 494 q 680 546 677 534 l 711 677 l 925 677 z "},"v":{"ha":750,"x_min":132,"x_max":829,"o":"m 492 693 l 391 239 q 381 186 381 197 q 394 157 381 169 q 426 145 406 145 q 503 178 463 145 q 603 301 563 227 q 642 438 642 376 q 637 482 642 463 q 615 538 633 501 q 600 575 602 566 q 596 602 596 588 q 630 675 596 644 q 713 707 664 707 q 797 666 764 707 q 829 549 829 626 q 786 344 829 454 q 666 148 743 235 q 510 23 589 62 q 344 -16 431 -16 q 220 23 267 -16 q 163 136 163 70 q 174 229 163 177 l 237 503 l 132 503 l 162 634 q 284 650 220 636 q 430 693 349 664 l 492 693 z "},"w":{"ha":1194,"x_min":125,"x_max":1274,"o":"m 488 693 l 387 243 q 378 193 378 206 q 391 159 378 172 q 425 146 404 146 q 496 178 458 146 q 608 333 559 230 q 693 603 656 436 l 709 677 l 924 677 l 828 243 q 821 196 821 213 q 837 160 821 175 q 878 144 852 144 q 1021 244 952 144 q 1090 427 1090 345 q 1085 475 1090 454 q 1066 522 1083 484 q 1046 570 1048 561 q 1042 602 1042 586 q 1078 679 1042 651 q 1153 707 1114 707 q 1214 688 1184 707 q 1259 634 1244 668 q 1274 541 1274 600 q 1202 266 1274 401 q 1016 50 1130 130 q 812 -17 918 -17 q 701 6 744 -17 q 633 72 657 29 q 610 146 616 100 q 526 52 569 87 q 436 0 482 17 q 340 -16 390 -16 q 209 30 259 -16 q 159 142 159 77 q 163 181 159 153 q 172 235 168 218 l 232 504 l 125 504 l 157 634 q 287 650 214 635 q 425 693 359 666 l 488 693 z "},"x":{"ha":861,"x_min":16,"x_max":933,"o":"m 431 693 l 537 469 q 659 627 627 595 q 749 690 703 670 q 832 711 794 711 q 903 684 875 711 q 930 619 930 658 q 920 572 930 592 q 890 538 910 553 q 850 519 870 524 q 802 515 842 517 q 746 509 758 513 q 711 490 729 503 q 670 450 688 473 q 595 349 663 441 l 631 274 q 700 160 672 186 q 755 133 728 133 q 855 184 800 133 l 933 96 q 684 -16 812 -16 q 592 1 633 -16 q 520 51 551 18 q 456 156 490 85 l 416 238 q 303 88 361 149 q 200 5 245 27 q 118 -16 155 -16 q 61 -3 87 -16 q 29 30 42 7 q 16 78 16 53 q 31 130 16 106 q 69 165 46 154 q 151 178 92 176 q 217 192 193 180 q 270 235 242 204 q 359 359 297 265 l 290 503 l 187 503 l 216 634 q 374 693 301 648 l 431 693 z "},"y":{"ha":833,"x_min":32,"x_max":915,"o":"m 237 505 l 130 505 l 161 635 q 426 693 291 644 l 494 693 l 394 252 q 383 186 383 203 q 396 157 383 168 q 433 146 409 146 q 498 173 463 146 q 593 297 551 214 q 663 505 636 380 l 701 677 l 915 677 l 775 57 q 620 -214 733 -126 q 301 -310 494 -310 q 99 -264 166 -310 q 32 -157 32 -218 q 62 -87 32 -117 q 134 -58 92 -58 q 183 -71 159 -58 q 230 -116 200 -80 q 281 -161 257 -149 q 338 -173 306 -173 q 416 -156 376 -173 q 487 -106 455 -138 q 541 -27 519 -73 q 576 93 563 20 q 506 29 539 51 q 433 -4 473 7 q 348 -16 393 -16 q 250 4 288 -16 q 188 63 212 24 q 163 143 163 103 q 177 239 163 175 l 237 505 z "},"z":{"ha":778,"x_min":69,"x_max":844,"o":"m 844 677 l 814 546 l 393 140 q 477 125 423 136 q 532 119 512 119 q 572 129 553 119 q 599 151 590 138 q 614 186 604 156 q 634 232 627 221 q 671 270 649 256 q 718 283 692 283 q 783 254 755 283 q 810 183 810 224 q 778 86 810 134 q 685 11 745 39 q 549 -16 626 -16 q 484 -13 521 -16 q 374 3 456 -10 q 288 15 303 14 q 232 17 260 17 q 69 0 155 17 l 99 131 l 525 541 l 456 556 q 423 560 437 560 q 383 547 399 560 q 347 492 367 534 q 299 427 325 446 q 241 409 274 409 q 178 436 204 409 q 151 502 151 463 q 218 633 151 573 q 408 693 284 693 q 470 690 438 693 q 567 675 492 688 q 649 663 634 665 q 696 661 673 661 q 844 677 755 661 z "},"{":{"ha":416,"x_min":40,"x_max":562,"o":"m 562 962 l 555 931 q 473 904 505 922 q 421 860 442 886 q 393 804 400 833 q 383 694 383 764 q 370 563 383 607 q 321 476 356 518 q 237 405 286 434 q 100 353 189 376 q 207 303 174 328 q 257 243 239 279 q 275 166 275 207 q 269 120 275 140 q 231 22 258 82 q 182 -127 182 -81 q 194 -173 182 -152 q 225 -206 205 -193 q 287 -228 245 -219 l 280 -259 q 200 -255 222 -259 q 123 -221 160 -246 q 66 -160 86 -197 q 46 -91 46 -123 q 100 83 46 -28 q 132 168 121 128 q 143 233 143 208 q 117 296 143 269 q 40 331 91 323 l 50 372 q 147 412 109 382 q 205 487 186 441 q 225 613 225 532 q 229 721 225 698 q 256 800 234 764 q 338 891 288 853 q 449 947 387 928 q 562 962 494 960 z "},"|":{"ha":861,"x_min":455,"x_max":627,"o":"m 455 996 l 627 996 l 627 -302 l 455 -302 l 455 996 z "},"}":{"ha":416,"x_min":-24,"x_max":498,"o":"m -24 -259 l -17 -229 q 65 -201 34 -219 q 117 -157 96 -184 q 145 -102 138 -130 q 155 9 155 -61 q 169 140 155 96 q 217 227 182 184 q 301 298 252 269 q 438 350 350 328 q 332 399 365 375 q 281 460 299 424 q 262 536 262 496 q 269 583 262 562 q 308 681 281 625 q 355 825 355 780 q 343 875 355 852 q 314 909 332 897 q 251 930 295 922 l 258 962 q 337 958 316 962 q 413 926 377 950 q 470 863 449 903 q 491 779 491 824 q 484 728 491 753 q 438 619 470 686 q 406 535 417 576 q 395 469 395 495 q 421 407 395 433 q 498 372 447 380 l 488 330 q 391 291 430 321 q 332 216 352 262 q 313 90 313 170 q 310 -18 313 5 q 282 -98 304 -61 q 200 -188 250 -151 q 89 -243 151 -226 q -24 -259 44 -256 z "},"~":{"ha":861,"x_min":194,"x_max":888,"o":"m 813 601 l 888 516 q 817 416 846 446 q 756 372 787 386 q 691 358 725 358 q 642 365 667 358 q 536 406 617 372 q 431 448 446 444 q 397 453 416 453 q 337 430 364 453 q 269 334 309 408 l 194 420 q 265 524 235 492 q 328 572 295 556 q 393 587 361 587 q 452 579 422 587 q 564 536 493 568 q 657 499 638 505 q 690 493 676 493 q 747 514 720 493 q 813 601 774 534 z "},"Ä":{"ha":1000,"x_min":1,"x_max":1031,"o":"m 609 946 l 821 946 l 944 210 q 958 153 951 164 q 977 137 964 142 q 1031 131 990 131 l 999 0 l 566 0 l 597 131 l 635 131 q 688 139 675 131 q 712 180 712 153 q 706 237 712 193 l 696 313 l 402 313 l 340 204 q 321 157 321 170 q 336 136 321 143 q 384 131 345 131 l 420 131 l 390 0 l 1 0 l 32 131 q 84 137 66 130 q 115 156 102 143 q 158 217 128 169 l 609 946 m 680 438 l 641 726 l 480 438 l 680 438 m 696 1154 q 652 1058 696 1098 q 563 1018 608 1018 q 499 1043 524 1018 q 474 1109 474 1069 q 515 1201 474 1160 q 606 1242 555 1242 q 671 1217 646 1242 q 696 1154 696 1192 m 1002 1154 q 958 1058 1002 1098 q 869 1018 914 1018 q 805 1043 830 1018 q 780 1109 780 1069 q 820 1201 780 1160 q 912 1242 861 1242 q 977 1217 951 1242 q 1002 1154 1002 1192 z "},"Å":{"ha":1000,"x_min":1,"x_max":1031,"o":"m 609 946 l 821 946 l 944 210 q 958 153 951 164 q 977 137 964 142 q 1031 131 990 131 l 999 0 l 566 0 l 597 131 l 635 131 q 688 139 675 131 q 712 180 712 153 q 706 237 712 193 l 696 313 l 402 313 l 340 204 q 321 157 321 170 q 336 136 321 143 q 384 131 345 131 l 420 131 l 390 0 l 1 0 l 32 131 q 84 137 66 130 q 115 156 102 143 q 158 217 128 169 l 609 946 m 680 438 l 641 726 l 480 438 l 680 438 m 891 1160 q 847 1057 891 1100 q 741 1013 803 1013 q 634 1056 678 1013 q 591 1160 591 1099 q 635 1264 591 1221 q 742 1308 680 1308 q 847 1265 804 1308 q 891 1160 891 1221 m 672 1162 q 691 1113 672 1133 q 736 1093 710 1093 q 783 1113 764 1093 q 802 1162 802 1133 q 783 1209 802 1190 q 736 1229 764 1229 q 691 1209 710 1229 q 672 1162 672 1190 z "},"Ç":{"ha":972,"x_min":139,"x_max":1067,"o":"m 1034 946 l 1067 591 l 926 575 q 854 760 912 699 q 711 821 797 821 q 564 773 635 821 q 448 631 493 725 q 398 419 398 525 q 429 270 398 335 q 510 172 460 205 q 620 140 560 140 q 714 156 667 140 q 810 206 762 172 q 926 314 858 241 l 1023 230 q 811 45 942 116 q 569 -16 700 -16 q 264 106 385 -16 q 139 422 139 234 q 211 689 139 564 q 407 888 283 814 q 669 962 531 962 q 815 940 745 962 q 905 895 863 925 l 936 946 l 1034 946 m 500 0 l 564 0 l 543 -72 q 593 -63 574 -63 q 672 -92 642 -63 q 701 -167 701 -121 q 661 -254 701 -220 q 548 -288 621 -288 q 438 -263 476 -288 q 400 -207 400 -238 q 413 -173 400 -186 q 446 -160 427 -160 q 491 -189 473 -160 q 513 -212 502 -205 q 539 -218 524 -218 q 578 -203 564 -218 q 592 -163 592 -189 q 578 -123 592 -138 q 545 -109 565 -109 q 513 -119 532 -109 l 475 -85 l 500 0 z "},"É":{"ha":1000,"x_min":44,"x_max":1105,"o":"m 229 815 l 258 946 l 1015 946 l 1105 662 l 980 621 q 943 698 965 668 q 880 760 915 738 q 796 791 844 781 q 702 798 764 798 l 569 798 l 513 555 l 543 555 q 621 562 594 555 q 662 586 647 570 q 689 635 677 602 q 702 693 694 648 l 828 693 l 738 292 l 612 292 q 625 366 625 349 q 600 416 625 399 q 524 428 582 428 l 487 428 l 439 216 l 433 189 q 429 168 429 177 q 442 150 429 155 q 487 148 448 148 l 565 148 q 725 167 665 148 q 864 251 805 192 q 956 392 923 310 l 1076 340 l 911 0 l 44 0 l 75 131 l 109 131 q 178 147 159 131 q 210 222 197 163 l 325 730 q 332 777 332 764 q 326 799 332 789 q 310 811 320 808 q 273 815 300 815 l 229 815 m 624 1052 q 766 1233 726 1197 q 848 1270 807 1270 q 913 1245 888 1270 q 938 1186 938 1221 q 918 1129 938 1157 q 842 1071 897 1102 l 681 991 l 624 1052 z "},"Ñ":{"ha":1027,"x_min":43,"x_max":1213,"o":"m 258 946 l 626 946 l 801 354 l 894 742 q 900 778 900 767 q 884 808 900 798 q 833 815 873 815 l 795 815 l 827 946 l 1213 946 l 1181 815 l 1143 815 q 1093 807 1109 815 q 1067 783 1077 800 q 1048 723 1059 772 l 884 0 l 690 0 l 477 705 l 366 212 q 357 167 357 175 q 376 136 357 146 q 425 131 387 131 l 463 131 l 433 0 l 43 0 l 73 131 l 100 131 q 174 143 153 131 q 204 199 195 156 l 326 742 q 332 778 332 766 q 316 808 332 798 q 271 815 305 815 l 227 815 l 258 946 m 928 1179 l 991 1128 q 919 1050 963 1078 q 827 1023 875 1023 q 713 1055 781 1023 q 673 1073 686 1069 q 646 1077 660 1077 q 604 1064 622 1077 q 570 1019 585 1050 l 507 1069 q 577 1159 540 1133 q 663 1185 615 1185 q 710 1181 688 1185 q 779 1163 732 1177 q 859 1145 838 1145 q 889 1152 875 1145 q 928 1179 904 1158 z "},"Ö":{"ha":1055,"x_min":139,"x_max":1134,"o":"m 697 962 q 921 905 819 962 q 1078 752 1022 848 q 1134 533 1134 655 q 1060 256 1134 385 q 860 56 987 127 q 581 -16 734 -16 q 239 132 363 -16 q 139 415 139 250 q 214 690 139 560 q 414 891 288 819 q 697 962 540 962 m 687 818 q 550 772 612 818 q 441 615 488 726 q 394 383 394 505 q 420 242 394 302 q 487 156 446 182 q 589 130 528 130 q 725 174 666 130 q 830 334 783 218 q 876 578 876 451 q 850 706 876 649 q 782 791 824 764 q 687 818 741 818 m 683 1154 q 639 1058 683 1098 q 549 1018 595 1018 q 486 1043 511 1018 q 460 1109 460 1069 q 501 1201 460 1160 q 593 1242 542 1242 q 658 1217 633 1242 q 683 1154 683 1192 m 988 1154 q 944 1058 988 1098 q 855 1018 901 1018 q 791 1043 817 1018 q 766 1109 766 1069 q 807 1201 766 1160 q 899 1242 847 1242 q 963 1217 938 1242 q 988 1154 988 1192 z "},"Ü":{"ha":1027,"x_min":202,"x_max":1220,"o":"m 233 946 l 692 946 l 662 815 l 632 815 q 577 810 589 815 q 548 789 558 802 q 531 741 538 775 l 449 376 l 445 359 q 434 284 434 319 q 477 182 434 222 q 590 141 521 141 q 690 165 645 141 q 767 236 736 190 q 817 366 798 281 l 902 741 q 906 778 906 760 q 893 806 906 797 q 839 815 880 815 l 802 815 l 833 946 l 1220 946 l 1190 815 l 1154 815 q 1111 812 1122 815 q 1089 799 1100 808 q 1072 777 1078 790 q 1059 732 1065 764 l 964 318 q 927 211 954 272 q 845 96 900 149 q 714 14 791 43 q 545 -16 638 -16 q 362 20 438 -16 q 244 121 286 56 q 202 258 202 185 q 212 347 202 303 l 300 741 q 307 777 307 770 q 289 808 307 798 q 240 815 277 815 l 204 815 l 233 946 m 710 1154 q 666 1058 710 1098 q 576 1018 622 1018 q 513 1043 538 1018 q 488 1109 488 1069 q 528 1201 488 1160 q 620 1242 569 1242 q 685 1217 660 1242 q 710 1154 710 1192 m 1015 1154 q 971 1058 1015 1098 q 882 1018 928 1018 q 819 1043 844 1018 q 793 1109 793 1069 q 834 1201 793 1160 q 926 1242 874 1242 q 990 1217 965 1242 q 1015 1154 1015 1192 z "},"á":{"ha":945,"x_min":117,"x_max":1013,"o":"m 731 618 l 774 677 l 930 677 l 826 222 q 816 163 816 176 q 825 143 816 151 q 847 135 833 135 q 885 146 861 135 q 935 182 908 158 l 1013 93 q 892 9 951 35 q 772 -16 833 -16 q 695 -1 730 -16 q 636 41 660 14 q 602 103 612 68 q 531 38 572 66 q 450 -3 489 9 q 363 -16 411 -16 q 235 18 290 -16 q 148 113 180 52 q 117 260 117 174 q 242 565 117 436 q 530 693 368 693 q 634 676 589 693 q 731 618 680 660 m 675 505 q 612 544 638 534 q 559 554 587 554 q 411 458 471 554 q 352 252 352 363 q 376 175 352 205 q 433 146 399 146 q 506 172 470 146 q 601 295 555 210 q 675 505 647 380 m 515 831 q 657 1012 616 976 q 739 1048 698 1048 q 804 1024 779 1048 q 829 965 829 1000 q 808 908 829 936 q 733 850 788 881 l 572 770 l 515 831 z "},"à":{"ha":945,"x_min":117,"x_max":1013,"o":"m 731 618 l 774 677 l 930 677 l 826 222 q 816 163 816 176 q 825 143 816 151 q 847 135 833 135 q 885 146 861 135 q 935 182 908 158 l 1013 93 q 892 9 951 35 q 772 -16 833 -16 q 695 -1 730 -16 q 636 41 660 14 q 602 103 612 68 q 531 38 572 66 q 450 -3 489 9 q 363 -16 411 -16 q 235 18 290 -16 q 148 113 180 52 q 117 260 117 174 q 242 565 117 436 q 530 693 368 693 q 634 676 589 693 q 731 618 680 660 m 675 505 q 612 544 638 534 q 559 554 587 554 q 411 458 471 554 q 352 252 352 363 q 376 175 352 205 q 433 146 399 146 q 506 172 470 146 q 601 295 555 210 q 675 505 647 380 m 716 831 l 658 770 l 506 846 q 423 907 444 879 q 402 964 402 935 q 428 1024 402 999 q 489 1048 453 1048 q 570 1017 531 1048 q 716 831 608 986 z "},"â":{"ha":945,"x_min":117,"x_max":1013,"o":"m 731 618 l 774 677 l 930 677 l 826 222 q 816 163 816 176 q 825 143 816 151 q 847 135 833 135 q 885 146 861 135 q 935 182 908 158 l 1013 93 q 892 9 951 35 q 772 -16 833 -16 q 695 -1 730 -16 q 636 41 660 14 q 602 103 612 68 q 531 38 572 66 q 450 -3 489 9 q 363 -16 411 -16 q 235 18 290 -16 q 148 113 180 52 q 117 260 117 174 q 242 565 117 436 q 530 693 368 693 q 634 676 589 693 q 731 618 680 660 m 675 505 q 612 544 638 534 q 559 554 587 554 q 411 458 471 554 q 352 252 352 363 q 376 175 352 205 q 433 146 399 146 q 506 172 470 146 q 601 295 555 210 q 675 505 647 380 m 902 861 l 848 769 l 650 843 l 451 769 l 397 861 l 650 1013 l 902 861 z "},"ä":{"ha":945,"x_min":117,"x_max":1013,"o":"m 731 618 l 774 677 l 930 677 l 826 222 q 816 163 816 176 q 825 143 816 151 q 847 135 833 135 q 885 146 861 135 q 935 182 908 158 l 1013 93 q 892 9 951 35 q 772 -16 833 -16 q 695 -1 730 -16 q 636 41 660 14 q 602 103 612 68 q 531 38 572 66 q 450 -3 489 9 q 363 -16 411 -16 q 235 18 290 -16 q 148 113 180 52 q 117 260 117 174 q 242 565 117 436 q 530 693 368 693 q 634 676 589 693 q 731 618 680 660 m 675 505 q 612 544 638 534 q 559 554 587 554 q 411 458 471 554 q 352 252 352 363 q 376 175 352 205 q 433 146 399 146 q 506 172 470 146 q 601 295 555 210 q 675 505 647 380 m 587 933 q 543 837 587 877 q 453 797 498 797 q 389 822 414 797 q 364 888 364 848 q 405 980 364 939 q 496 1021 446 1021 q 562 996 536 1021 q 587 933 587 971 m 892 933 q 848 837 892 877 q 759 797 804 797 q 695 822 720 797 q 670 888 670 848 q 710 980 670 939 q 802 1021 751 1021 q 867 996 842 1021 q 892 933 892 971 z "},"ã":{"ha":945,"x_min":117,"x_max":1013,"o":"m 731 618 l 774 677 l 930 677 l 826 222 q 816 163 816 176 q 825 143 816 151 q 847 135 833 135 q 885 146 861 135 q 935 182 908 158 l 1013 93 q 892 9 951 35 q 772 -16 833 -16 q 695 -1 730 -16 q 636 41 660 14 q 602 103 612 68 q 531 38 572 66 q 450 -3 489 9 q 363 -16 411 -16 q 235 18 290 -16 q 148 113 180 52 q 117 260 117 174 q 242 565 117 436 q 530 693 368 693 q 634 676 589 693 q 731 618 680 660 m 675 505 q 612 544 638 534 q 559 554 587 554 q 411 458 471 554 q 352 252 352 363 q 376 175 352 205 q 433 146 399 146 q 506 172 470 146 q 601 295 555 210 q 675 505 647 380 m 804 958 l 867 907 q 795 829 840 857 q 704 802 751 802 q 590 834 657 802 q 549 852 562 848 q 522 856 536 856 q 480 843 498 856 q 446 798 462 829 l 384 848 q 454 938 416 911 q 540 964 492 964 q 587 960 565 964 q 656 942 609 956 q 736 924 715 924 q 766 930 751 924 q 804 958 781 937 z "},"å":{"ha":945,"x_min":117,"x_max":1013,"o":"m 731 618 l 774 677 l 930 677 l 826 222 q 816 163 816 176 q 825 143 816 151 q 847 135 833 135 q 885 146 861 135 q 935 182 908 158 l 1013 93 q 892 9 951 35 q 772 -16 833 -16 q 695 -1 730 -16 q 636 41 660 14 q 602 103 612 68 q 531 38 572 66 q 450 -3 489 9 q 363 -16 411 -16 q 235 18 290 -16 q 148 113 180 52 q 117 260 117 174 q 242 565 117 436 q 530 693 368 693 q 634 676 589 693 q 731 618 680 660 m 675 505 q 612 544 638 534 q 559 554 587 554 q 411 458 471 554 q 352 252 352 363 q 376 175 352 205 q 433 146 399 146 q 506 172 470 146 q 601 295 555 210 q 675 505 647 380 m 781 939 q 737 836 781 879 q 631 792 693 792 q 525 835 568 792 q 481 939 481 878 q 525 1043 481 1000 q 632 1087 570 1087 q 738 1044 694 1087 q 781 939 781 1000 m 562 941 q 581 891 562 911 q 627 871 600 871 q 673 891 654 871 q 692 941 692 911 q 673 988 692 968 q 627 1008 654 1008 q 581 988 600 1008 q 562 941 562 968 z "},"ç":{"ha":778,"x_min":113,"x_max":831,"o":"m 719 227 l 795 124 q 422 -16 612 -16 q 197 64 281 -16 q 113 271 113 144 q 174 476 113 378 q 341 633 235 574 q 570 693 448 693 q 760 636 690 693 q 831 505 831 580 q 801 421 831 452 q 722 390 771 390 q 669 404 692 390 q 630 441 645 417 q 614 482 623 452 q 597 527 606 515 q 574 547 589 539 q 543 554 559 554 q 468 523 506 554 q 384 409 418 483 q 349 263 349 334 q 385 170 349 205 q 479 134 421 134 q 590 158 526 134 q 719 227 654 181 m 378 0 l 442 0 l 421 -72 q 471 -63 452 -63 q 550 -92 520 -63 q 579 -167 579 -121 q 539 -254 579 -220 q 426 -288 498 -288 q 316 -263 354 -288 q 278 -207 278 -238 q 291 -173 278 -186 q 324 -160 304 -160 q 369 -189 351 -160 q 391 -212 380 -205 q 417 -218 402 -218 q 456 -203 441 -218 q 470 -163 470 -189 q 456 -123 470 -138 q 422 -109 443 -109 q 391 -119 410 -109 l 353 -85 l 378 0 z "},"é":{"ha":778,"x_min":113,"x_max":835,"o":"m 715 244 l 801 146 q 613 21 702 58 q 431 -16 525 -16 q 226 39 300 -16 q 113 272 113 126 q 174 476 113 381 q 352 632 235 572 q 600 693 468 693 q 773 644 711 693 q 835 524 835 594 q 813 439 835 475 q 733 357 785 390 q 576 303 681 325 q 353 280 471 281 l 353 263 q 389 171 353 207 q 483 135 425 135 q 587 161 531 135 q 715 244 663 196 m 378 399 q 543 424 485 406 q 625 468 601 441 q 643 512 643 488 q 626 549 643 534 q 580 564 608 564 q 506 544 546 564 q 434 490 466 525 q 378 399 403 456 m 472 831 q 614 1012 574 976 q 696 1048 655 1048 q 761 1024 736 1048 q 786 965 786 1000 q 766 908 786 936 q 690 850 745 881 l 529 770 l 472 831 z "},"è":{"ha":778,"x_min":113,"x_max":835,"o":"m 715 244 l 801 146 q 613 21 702 58 q 431 -16 525 -16 q 226 39 300 -16 q 113 272 113 126 q 174 476 113 381 q 352 632 235 572 q 600 693 468 693 q 773 644 711 693 q 835 524 835 594 q 813 439 835 475 q 733 357 785 390 q 576 303 681 325 q 353 280 471 281 l 353 263 q 389 171 353 207 q 483 135 425 135 q 587 161 531 135 q 715 244 663 196 m 378 399 q 543 424 485 406 q 625 468 601 441 q 643 512 643 488 q 626 549 643 534 q 580 564 608 564 q 506 544 546 564 q 434 490 466 525 q 378 399 403 456 m 673 831 l 615 770 l 463 846 q 380 907 401 879 q 359 964 359 935 q 385 1024 359 999 q 446 1048 410 1048 q 527 1017 488 1048 q 673 831 566 986 z "},"ê":{"ha":778,"x_min":113,"x_max":835,"o":"m 715 244 l 801 146 q 613 21 702 58 q 431 -16 525 -16 q 226 39 300 -16 q 113 272 113 126 q 174 476 113 381 q 352 632 235 572 q 600 693 468 693 q 773 644 711 693 q 835 524 835 594 q 813 439 835 475 q 733 357 785 390 q 576 303 681 325 q 353 280 471 281 l 353 263 q 389 171 353 207 q 483 135 425 135 q 587 161 531 135 q 715 244 663 196 m 378 399 q 543 424 485 406 q 625 468 601 441 q 643 512 643 488 q 626 549 643 534 q 580 564 608 564 q 506 544 546 564 q 434 490 466 525 q 378 399 403 456 m 812 861 l 758 769 l 559 843 l 361 769 l 307 861 l 559 1013 l 812 861 z "},"ë":{"ha":778,"x_min":113,"x_max":835,"o":"m 715 244 l 801 146 q 613 21 702 58 q 431 -16 525 -16 q 226 39 300 -16 q 113 272 113 126 q 174 476 113 381 q 352 632 235 572 q 600 693 468 693 q 773 644 711 693 q 835 524 835 594 q 813 439 835 475 q 733 357 785 390 q 576 303 681 325 q 353 280 471 281 l 353 263 q 389 171 353 207 q 483 135 425 135 q 587 161 531 135 q 715 244 663 196 m 378 399 q 543 424 485 406 q 625 468 601 441 q 643 512 643 488 q 626 549 643 534 q 580 564 608 564 q 506 544 546 564 q 434 490 466 525 q 378 399 403 456 m 490 933 q 446 837 490 877 q 356 797 401 797 q 292 822 317 797 q 267 888 267 848 q 308 980 267 939 q 399 1021 349 1021 q 465 996 439 1021 q 490 933 490 971 m 795 933 q 751 837 795 877 q 662 797 707 797 q 598 822 623 797 q 573 888 573 848 q 613 980 573 939 q 705 1021 654 1021 q 770 996 745 1021 q 795 933 795 971 z "},"í":{"ha":528,"x_min":152,"x_max":661,"o":"m 465 693 l 530 693 l 408 220 q 395 160 395 170 q 403 141 395 149 q 424 134 411 134 q 512 184 459 134 l 589 94 q 354 -16 478 -16 q 261 2 299 -16 q 200 57 223 21 q 177 127 177 93 q 182 169 177 139 q 196 240 189 213 l 264 503 l 152 503 l 182 633 q 465 693 340 651 m 347 831 q 490 1012 449 976 q 572 1048 530 1048 q 636 1024 611 1048 q 661 965 661 1000 q 641 908 661 936 q 566 850 621 881 l 404 770 l 347 831 z "},"ì":{"ha":528,"x_min":152,"x_max":589,"o":"m 465 693 l 530 693 l 408 220 q 395 160 395 170 q 403 141 395 149 q 424 134 411 134 q 512 184 459 134 l 589 94 q 354 -16 478 -16 q 261 2 299 -16 q 200 57 223 21 q 177 127 177 93 q 182 169 177 139 q 196 240 189 213 l 264 503 l 152 503 l 182 633 q 465 693 340 651 m 549 831 l 490 770 l 338 846 q 255 907 276 879 q 235 964 235 935 q 260 1024 235 999 q 321 1048 286 1048 q 402 1017 363 1048 q 549 831 441 986 z "},"î":{"ha":528,"x_min":152,"x_max":694,"o":"m 465 693 l 530 693 l 408 220 q 395 160 395 170 q 403 141 395 149 q 424 134 411 134 q 512 184 459 134 l 589 94 q 354 -16 478 -16 q 261 2 299 -16 q 200 57 223 21 q 177 127 177 93 q 182 169 177 139 q 196 240 189 213 l 264 503 l 152 503 l 182 633 q 465 693 340 651 m 694 861 l 640 769 l 441 843 l 243 769 l 189 861 l 441 1013 l 694 861 z "},"ï":{"ha":528,"x_min":152,"x_max":711,"o":"m 465 693 l 530 693 l 408 220 q 395 160 395 170 q 403 141 395 149 q 424 134 411 134 q 512 184 459 134 l 589 94 q 354 -16 478 -16 q 261 2 299 -16 q 200 57 223 21 q 177 127 177 93 q 182 169 177 139 q 196 240 189 213 l 264 503 l 152 503 l 182 633 q 465 693 340 651 m 406 933 q 361 837 406 877 q 272 797 317 797 q 208 822 233 797 q 183 888 183 848 q 224 980 183 939 q 315 1021 264 1021 q 380 996 355 1021 q 406 933 406 971 m 711 933 q 667 837 711 877 q 578 797 623 797 q 514 822 539 797 q 489 888 489 848 q 529 980 489 939 q 621 1021 570 1021 q 686 996 661 1021 q 711 933 711 971 z "},"ñ":{"ha":945,"x_min":139,"x_max":1023,"o":"m 139 0 l 253 505 l 147 505 l 176 634 q 437 693 302 641 l 500 693 l 471 562 q 553 639 515 612 q 632 680 591 666 q 716 693 673 693 q 848 645 797 693 q 899 530 899 597 q 897 495 899 512 q 886 447 896 487 l 838 231 q 827 171 827 182 q 836 149 827 157 q 858 141 844 141 q 946 189 898 141 l 1023 100 q 900 13 955 37 q 785 -12 844 -12 q 656 34 702 -12 q 610 134 610 80 q 626 231 610 165 l 672 439 q 680 488 680 472 q 667 517 680 506 q 632 529 654 529 q 585 517 606 529 q 506 438 548 496 q 436 310 463 381 q 376 100 408 239 l 353 0 l 139 0 m 804 958 l 867 907 q 795 829 840 857 q 704 802 751 802 q 590 834 657 802 q 549 852 562 848 q 522 856 536 856 q 480 843 498 856 q 446 798 462 829 l 384 848 q 454 938 416 911 q 540 964 492 964 q 587 960 565 964 q 656 942 609 956 q 736 924 715 924 q 766 930 751 924 q 804 958 781 937 z "},"ó":{"ha":833,"x_min":117,"x_max":873,"o":"m 545 693 q 779 615 685 693 q 873 404 873 536 q 816 193 873 293 q 663 39 758 94 q 448 -16 568 -16 q 206 67 296 -16 q 117 283 117 150 q 173 489 117 393 q 327 638 229 584 q 545 693 425 693 m 538 555 q 452 522 493 555 q 380 413 411 490 q 349 255 349 336 q 377 157 349 190 q 450 124 405 124 q 537 156 496 124 q 610 263 578 187 q 641 423 641 339 q 613 522 641 489 q 538 555 585 555 m 458 831 q 601 1012 560 976 q 683 1048 642 1048 q 747 1024 722 1048 q 772 965 772 1000 q 752 908 772 936 q 677 850 732 881 l 515 770 l 458 831 z "},"ò":{"ha":833,"x_min":117,"x_max":873,"o":"m 545 693 q 779 615 685 693 q 873 404 873 536 q 816 193 873 293 q 663 39 758 94 q 448 -16 568 -16 q 206 67 296 -16 q 117 283 117 150 q 173 489 117 393 q 327 638 229 584 q 545 693 425 693 m 538 555 q 452 522 493 555 q 380 413 411 490 q 349 255 349 336 q 377 157 349 190 q 450 124 405 124 q 537 156 496 124 q 610 263 578 187 q 641 423 641 339 q 613 522 641 489 q 538 555 585 555 m 661 831 l 602 770 l 450 846 q 367 907 388 879 q 347 964 347 935 q 372 1024 347 999 q 433 1048 397 1048 q 514 1017 475 1048 q 661 831 553 986 z "},"ô":{"ha":833,"x_min":117,"x_max":873,"o":"m 545 693 q 779 615 685 693 q 873 404 873 536 q 816 193 873 293 q 663 39 758 94 q 448 -16 568 -16 q 206 67 296 -16 q 117 283 117 150 q 173 489 117 393 q 327 638 229 584 q 545 693 425 693 m 538 555 q 452 522 493 555 q 380 413 411 490 q 349 255 349 336 q 377 157 349 190 q 450 124 405 124 q 537 156 496 124 q 610 263 578 187 q 641 423 641 339 q 613 522 641 489 q 538 555 585 555 m 826 861 l 772 769 l 574 843 l 375 769 l 321 861 l 574 1013 l 826 861 z "},"ö":{"ha":833,"x_min":117,"x_max":873,"o":"m 545 693 q 779 615 685 693 q 873 404 873 536 q 816 193 873 293 q 663 39 758 94 q 448 -16 568 -16 q 206 67 296 -16 q 117 283 117 150 q 173 489 117 393 q 327 638 229 584 q 545 693 425 693 m 538 555 q 452 522 493 555 q 380 413 411 490 q 349 255 349 336 q 377 157 349 190 q 450 124 405 124 q 537 156 496 124 q 610 263 578 187 q 641 423 641 339 q 613 522 641 489 q 538 555 585 555 m 531 933 q 487 837 531 877 q 397 797 443 797 q 334 822 359 797 q 309 888 309 848 q 349 980 309 939 q 441 1021 390 1021 q 506 996 481 1021 q 531 933 531 971 m 836 933 q 792 837 836 877 q 703 797 749 797 q 640 822 665 797 q 614 888 614 848 q 655 980 614 939 q 747 1021 695 1021 q 811 996 786 1021 q 836 933 836 971 z "},"õ":{"ha":833,"x_min":117,"x_max":873,"o":"m 545 693 q 779 615 685 693 q 873 404 873 536 q 816 193 873 293 q 663 39 758 94 q 448 -16 568 -16 q 206 67 296 -16 q 117 283 117 150 q 173 489 117 393 q 327 638 229 584 q 545 693 425 693 m 538 555 q 452 522 493 555 q 380 413 411 490 q 349 255 349 336 q 377 157 349 190 q 450 124 405 124 q 537 156 496 124 q 610 263 578 187 q 641 423 641 339 q 613 522 641 489 q 538 555 585 555 m 749 958 l 812 907 q 740 829 784 857 q 648 802 696 802 q 534 834 602 802 q 494 852 507 848 q 467 856 481 856 q 425 843 443 856 q 391 798 406 829 l 328 848 q 398 938 361 911 q 484 964 436 964 q 531 960 509 964 q 600 942 553 956 q 680 924 659 924 q 710 930 696 924 q 749 958 725 937 z "},"ú":{"ha":945,"x_min":134,"x_max":1008,"o":"m 925 677 l 819 206 q 812 166 812 175 q 821 144 812 153 q 842 135 829 135 q 876 145 857 135 q 930 183 907 161 l 1008 94 q 767 -16 891 -16 q 650 24 694 -16 q 595 119 613 56 q 488 23 553 62 q 343 -16 423 -16 q 214 30 262 -16 q 165 149 165 77 q 176 223 165 191 q 180 243 178 233 l 239 503 l 134 503 l 163 633 q 299 651 227 635 q 431 693 370 667 l 495 693 l 393 238 q 385 190 385 203 q 398 158 385 170 q 431 145 411 145 q 490 166 459 145 q 573 257 536 197 q 642 406 611 317 q 676 523 672 494 q 680 546 677 534 l 711 677 l 925 677 m 515 831 q 657 1012 616 976 q 739 1048 698 1048 q 804 1024 779 1048 q 829 965 829 1000 q 808 908 829 936 q 733 850 788 881 l 572 770 l 515 831 z "},"ù":{"ha":945,"x_min":134,"x_max":1008,"o":"m 925 677 l 819 206 q 812 166 812 175 q 821 144 812 153 q 842 135 829 135 q 876 145 857 135 q 930 183 907 161 l 1008 94 q 767 -16 891 -16 q 650 24 694 -16 q 595 119 613 56 q 488 23 553 62 q 343 -16 423 -16 q 214 30 262 -16 q 165 149 165 77 q 176 223 165 191 q 180 243 178 233 l 239 503 l 134 503 l 163 633 q 299 651 227 635 q 431 693 370 667 l 495 693 l 393 238 q 385 190 385 203 q 398 158 385 170 q 431 145 411 145 q 490 166 459 145 q 573 257 536 197 q 642 406 611 317 q 676 523 672 494 q 680 546 677 534 l 711 677 l 925 677 m 716 831 l 658 770 l 506 846 q 423 907 444 879 q 402 964 402 935 q 428 1024 402 999 q 489 1048 453 1048 q 570 1017 531 1048 q 716 831 608 986 z "},"û":{"ha":945,"x_min":134,"x_max":1008,"o":"m 925 677 l 819 206 q 812 166 812 175 q 821 144 812 153 q 842 135 829 135 q 876 145 857 135 q 930 183 907 161 l 1008 94 q 767 -16 891 -16 q 650 24 694 -16 q 595 119 613 56 q 488 23 553 62 q 343 -16 423 -16 q 214 30 262 -16 q 165 149 165 77 q 176 223 165 191 q 180 243 178 233 l 239 503 l 134 503 l 163 633 q 299 651 227 635 q 431 693 370 667 l 495 693 l 393 238 q 385 190 385 203 q 398 158 385 170 q 431 145 411 145 q 490 166 459 145 q 573 257 536 197 q 642 406 611 317 q 676 523 672 494 q 680 546 677 534 l 711 677 l 925 677 m 875 861 l 821 769 l 623 843 l 424 769 l 370 861 l 623 1013 l 875 861 z "},"ü":{"ha":945,"x_min":134,"x_max":1008,"o":"m 925 677 l 819 206 q 812 166 812 175 q 821 144 812 153 q 842 135 829 135 q 876 145 857 135 q 930 183 907 161 l 1008 94 q 767 -16 891 -16 q 650 24 694 -16 q 595 119 613 56 q 488 23 553 62 q 343 -16 423 -16 q 214 30 262 -16 q 165 149 165 77 q 176 223 165 191 q 180 243 178 233 l 239 503 l 134 503 l 163 633 q 299 651 227 635 q 431 693 370 667 l 495 693 l 393 238 q 385 190 385 203 q 398 158 385 170 q 431 145 411 145 q 490 166 459 145 q 573 257 536 197 q 642 406 611 317 q 676 523 672 494 q 680 546 677 534 l 711 677 l 925 677 m 573 933 q 529 837 573 877 q 439 797 485 797 q 376 822 401 797 q 351 888 351 848 q 391 980 351 939 q 483 1021 432 1021 q 548 996 523 1021 q 573 933 573 971 m 878 933 q 834 837 878 877 q 745 797 791 797 q 682 822 707 797 q 656 888 656 848 q 697 980 656 939 q 789 1021 737 1021 q 853 996 828 1021 q 878 933 878 971 z "},"†":{"ha":583,"x_min":165,"x_max":699,"o":"m 294 -196 l 193 -196 l 270 137 l 273 157 q 292 260 290 244 q 295 327 295 292 q 281 444 295 387 q 354 513 325 481 q 386 558 372 532 q 342 545 366 553 q 237 522 271 522 q 184 540 203 522 q 165 593 165 558 q 188 659 165 635 q 248 682 210 682 q 410 644 291 682 q 411 663 411 659 q 404 758 411 680 q 398 848 398 825 q 428 932 398 902 q 509 962 458 962 q 578 942 553 962 q 602 887 602 921 q 595 849 602 866 q 545 759 589 831 q 502 687 510 701 q 483 644 494 672 q 576 674 522 661 q 627 682 606 682 q 680 664 661 682 q 699 613 699 646 q 676 546 699 572 q 618 521 654 521 q 511 545 586 521 q 463 558 483 553 q 476 505 467 529 q 510 444 486 481 q 456 366 474 397 q 419 288 438 334 q 380 172 401 242 q 355 71 369 134 l 294 -196 z "},"°":{"ha":555,"x_min":291,"x_max":662,"o":"m 476 962 q 608 908 553 962 q 662 777 662 854 q 608 646 662 700 q 476 591 553 591 q 345 646 399 591 q 291 777 291 700 q 345 908 291 854 q 476 962 399 962 m 476 879 q 405 849 435 879 q 376 777 376 819 q 405 705 376 734 q 476 675 435 675 q 548 705 518 675 q 577 777 577 734 q 548 849 577 819 q 476 879 518 879 z "},"¢":{"ha":945,"x_min":248,"x_max":929,"o":"m 660 962 l 778 962 l 740 794 q 881 726 833 773 q 929 625 929 679 q 918 574 929 593 q 883 536 903 549 q 837 523 863 523 q 748 587 781 523 q 718 638 726 629 q 683 661 704 652 q 640 669 663 669 q 556 641 597 669 q 489 561 515 613 q 463 449 463 508 q 503 345 463 385 q 609 306 543 306 q 700 326 654 306 q 819 401 765 355 l 903 302 q 793 223 839 249 q 696 181 747 197 q 598 161 645 165 l 557 -16 l 437 -16 l 479 167 q 308 261 368 189 q 248 441 248 333 q 294 613 248 533 q 423 742 340 692 q 623 802 506 791 l 660 962 z "},"£":{"ha":945,"x_min":47,"x_max":1017,"o":"m 999 661 l 860 667 q 861 683 861 677 q 845 740 861 713 q 798 782 829 768 q 724 796 767 796 q 642 780 677 796 q 590 735 607 764 q 573 669 573 707 q 581 578 573 646 l 817 578 l 791 473 l 591 473 q 592 450 592 457 q 577 350 592 402 q 534 256 562 298 q 659 206 608 221 q 728 197 693 197 q 824 237 788 197 q 880 391 861 277 l 1017 368 q 951 135 992 216 q 855 19 911 55 q 729 -16 799 -16 q 655 -6 693 -16 q 573 26 616 3 q 452 106 542 43 q 346 12 398 39 q 233 -16 294 -16 q 100 34 153 -16 q 47 159 47 85 q 94 293 47 237 q 246 361 149 361 q 308 353 281 361 q 392 316 334 345 q 394 355 394 340 q 380 473 394 406 l 197 473 l 220 578 l 361 578 q 349 671 349 635 q 391 818 349 752 q 515 923 433 884 q 709 962 597 962 q 872 931 806 962 q 970 847 937 901 q 1004 717 1004 793 q 999 661 1004 694 m 361 182 q 300 228 338 208 q 251 240 278 240 q 198 220 220 240 q 177 173 177 199 q 197 124 177 143 q 251 105 217 105 q 312 126 281 105 q 361 182 342 146 z "},"§":{"ha":861,"x_min":54,"x_max":943,"o":"m 751 207 q 802 136 787 171 q 817 58 817 102 q 719 -132 817 -55 q 423 -218 609 -218 q 221 -185 304 -218 q 96 -99 138 -152 q 54 5 54 -45 q 84 79 54 50 q 160 109 114 109 q 211 98 188 109 q 248 67 233 86 q 278 12 254 59 q 350 -62 305 -43 q 448 -81 394 -81 q 533 -67 495 -81 q 589 -30 572 -52 q 606 16 606 -7 q 584 66 606 43 q 500 111 562 89 q 345 167 371 155 q 259 211 290 189 q 209 259 229 233 q 180 312 189 286 q 170 367 170 339 q 205 471 170 422 q 329 566 241 519 q 278 629 294 593 q 262 708 262 664 q 301 834 262 777 q 416 924 340 891 q 614 962 506 962 q 792 931 711 962 q 908 855 873 899 q 943 765 943 810 q 913 694 943 724 q 837 665 883 665 q 780 680 804 665 q 737 728 755 694 q 696 787 713 772 q 650 813 680 802 q 585 823 621 823 q 520 812 549 823 q 478 783 491 801 q 465 749 465 766 q 475 718 465 732 q 515 684 490 696 q 634 643 528 677 q 775 592 750 605 q 867 515 835 562 q 900 414 900 467 q 862 304 900 354 q 751 207 825 254 m 650 271 q 692 311 686 302 q 705 349 705 331 q 691 388 705 368 q 641 422 677 407 q 509 469 605 438 q 429 500 460 485 q 387 461 395 475 q 376 424 376 443 q 383 395 376 410 q 401 372 390 381 q 458 342 413 362 q 546 311 490 328 q 598 294 587 298 q 650 271 620 286 z "},"•":{"ha":500,"x_min":132,"x_max":590,"o":"m 361 713 q 523 646 456 713 q 590 484 590 578 q 523 322 590 389 q 361 254 456 254 q 199 321 266 254 q 132 484 132 389 q 199 646 132 578 q 361 713 266 713 z "},"¶":{"ha":945,"x_min":195,"x_max":970,"o":"m 652 844 l 652 -300 l 559 -300 l 559 291 q 391 318 456 296 q 285 381 327 341 q 219 481 243 420 q 195 612 195 541 q 220 747 195 693 q 300 846 245 802 q 418 905 354 891 q 648 920 481 920 l 970 920 l 970 865 l 941 865 q 880 853 901 865 q 849 816 859 840 q 842 728 842 800 l 842 -300 l 751 -300 l 751 844 l 652 844 z "},"ß":{"ha":917,"x_min":-157,"x_max":975,"o":"m 176 546 l 205 677 l 310 677 q 361 830 336 787 q 436 914 386 874 q 548 974 486 954 q 690 995 611 995 q 846 967 783 995 q 942 888 909 939 q 975 778 975 838 q 962 709 975 740 q 929 662 949 677 q 887 640 910 646 q 827 631 878 637 q 770 623 778 626 q 744 606 753 616 q 736 585 736 595 q 744 558 736 572 q 793 498 758 535 q 918 347 891 397 q 945 241 945 296 q 908 113 945 172 q 803 19 871 54 q 650 -16 734 -16 q 492 33 555 -16 q 430 138 430 81 q 443 188 430 165 q 478 224 456 211 q 527 237 501 237 q 560 230 543 237 q 595 210 578 223 q 621 178 602 204 q 652 140 641 148 q 692 125 672 125 q 738 143 719 125 q 757 189 757 162 q 739 244 757 214 q 644 352 721 274 q 562 457 585 411 q 545 538 545 489 q 571 632 545 589 q 642 702 597 676 q 774 741 686 728 q 777 760 776 751 q 777 775 777 768 q 753 833 777 811 q 685 854 728 854 q 615 837 648 854 q 564 788 583 819 q 525 684 539 747 l 381 47 q 345 -80 363 -33 q 272 -207 315 -159 q 164 -283 229 -256 q 27 -310 100 -310 q -107 -270 -56 -310 q -157 -179 -157 -230 q -144 -132 -157 -155 q -107 -97 -131 -110 q -59 -84 -84 -84 q -26 -90 -44 -84 q 7 -107 -9 -96 q 39 -140 15 -113 q 62 -166 58 -163 q 81 -171 70 -171 q 112 -159 99 -171 q 137 -115 128 -144 q 156 -44 152 -66 l 280 546 l 176 546 z "},"®":{"ha":1027,"x_min":33,"x_max":996,"o":"m 514 941 q 755 876 643 941 q 931 700 867 812 q 996 460 996 589 q 931 219 996 331 q 755 43 867 108 q 514 -21 643 -21 q 274 43 385 -21 q 98 219 162 108 q 33 460 33 331 q 98 700 33 589 q 274 876 162 812 q 514 941 385 941 m 514 880 q 304 824 401 880 q 150 670 206 768 q 94 460 94 572 q 150 250 94 347 q 304 96 206 152 q 514 39 401 39 q 724 96 627 39 q 878 250 822 152 q 935 460 935 347 q 878 670 935 572 q 724 824 822 768 q 514 880 627 880 m 257 739 l 503 739 q 647 723 604 739 q 717 670 691 707 q 743 591 743 634 q 706 496 743 536 q 622 450 677 465 l 715 281 q 753 229 733 247 q 786 214 766 218 l 786 191 l 622 191 l 483 440 l 452 440 l 452 306 q 458 246 452 261 q 479 223 465 231 q 533 214 494 215 l 533 191 l 246 191 l 246 214 q 298 225 285 214 q 317 306 317 243 l 317 626 q 306 696 317 681 q 257 716 294 712 l 257 739 m 452 475 q 490 471 475 471 q 566 505 535 471 q 597 593 597 538 q 568 680 597 650 q 477 709 538 709 l 452 709 l 452 475 z "},"©":{"ha":1083,"x_min":143,"x_max":1105,"o":"m 624 941 q 865 876 753 941 q 1041 700 977 812 q 1105 460 1105 589 q 1041 219 1105 331 q 865 43 977 108 q 624 -21 753 -21 q 384 43 495 -21 q 208 219 272 108 q 143 460 143 331 q 208 700 143 589 q 384 876 272 812 q 624 941 495 941 m 624 880 q 414 824 511 880 q 260 670 316 768 q 203 460 203 572 q 260 250 203 347 q 414 96 316 152 q 624 39 511 39 q 834 96 736 39 q 988 250 932 152 q 1044 460 1044 347 q 988 670 1044 572 q 834 824 932 768 q 624 880 736 880 m 851 750 l 851 571 l 825 571 q 767 679 812 640 q 659 718 721 718 q 532 656 581 718 q 484 471 484 595 q 503 326 484 376 q 565 246 523 275 q 655 217 608 217 q 719 228 686 217 q 777 256 751 238 q 832 311 802 274 l 832 263 q 752 205 795 224 q 616 177 690 177 q 468 213 534 177 q 366 311 401 249 q 331 453 331 372 q 416 667 331 583 q 629 751 500 751 q 690 745 661 751 q 763 724 719 740 q 794 715 785 715 q 825 750 821 715 l 851 750 z "},"™":{"ha":1305,"x_min":94,"x_max":1493,"o":"m 94 920 l 621 920 l 621 766 l 597 766 q 582 831 596 803 q 542 872 567 859 q 466 884 517 884 l 440 884 l 440 486 q 446 425 440 439 q 465 404 451 412 q 510 395 479 395 l 510 372 l 202 372 l 202 395 q 252 404 243 398 q 267 424 262 410 q 272 488 272 438 l 272 884 l 248 884 q 146 851 178 884 q 117 766 121 824 l 94 766 l 94 920 m 696 920 l 945 920 l 1102 584 l 1257 920 l 1493 920 l 1493 894 q 1448 887 1460 894 q 1429 863 1435 880 q 1424 803 1424 852 l 1424 483 q 1429 427 1424 439 q 1448 406 1434 414 q 1493 395 1462 397 l 1493 372 l 1180 372 l 1180 395 q 1232 403 1219 396 q 1251 425 1244 410 q 1257 483 1257 440 l 1257 826 l 1040 372 l 1024 372 l 808 826 l 808 486 q 814 425 808 437 q 834 404 819 412 q 886 395 850 396 l 886 372 l 696 372 l 696 395 q 747 404 735 397 q 765 425 759 411 q 770 487 770 439 l 770 804 q 764 867 770 851 q 741 890 757 882 q 696 894 730 894 l 696 920 z "},"´":{"ha":472,"x_min":319,"x_max":633,"o":"m 319 831 q 462 1012 421 976 q 544 1048 503 1048 q 608 1024 583 1048 q 633 965 633 1000 q 613 908 633 936 q 538 850 593 881 l 376 770 l 319 831 z "},"¨":{"ha":722,"x_min":253,"x_max":781,"o":"m 475 933 q 431 837 475 877 q 342 797 387 797 q 278 822 303 797 q 253 888 253 848 q 294 980 253 939 q 385 1021 334 1021 q 450 996 425 1021 q 475 933 475 971 m 781 933 q 737 837 781 877 q 648 797 693 797 q 584 822 609 797 q 559 888 559 848 q 599 980 559 939 q 691 1021 640 1021 q 755 996 730 1021 q 781 933 781 971 z "},"≠":{"ha":762,"x_min":155,"x_max":827,"o":"m 673 666 l 827 666 l 827 538 l 593 538 l 511 408 l 827 408 l 827 279 l 430 279 l 301 75 l 181 75 l 310 279 l 155 279 l 155 408 l 390 408 l 472 538 l 155 538 l 155 666 l 552 666 l 681 871 l 802 871 l 673 666 z "},"Æ":{"ha":1584,"x_min":3,"x_max":1686,"o":"m 455 946 l 1598 946 l 1686 661 l 1561 621 q 1464 758 1532 711 q 1290 796 1411 796 l 1142 796 l 1087 554 l 1119 554 q 1214 566 1185 554 q 1258 608 1242 578 q 1284 693 1269 627 l 1409 693 l 1318 290 l 1192 290 q 1204 366 1204 350 q 1185 413 1204 398 q 1105 428 1165 428 l 1059 428 l 1010 208 q 1004 187 1008 203 q 1001 169 1001 177 q 1009 153 1001 160 q 1030 146 1017 146 l 1048 147 l 1142 147 q 1321 172 1253 147 q 1443 250 1388 196 q 1537 391 1498 304 l 1657 338 l 1490 0 l 618 0 l 648 131 l 672 131 q 733 137 715 131 q 762 158 751 144 q 780 208 772 173 l 819 376 l 469 376 l 365 208 q 345 159 345 177 q 359 139 345 146 q 414 131 373 131 l 446 131 l 414 0 l 3 0 l 35 131 q 101 143 79 131 q 146 191 124 155 l 157 208 l 513 741 l 519 755 l 524 762 q 533 786 533 778 q 522 807 533 799 q 483 815 511 815 l 426 815 l 455 946 m 847 508 l 913 796 l 728 796 l 550 508 l 847 508 z "},"Ø":{"ha":1055,"x_min":31,"x_max":1239,"o":"m 1016 833 l 1179 962 l 1239 888 l 1074 758 q 1134 532 1134 660 q 1060 256 1134 385 q 860 56 987 127 q 580 -16 734 -16 q 256 113 380 -16 l 93 -16 l 31 50 l 201 184 q 139 416 139 283 q 213 689 139 559 q 413 890 287 818 q 688 962 538 962 q 872 929 788 962 q 1016 833 956 895 m 852 703 q 684 818 802 818 q 550 771 612 818 q 441 615 488 725 q 394 388 394 505 q 396 340 394 363 l 852 703 m 876 602 l 420 242 q 589 130 467 130 q 695 155 646 130 q 774 226 743 180 q 849 391 821 294 q 876 581 876 487 q 876 602 876 590 z "},"∞":{"ha":990,"x_min":36,"x_max":954,"o":"m 443 452 q 509 568 477 532 q 586 622 541 604 q 694 640 631 640 q 827 604 768 640 q 920 505 886 568 q 954 357 954 441 q 863 136 954 219 q 717 73 795 73 q 593 121 650 73 q 488 267 554 154 q 425 173 456 205 q 354 125 393 141 q 269 109 315 109 q 103 179 170 109 q 36 359 36 249 q 98 538 36 469 q 244 608 159 608 q 355 571 308 608 q 443 452 395 541 m 508 315 q 607 174 557 212 q 720 136 656 136 q 863 201 811 136 q 915 357 915 266 q 857 522 915 456 q 724 587 798 587 q 647 567 680 587 q 585 500 614 547 q 508 315 566 467 m 423 400 q 343 513 387 481 q 242 545 299 545 q 122 494 170 545 q 73 359 73 444 q 120 216 73 271 q 229 161 168 161 q 336 212 288 161 q 416 377 374 251 l 423 400 z "},"±":{"ha":762,"x_min":155,"x_max":827,"o":"m 827 500 l 559 500 l 559 232 l 423 232 l 423 500 l 155 500 l 155 628 l 423 628 l 423 896 l 559 896 l 559 628 l 827 628 l 827 500 m 827 50 l 155 50 l 155 178 l 827 178 l 827 50 z "},"≤":{"ha":762,"x_min":155,"x_max":827,"o":"m 827 309 l 827 178 l 155 494 l 155 609 l 827 925 l 827 794 l 323 551 l 827 309 m 827 0 l 155 0 l 155 127 l 827 127 l 827 0 z "},"≥":{"ha":762,"x_min":155,"x_max":827,"o":"m 155 794 l 155 925 l 827 609 l 827 494 l 155 178 l 155 309 l 660 551 l 155 794 m 827 0 l 155 0 l 155 127 l 827 127 l 827 0 z "},"¥":{"ha":945,"x_min":149,"x_max":1139,"o":"m 798 519 l 991 519 l 969 420 l 720 420 l 688 381 l 675 323 l 946 323 l 924 224 l 652 224 q 642 169 642 176 q 659 138 642 148 q 707 131 670 131 l 745 131 l 714 0 l 257 0 l 287 131 l 314 131 q 377 138 360 131 q 403 158 394 144 q 423 224 412 172 l 149 224 l 172 323 l 445 323 l 456 376 l 438 420 l 195 420 l 217 519 l 397 519 l 306 734 q 277 789 288 776 q 249 808 267 802 q 197 815 231 815 l 228 946 l 670 946 l 642 815 l 595 815 q 552 809 562 815 q 535 778 535 798 q 543 743 535 764 l 624 519 l 775 727 q 800 766 795 755 q 805 785 805 777 q 793 807 805 799 q 745 815 781 815 l 714 815 l 745 946 l 1139 946 l 1109 815 q 1057 810 1074 815 q 1023 791 1040 804 q 982 749 1006 779 l 798 519 z "},"µ":{"ha":800,"x_min":22,"x_max":852,"o":"m 268 677 l 467 677 l 379 273 q 366 186 366 212 q 386 135 366 155 q 437 115 406 115 q 471 120 454 115 q 538 153 487 125 l 652 677 l 852 677 l 755 229 q 743 154 743 169 q 751 119 743 130 q 777 109 760 109 q 824 122 795 109 l 815 79 q 673 3 722 23 q 616 -11 640 -11 q 582 0 598 -11 q 555 34 566 12 q 539 94 543 57 q 425 7 476 35 q 323 -20 374 -20 q 268 -9 292 -20 q 228 21 243 1 q 199 79 212 40 q 192 30 192 49 q 197 -26 192 7 q 208 -119 208 -96 q 175 -217 208 -180 q 92 -254 141 -254 q 40 -234 59 -254 q 22 -180 22 -215 q 47 -93 22 -151 q 119 77 100 26 q 155 188 138 127 q 198 355 182 285 l 268 677 z "},"∂":{"ha":686,"x_min":54,"x_max":659,"o":"m 252 780 l 223 780 q 307 914 254 865 q 459 972 369 972 q 567 944 522 972 q 635 862 612 915 q 659 706 659 808 q 596 310 659 475 q 446 56 534 144 q 268 -16 375 -16 q 156 10 203 -16 q 81 87 109 36 q 54 199 54 138 q 114 406 54 300 q 275 576 175 511 q 452 633 363 633 q 612 532 563 633 q 617 618 617 587 q 590 736 617 686 q 519 812 563 787 q 405 837 475 837 q 316 824 351 837 q 252 780 282 810 m 601 469 q 541 568 578 538 q 456 599 503 599 q 366 560 410 599 q 273 399 310 509 q 227 144 227 266 q 247 55 227 79 q 308 30 267 30 q 395 62 354 30 q 517 221 460 112 q 601 469 574 331 z "},"∑":{"ha":990,"x_min":29,"x_max":963,"o":"m 920 -300 l 29 -300 l 29 -275 l 483 336 l 29 938 l 29 963 l 896 963 l 914 734 l 887 734 q 868 816 882 783 q 835 868 854 849 q 788 898 816 887 q 718 908 760 908 l 216 908 l 597 395 l 171 -180 l 726 -180 q 819 -165 770 -180 q 893 -117 867 -150 q 936 -13 919 -83 l 963 -18 l 920 -300 z "},"∏":{"ha":1143,"x_min":31,"x_max":1112,"o":"m 841 910 l 302 910 l 302 -169 q 315 -233 302 -207 q 342 -260 324 -252 q 412 -274 374 -274 l 436 -274 l 436 -300 l 31 -300 l 31 -274 l 55 -274 q 123 -261 94 -274 q 151 -235 143 -252 q 165 -169 165 -206 l 165 833 q 152 897 165 871 q 125 923 142 916 q 55 938 93 938 l 31 938 l 31 963 l 1112 963 l 1112 938 l 1088 938 q 1021 924 1049 938 q 992 899 1000 915 q 979 833 979 869 l 979 -169 q 991 -233 979 -207 q 1018 -260 1001 -252 q 1088 -274 1050 -274 l 1112 -274 l 1112 -300 l 707 -300 l 707 -274 l 731 -274 q 799 -261 770 -274 q 827 -235 819 -252 q 841 -169 841 -206 l 841 910 z "},"":{"ha":762,"x_min":32,"x_max":763,"o":"m 763 610 l 717 461 l 607 461 l 537 232 q 523 160 523 185 q 539 109 523 125 q 587 92 555 92 q 645 109 620 92 q 679 154 670 126 l 706 154 q 671 62 697 101 q 602 2 644 24 q 514 -19 559 -19 q 428 15 466 -19 q 390 124 390 49 q 405 212 390 170 q 412 232 410 227 l 481 461 l 361 461 l 275 175 q 207 26 243 72 q 121 -19 170 -19 q 66 0 87 -19 q 45 47 45 20 q 56 87 45 65 q 93 137 64 103 q 127 180 120 170 q 156 233 142 203 q 178 283 171 262 q 210 374 203 353 l 235 461 l 201 461 q 105 443 133 461 q 67 385 77 425 l 32 385 q 74 524 43 475 q 155 591 105 573 q 292 610 205 610 l 763 610 z "},"∫":{"ha":380,"x_min":0,"x_max":380,"o":"m 136 607 q 143 898 136 732 q 157 1078 149 1024 q 192 1197 169 1149 q 236 1244 205 1225 q 295 1263 267 1263 q 354 1241 328 1263 q 380 1191 380 1219 q 362 1140 380 1160 q 317 1120 344 1120 q 266 1145 294 1120 q 239 1158 250 1158 q 219 1148 227 1158 q 212 1115 212 1139 q 218 1017 212 1087 q 243 567 243 738 q 238 355 243 519 l 231 130 q 210 -10 225 50 q 175 -97 195 -69 q 132 -137 155 -125 q 80 -149 108 -149 q 22 -126 45 -149 q 0 -67 0 -103 q 17 -19 0 -37 q 61 0 35 0 q 109 -22 88 0 q 127 -40 122 -37 q 141 -43 133 -43 q 160 -34 153 -43 q 168 -2 168 -24 q 161 79 168 26 q 143 316 151 166 q 136 607 136 466 z "},"ª":{"ha":611,"x_min":152,"x_max":751,"o":"m 557 921 l 582 952 l 698 952 l 629 673 q 623 637 623 647 q 635 627 623 627 q 692 660 654 627 l 751 597 q 667 543 707 559 q 584 528 628 528 q 541 534 553 528 q 494 560 507 551 q 472 590 481 569 q 405 546 447 564 q 321 528 363 528 q 199 575 246 528 q 152 699 152 622 q 188 830 152 770 q 288 926 224 890 q 429 962 353 962 q 497 953 467 962 q 557 921 527 943 m 515 844 q 448 870 477 870 q 365 823 401 870 q 321 693 321 768 q 334 650 321 667 q 366 634 347 634 q 437 677 401 634 q 515 844 489 740 z "},"º":{"ha":611,"x_min":189,"x_max":697,"o":"m 475 962 q 637 911 576 962 q 697 784 697 860 q 660 657 697 718 q 558 562 622 597 q 412 528 494 528 q 248 579 308 528 q 189 711 189 631 q 263 882 189 809 q 475 962 346 962 m 471 870 q 388 813 420 870 q 355 694 355 757 q 371 639 355 658 q 413 621 387 621 q 488 663 457 621 q 530 795 530 720 q 514 852 530 833 q 471 870 498 870 z "},"Ω":{"ha":1067,"x_min":37,"x_max":1031,"o":"m 886 0 l 529 0 l 621 258 q 702 330 668 281 q 785 510 747 393 q 823 712 823 627 q 777 849 823 808 q 662 891 730 891 q 556 862 608 891 q 467 779 504 833 q 382 598 415 705 q 350 406 350 490 q 363 330 350 367 q 395 275 376 294 q 450 244 414 256 l 399 0 l 37 0 l 115 267 l 139 267 q 132 228 132 245 q 142 193 132 208 q 167 171 151 178 q 217 165 183 164 l 389 165 l 399 207 q 256 262 309 224 q 172 361 203 300 q 141 494 141 422 q 207 712 141 609 q 395 878 273 814 q 662 941 517 941 q 931 849 831 941 q 1031 621 1031 758 q 984 443 1031 531 q 850 293 936 355 q 650 207 765 231 l 635 165 l 806 165 q 886 182 859 165 q 940 267 923 205 l 964 267 l 886 0 z "},"æ":{"ha":1222,"x_min":101,"x_max":1264,"o":"m 1150 228 l 1228 125 q 854 -16 1044 -16 q 709 13 770 -16 q 604 100 648 42 q 455 13 532 43 q 307 -16 378 -16 q 157 34 213 -16 q 101 160 101 85 q 142 275 101 224 q 279 359 183 327 q 593 408 375 391 l 604 446 q 610 491 610 467 q 585 540 610 520 q 513 560 560 560 q 441 543 468 560 q 382 472 413 525 q 340 422 362 435 q 291 408 319 408 q 225 433 250 408 q 200 500 200 458 q 279 626 200 571 q 523 693 374 693 q 667 671 604 693 q 770 611 715 654 q 1029 693 895 693 q 1203 643 1143 693 q 1264 519 1264 593 q 1221 402 1264 456 q 1081 314 1179 349 q 787 270 1000 285 q 802 196 787 224 q 845 151 817 168 q 913 135 874 135 q 1022 158 961 135 q 1150 228 1084 180 m 807 390 q 1027 438 951 396 q 1076 509 1076 465 q 1059 548 1076 532 q 1015 564 1042 564 q 900 518 959 564 q 807 390 840 472 m 570 298 q 398 267 463 285 q 331 232 349 252 q 314 187 314 212 q 334 146 314 163 q 388 129 354 129 q 462 145 416 129 q 543 184 509 161 l 570 298 z "},"ø":{"ha":833,"x_min":55,"x_max":931,"o":"m 777 616 l 875 693 l 931 623 l 836 549 q 873 404 873 484 q 816 193 873 293 q 663 39 758 94 q 448 -16 568 -16 q 306 7 370 -16 q 212 62 258 24 l 112 -16 l 55 54 l 154 131 q 117 283 117 195 q 173 488 117 393 q 327 638 229 584 q 542 693 424 693 q 777 616 687 693 m 627 500 q 538 555 600 555 q 456 526 496 555 q 386 430 417 497 q 349 283 355 362 l 627 500 m 640 396 l 362 179 q 398 139 374 153 q 450 124 421 124 q 533 152 494 124 q 604 249 572 180 q 640 396 635 317 z "},"¿":{"ha":861,"x_min":60,"x_max":791,"o":"m 649 410 q 590 424 617 410 q 549 465 564 439 q 535 523 535 491 q 573 617 535 576 q 671 659 610 659 q 753 628 722 659 q 784 546 784 597 q 766 479 784 511 q 715 428 747 447 q 649 410 682 410 m 690 355 l 633 96 q 576 98 593 98 q 419 89 483 98 q 329 66 355 81 q 288 25 303 51 q 273 -29 273 0 q 323 -129 273 -86 q 456 -177 380 -177 q 517 -164 488 -177 q 571 -127 546 -152 q 605 -83 584 -115 q 629 -51 623 -56 q 658 -35 642 -41 q 692 -28 675 -28 q 763 -56 734 -28 q 791 -123 791 -84 q 755 -214 791 -168 q 636 -290 718 -259 q 451 -320 554 -320 q 244 -277 336 -320 q 106 -165 153 -235 q 60 -19 60 -96 q 108 130 60 60 q 240 236 155 199 q 476 273 326 273 q 530 271 492 273 l 549 355 l 690 355 z "},"¡":{"ha":444,"x_min":62,"x_max":477,"o":"m 342 410 q 284 425 311 410 q 242 467 257 439 q 228 524 228 494 q 247 591 228 558 q 297 641 265 623 q 366 659 329 659 q 446 627 415 659 q 477 546 477 596 q 459 479 477 509 q 408 430 441 449 q 342 410 374 410 m 248 354 l 378 354 q 346 125 353 210 l 325 -126 q 307 -230 318 -203 q 275 -278 295 -258 q 229 -309 254 -298 q 176 -320 204 -320 q 94 -289 127 -320 q 62 -210 62 -257 q 68 -159 62 -184 q 105 -66 75 -134 q 184 143 141 17 q 248 354 206 204 z "},"¬":{"ha":861,"x_min":177,"x_max":849,"o":"m 849 269 l 722 269 l 722 514 l 177 514 l 177 642 l 849 642 l 849 269 z "},"√":{"ha":762,"x_min":57,"x_max":762,"o":"m 712 1267 l 762 1267 l 551 -53 l 214 640 l 80 578 l 57 621 l 261 724 l 536 165 l 712 1267 z "},"ƒ":{"ha":945,"x_min":32,"x_max":1048,"o":"m 712 677 l 837 677 l 812 571 l 687 571 l 557 -8 q 487 -177 536 -108 q 375 -278 439 -246 q 226 -310 312 -310 q 92 -276 142 -310 q 32 -182 32 -236 q 60 -113 32 -141 q 129 -85 87 -85 q 164 -91 146 -85 q 196 -109 181 -97 q 232 -148 205 -116 q 252 -166 243 -161 q 274 -171 261 -171 q 339 -74 320 -171 l 473 571 l 368 571 l 393 677 l 498 677 l 513 747 q 625 930 539 865 q 852 995 711 995 q 963 978 922 995 q 1026 930 1003 962 q 1048 866 1048 899 q 1035 815 1048 840 q 1000 780 1022 791 q 949 768 977 768 q 901 778 924 768 q 858 814 879 789 q 823 848 833 842 q 799 855 812 855 q 755 830 774 855 q 730 756 744 814 l 712 677 z "},"≈":{"ha":762,"x_min":144,"x_max":839,"o":"m 764 748 l 839 663 q 767 563 796 593 q 707 519 738 533 q 642 505 675 505 q 593 512 618 505 q 486 553 568 519 q 381 595 397 591 q 348 600 366 600 q 287 577 315 600 q 220 481 260 555 l 144 567 q 215 671 185 639 q 278 719 245 703 q 344 734 311 734 q 402 726 373 734 q 515 684 444 715 q 608 646 589 652 q 641 640 627 640 q 697 661 670 640 q 764 748 724 682 m 764 454 l 839 369 q 767 269 796 299 q 707 225 738 239 q 642 211 675 211 q 593 218 618 211 q 486 259 568 224 q 381 301 397 296 q 348 305 366 305 q 287 282 315 305 q 220 186 260 260 l 144 273 q 215 377 185 345 q 278 425 245 409 q 344 440 311 440 q 402 432 373 440 q 515 389 444 420 q 608 351 589 357 q 641 346 627 346 q 697 367 670 346 q 764 454 724 387 z "},"∆":{"ha":850,"x_min":18,"x_max":831,"o":"m 831 0 l 18 0 l 444 941 l 831 0 m 671 56 l 401 711 l 102 56 l 671 56 z "},"«":{"ha":528,"x_min":121,"x_max":614,"o":"m 314 597 l 391 546 l 264 339 l 276 105 l 189 90 l 121 372 l 314 597 m 537 597 l 614 546 l 487 339 l 498 105 l 412 90 l 345 372 l 537 597 z "},"»":{"ha":528,"x_min":81,"x_max":573,"o":"m 380 90 l 304 142 l 430 348 l 418 583 l 505 597 l 573 315 l 380 90 m 157 90 l 81 142 l 208 348 l 196 583 l 283 597 l 350 315 l 157 90 z "},"…":{"ha":1389,"x_min":123,"x_max":1297,"o":"m 725 241 q 783 225 756 241 q 824 184 810 210 q 838 125 838 159 q 820 55 838 87 q 767 3 802 23 q 699 -16 731 -16 q 639 -1 669 -16 q 595 40 609 15 q 582 99 582 66 q 601 170 582 138 q 653 222 619 203 q 725 241 688 241 m 1183 241 q 1241 225 1214 241 q 1283 184 1269 210 q 1297 125 1297 159 q 1279 55 1297 87 q 1225 3 1261 23 q 1157 -16 1190 -16 q 1097 -1 1127 -16 q 1054 40 1067 15 q 1040 99 1040 66 q 1059 170 1040 138 q 1112 222 1078 203 q 1183 241 1146 241 m 261 238 q 321 222 292 238 q 366 179 350 207 q 381 121 381 152 q 362 53 381 87 q 311 1 342 19 q 240 -16 279 -16 q 155 15 187 -16 q 123 98 123 46 q 141 167 123 135 q 193 219 159 199 q 261 238 227 238 z "}," ":{"ha":472,"x_min":0,"x_max":0,"o":""},"À":{"ha":1000,"x_min":1,"x_max":1031,"o":"m 609 946 l 821 946 l 944 210 q 958 153 951 164 q 977 137 964 142 q 1031 131 990 131 l 999 0 l 566 0 l 597 131 l 635 131 q 688 139 675 131 q 712 180 712 153 q 706 237 712 193 l 696 313 l 402 313 l 340 204 q 321 157 321 170 q 336 136 321 143 q 384 131 345 131 l 420 131 l 390 0 l 1 0 l 32 131 q 84 137 66 130 q 115 156 102 143 q 158 217 128 169 l 609 946 m 680 438 l 641 726 l 480 438 l 680 438 m 826 1052 l 768 991 l 616 1067 q 533 1128 553 1100 q 512 1185 512 1156 q 537 1245 512 1220 q 599 1270 563 1270 q 680 1238 641 1270 q 826 1052 718 1207 z "},"Ã":{"ha":1000,"x_min":1,"x_max":1031,"o":"m 609 946 l 821 946 l 944 210 q 958 153 951 164 q 977 137 964 142 q 1031 131 990 131 l 999 0 l 566 0 l 597 131 l 635 131 q 688 139 675 131 q 712 180 712 153 q 706 237 712 193 l 696 313 l 402 313 l 340 204 q 321 157 321 170 q 336 136 321 143 q 384 131 345 131 l 420 131 l 390 0 l 1 0 l 32 131 q 84 137 66 130 q 115 156 102 143 q 158 217 128 169 l 609 946 m 680 438 l 641 726 l 480 438 l 680 438 m 914 1179 l 977 1128 q 905 1050 949 1078 q 814 1023 861 1023 q 700 1055 767 1023 q 659 1073 672 1069 q 632 1077 646 1077 q 590 1064 608 1077 q 556 1019 572 1050 l 494 1069 q 564 1159 526 1133 q 650 1185 602 1185 q 697 1181 675 1185 q 766 1163 719 1177 q 846 1145 825 1145 q 876 1152 861 1145 q 914 1179 890 1158 z "},"Õ":{"ha":1055,"x_min":139,"x_max":1134,"o":"m 697 962 q 921 905 819 962 q 1078 752 1022 848 q 1134 533 1134 655 q 1060 256 1134 385 q 860 56 987 127 q 581 -16 734 -16 q 239 132 363 -16 q 139 415 139 250 q 214 690 139 560 q 414 891 288 819 q 697 962 540 962 m 687 818 q 550 772 612 818 q 441 615 488 726 q 394 383 394 505 q 420 242 394 302 q 487 156 446 182 q 589 130 528 130 q 725 174 666 130 q 830 334 783 218 q 876 578 876 451 q 850 706 876 649 q 782 791 824 764 q 687 818 741 818 m 901 1179 l 964 1128 q 892 1050 936 1078 q 800 1023 848 1023 q 686 1055 753 1023 q 646 1073 659 1069 q 618 1077 633 1077 q 576 1064 595 1077 q 543 1019 558 1050 l 480 1069 q 550 1159 513 1133 q 636 1185 588 1185 q 683 1181 661 1185 q 752 1163 705 1177 q 832 1145 811 1145 q 862 1152 848 1145 q 901 1179 877 1158 z "},"Œ":{"ha":1639,"x_min":149,"x_max":1734,"o":"m 985 946 l 1645 946 l 1734 661 l 1610 621 q 1518 753 1578 709 q 1363 797 1457 797 l 1335 796 l 1181 796 l 1126 555 l 1181 555 q 1260 566 1232 555 q 1302 602 1289 578 q 1331 693 1316 625 l 1457 693 l 1365 291 l 1240 291 q 1253 368 1253 347 q 1233 412 1253 397 q 1162 427 1213 427 l 1097 427 l 1046 205 q 1040 168 1040 179 q 1048 152 1040 157 q 1086 148 1055 148 l 1190 148 q 1365 171 1299 148 q 1482 241 1432 194 q 1586 391 1532 288 l 1705 339 l 1539 0 l 787 0 l 800 71 q 723 20 758 37 q 642 -6 688 3 q 551 -16 597 -16 q 347 38 438 -16 q 202 192 255 92 q 149 415 149 292 q 222 688 149 560 q 419 889 296 816 q 690 962 543 962 q 857 934 781 962 q 967 864 912 913 l 985 946 m 693 817 q 561 768 626 817 q 449 612 495 718 q 404 385 404 506 q 460 189 404 258 q 594 128 508 128 q 729 175 667 128 q 837 332 791 222 q 882 569 882 441 q 827 758 882 689 q 693 817 777 817 z "},"œ":{"ha":1278,"x_min":119,"x_max":1332,"o":"m 1217 226 l 1292 123 q 1176 48 1242 81 q 1047 0 1109 16 q 924 -16 985 -16 q 793 8 851 -16 q 694 80 736 33 q 597 15 647 37 q 439 -16 525 -16 q 207 67 295 -16 q 119 280 119 151 q 176 489 119 392 q 327 640 232 586 q 545 693 422 693 q 650 681 602 693 q 730 648 697 669 q 800 586 763 628 q 1097 693 925 693 q 1271 642 1209 693 q 1332 517 1332 591 q 1309 429 1332 471 q 1235 353 1286 387 q 1091 299 1183 319 q 853 271 998 278 q 852 257 852 262 q 886 169 852 203 q 973 134 920 134 q 1217 226 1076 134 m 872 389 q 1043 415 988 398 q 1122 460 1097 433 q 1140 507 1140 481 q 1124 548 1140 533 q 1077 564 1107 564 q 1005 542 1046 564 q 929 483 963 521 q 872 389 895 444 m 542 555 q 457 523 498 555 q 383 411 416 490 q 351 248 351 332 q 379 157 351 191 q 450 123 408 123 q 537 155 496 123 q 611 268 578 186 q 644 431 644 350 q 614 521 644 487 q 542 555 585 555 z "},"–":{"ha":694,"x_min":57,"x_max":802,"o":"m 802 444 l 768 294 l 57 294 l 92 444 l 802 444 z "},"—":{"ha":1389,"x_min":57,"x_max":1497,"o":"m 1497 444 l 1462 294 l 57 294 l 92 444 l 1497 444 z "},"“":{"ha":722,"x_min":183,"x_max":884,"o":"m 498 995 l 539 906 q 429 849 475 880 q 359 787 383 818 q 326 725 340 766 q 355 738 341 734 q 380 742 368 742 q 446 710 416 742 q 475 633 475 678 q 435 542 475 580 q 339 505 396 505 q 261 526 298 505 q 204 587 224 548 q 183 674 183 627 q 217 792 183 730 q 316 904 252 854 q 498 995 381 954 m 842 995 l 884 906 q 773 849 819 880 q 703 787 728 818 q 671 725 685 766 q 699 738 686 734 q 724 742 712 742 q 790 710 761 742 q 819 633 819 678 q 779 542 819 580 q 683 505 740 505 q 605 526 642 505 q 548 587 569 548 q 527 674 527 627 q 561 792 527 730 q 661 904 595 854 q 842 995 726 954 z "},"”":{"ha":722,"x_min":151,"x_max":851,"o":"m 536 505 l 494 593 q 605 651 559 620 q 675 712 650 682 q 708 774 693 734 q 680 762 693 766 q 654 758 666 758 q 589 789 618 758 q 559 866 559 821 q 599 957 559 920 q 695 995 638 995 q 773 973 736 995 q 830 912 809 951 q 851 825 851 873 q 817 707 851 769 q 718 595 783 645 q 536 505 652 545 m 193 505 l 151 593 q 261 651 215 620 q 332 712 307 682 q 363 774 349 734 q 335 762 349 766 q 311 758 322 758 q 244 789 273 758 q 216 866 216 821 q 255 957 216 920 q 351 995 294 995 q 429 973 393 995 q 486 912 465 951 q 507 825 507 873 q 472 707 507 769 q 373 595 438 645 q 193 505 309 545 z "},"‘":{"ha":444,"x_min":216,"x_max":572,"o":"m 531 995 l 572 906 q 462 849 508 880 q 392 787 416 818 q 359 725 374 766 q 388 738 374 734 q 413 742 401 742 q 479 710 450 742 q 508 633 508 678 q 469 542 508 580 q 372 505 429 505 q 294 526 331 505 q 237 587 258 548 q 216 674 216 627 q 251 792 216 730 q 350 904 285 854 q 531 995 414 954 z "},"’":{"ha":444,"x_min":183,"x_max":539,"o":"m 225 505 l 183 593 q 293 651 248 620 q 364 712 339 682 q 396 774 382 734 q 368 762 381 766 q 343 758 355 758 q 277 789 306 758 q 248 866 248 821 q 287 957 248 920 q 384 995 326 995 q 461 973 425 995 q 518 912 498 951 q 539 825 539 873 q 505 707 539 769 q 406 595 471 645 q 225 505 341 545 z "},"÷":{"ha":762,"x_min":155,"x_max":827,"o":"m 492 791 q 556 765 530 791 q 583 701 583 739 q 555 636 583 663 q 491 610 528 610 q 427 636 454 610 q 400 701 400 663 q 427 765 400 739 q 492 791 454 791 m 827 409 l 155 409 l 155 536 l 827 536 l 827 409 m 492 336 q 556 310 530 336 q 583 246 583 283 q 555 181 583 208 q 491 154 528 154 q 427 181 454 154 q 400 245 400 208 q 427 310 400 283 q 492 336 454 336 z "},"◊":{"ha":686,"x_min":32,"x_max":656,"o":"m 372 964 l 656 481 l 372 0 l 297 0 l 32 481 l 297 964 l 372 964 m 336 899 l 105 481 l 336 64 l 579 481 l 336 899 z "},"ÿ":{"ha":833,"x_min":32,"x_max":915,"o":"m 237 505 l 130 505 l 161 635 q 426 693 291 644 l 494 693 l 394 252 q 383 186 383 203 q 396 157 383 168 q 433 146 409 146 q 498 173 463 146 q 593 297 551 214 q 663 505 636 380 l 701 677 l 915 677 l 775 57 q 620 -214 733 -126 q 301 -310 494 -310 q 99 -264 166 -310 q 32 -157 32 -218 q 62 -87 32 -117 q 134 -58 92 -58 q 183 -71 159 -58 q 230 -116 200 -80 q 281 -161 257 -149 q 338 -173 306 -173 q 416 -156 376 -173 q 487 -106 455 -138 q 541 -27 519 -73 q 576 93 563 20 q 506 29 539 51 q 433 -4 473 7 q 348 -16 393 -16 q 250 4 288 -16 q 188 63 212 24 q 163 143 163 103 q 177 239 163 175 l 237 505 m 572 933 q 528 837 572 877 q 439 797 484 797 q 375 822 400 797 q 350 888 350 848 q 391 980 350 939 q 482 1021 431 1021 q 547 996 522 1021 q 572 933 572 971 m 878 933 q 834 837 878 877 q 745 797 790 797 q 681 822 706 797 q 656 888 656 848 q 696 980 656 939 q 788 1021 736 1021 q 852 996 827 1021 q 878 933 878 971 z "},"Ÿ":{"ha":917,"x_min":184,"x_max":1124,"o":"m 214 946 l 656 946 l 628 815 l 581 815 q 538 809 548 815 q 522 778 522 798 q 530 743 522 764 l 610 519 l 762 727 q 786 766 781 755 q 791 785 791 777 q 780 807 791 799 q 731 815 768 815 l 701 815 l 731 946 l 1124 946 l 1096 815 q 1043 810 1060 815 q 1009 791 1026 804 q 968 749 992 779 l 674 381 l 635 205 q 628 169 628 176 q 645 138 628 148 q 694 131 656 131 l 731 131 l 701 0 l 243 0 l 273 131 l 300 131 q 361 137 344 131 q 388 156 378 143 q 405 205 397 169 l 443 376 l 292 734 q 264 789 275 776 q 235 808 253 802 q 184 815 218 815 l 214 946 m 654 1154 q 610 1058 654 1098 q 521 1018 566 1018 q 457 1043 482 1018 q 432 1109 432 1069 q 473 1201 432 1160 q 564 1242 513 1242 q 629 1217 604 1242 q 654 1154 654 1192 m 960 1154 q 916 1058 960 1098 q 827 1018 872 1018 q 763 1043 788 1018 q 738 1109 738 1069 q 778 1201 738 1160 q 870 1242 819 1242 q 935 1217 909 1242 q 960 1154 960 1192 z "},"⁄":{"ha":167,"x_min":-269,"x_max":657,"o":"m 657 962 l -160 -8 l -269 -8 l 550 962 l 657 962 z "},"∕":{"ha":167,"x_min":-269,"x_max":657,"o":"m 657 962 l -160 -8 l -269 -8 l 550 962 l 657 962 z "},"€":{"ha":945,"x_min":117,"x_max":1026,"o":"m 461 578 l 790 578 l 779 504 l 444 504 q 437 441 438 469 l 769 441 l 758 368 l 439 368 q 502 198 453 258 q 622 139 551 139 q 871 292 749 139 l 968 207 q 808 54 918 125 q 569 -17 699 -17 q 302 94 407 -17 q 179 368 197 205 l 117 368 l 127 441 l 178 441 q 183 504 179 480 l 117 504 l 127 578 l 198 578 q 385 859 254 755 q 669 962 515 962 q 886 900 798 962 l 900 946 l 997 946 l 1026 631 l 891 615 q 828 768 874 715 q 712 821 781 821 q 565 759 630 821 q 461 578 499 696 z "},"‹":{"ha":306,"x_min":121,"x_max":391,"o":"m 314 597 l 391 546 l 264 339 l 276 105 l 189 90 l 121 372 l 314 597 z "},"›":{"ha":306,"x_min":81,"x_max":350,"o":"m 157 90 l 81 142 l 208 348 l 196 583 l 283 597 l 350 315 l 157 90 z "},"":{"ha":1139,"x_min":-150,"x_max":1204,"o":"m 212 677 l 317 677 q 370 826 333 769 q 517 945 420 901 q 785 995 631 995 q 1046 934 948 995 q 1119 826 1119 890 q 1090 762 1119 789 q 1020 734 1062 734 q 984 740 1002 734 q 949 755 966 745 q 911 790 941 762 q 870 825 881 819 q 817 845 846 838 q 755 852 787 852 q 647 831 696 852 q 571 774 598 810 q 530 677 543 737 l 968 677 q 1033 681 1013 677 q 1058 693 1046 684 l 1128 693 l 1018 216 l 1015 207 q 1009 169 1009 184 q 1018 141 1009 151 q 1040 132 1026 132 q 1106 165 1066 132 q 1128 182 1118 175 l 1204 96 q 1091 13 1154 43 q 968 -16 1029 -16 q 842 28 890 -16 q 794 138 794 73 q 799 191 794 173 l 804 208 l 880 546 l 500 546 l 382 26 q 322 -144 361 -68 q 206 -265 284 -220 q 35 -310 128 -310 q -104 -267 -48 -310 q -150 -178 -150 -231 q -121 -112 -150 -140 q -55 -83 -92 -83 q -8 -95 -33 -83 q 33 -125 17 -107 q 68 -165 64 -163 q 87 -171 77 -171 q 128 -149 110 -171 q 161 -56 146 -127 l 287 546 l 182 546 l 212 677 z "},"ﬁ":{"ha":1139,"x_min":-150,"x_max":1204,"o":"m 212 677 l 317 677 q 370 826 333 769 q 517 945 420 901 q 785 995 631 995 q 1046 934 948 995 q 1119 826 1119 890 q 1090 762 1119 789 q 1020 734 1062 734 q 984 740 1002 734 q 949 755 966 745 q 911 790 941 762 q 870 825 881 819 q 817 845 846 838 q 755 852 787 852 q 647 831 696 852 q 571 774 598 810 q 530 677 543 737 l 968 677 q 1033 681 1013 677 q 1058 693 1046 684 l 1128 693 l 1018 216 l 1015 207 q 1009 169 1009 184 q 1018 141 1009 151 q 1040 132 1026 132 q 1106 165 1066 132 q 1128 182 1118 175 l 1204 96 q 1091 13 1154 43 q 968 -16 1029 -16 q 842 28 890 -16 q 794 138 794 73 q 799 191 794 173 l 804 208 l 880 546 l 500 546 l 382 26 q 322 -144 361 -68 q 206 -265 284 -220 q 35 -310 128 -310 q -104 -267 -48 -310 q -150 -178 -150 -231 q -121 -112 -150 -140 q -55 -83 -92 -83 q -8 -95 -33 -83 q 33 -125 17 -107 q 68 -165 64 -163 q 87 -171 77 -171 q 128 -149 110 -171 q 161 -56 146 -127 l 287 546 l 182 546 l 212 677 z "},"":{"ha":1139,"x_min":-150,"x_max":1205,"o":"m 1194 995 l 1021 232 q 1010 165 1010 181 q 1019 139 1010 149 q 1040 130 1028 130 q 1077 142 1056 130 q 1128 182 1085 146 l 1205 96 q 970 -16 1093 -16 q 841 28 888 -16 q 795 144 795 73 q 802 199 795 179 q 806 216 804 208 l 938 800 q 898 814 920 804 q 815 845 846 836 q 751 853 784 853 q 642 829 696 853 q 570 770 598 809 q 530 677 541 731 l 730 677 l 701 546 l 502 546 l 383 29 q 308 -169 353 -102 q 191 -273 263 -235 q 36 -310 119 -310 q -98 -270 -47 -310 q -150 -179 -150 -229 q -120 -113 -150 -142 q -54 -83 -91 -83 q -20 -90 -38 -83 q 14 -107 -2 -96 q 46 -140 22 -113 q 71 -167 66 -164 q 88 -172 79 -172 q 129 -150 111 -172 q 159 -66 146 -127 l 288 546 l 183 546 l 213 677 l 318 677 q 387 846 335 780 q 534 954 438 913 q 752 995 630 995 q 884 987 811 995 q 1018 977 980 977 q 1128 995 1065 977 l 1194 995 z "},"ﬂ":{"ha":1139,"x_min":-150,"x_max":1205,"o":"m 1194 995 l 1021 232 q 1010 165 1010 181 q 1019 139 1010 149 q 1040 130 1028 130 q 1077 142 1056 130 q 1128 182 1085 146 l 1205 96 q 970 -16 1093 -16 q 841 28 888 -16 q 795 144 795 73 q 802 199 795 179 q 806 216 804 208 l 938 800 q 898 814 920 804 q 815 845 846 836 q 751 853 784 853 q 642 829 696 853 q 570 770 598 809 q 530 677 541 731 l 730 677 l 701 546 l 502 546 l 383 29 q 308 -169 353 -102 q 191 -273 263 -235 q 36 -310 119 -310 q -98 -270 -47 -310 q -150 -179 -150 -229 q -120 -113 -150 -142 q -54 -83 -91 -83 q -20 -90 -38 -83 q 14 -107 -2 -96 q 46 -140 22 -113 q 71 -167 66 -164 q 88 -172 79 -172 q 129 -150 111 -172 q 159 -66 146 -127 l 288 546 l 183 546 l 213 677 l 318 677 q 387 846 335 780 q 534 954 438 913 q 752 995 630 995 q 884 987 811 995 q 1018 977 980 977 q 1128 995 1065 977 l 1194 995 z "},"‡":{"ha":583,"x_min":61,"x_max":696,"o":"m 480 639 q 616 682 571 682 q 676 664 656 682 q 696 612 696 646 q 673 546 696 572 q 618 519 650 519 q 564 526 597 519 q 463 555 532 533 q 500 393 467 464 q 380 202 422 304 l 428 218 q 492 237 475 233 q 524 240 509 240 q 575 221 555 240 q 595 172 595 201 q 572 103 595 129 q 513 77 549 77 q 473 82 493 77 q 359 117 454 87 q 358 61 358 83 q 366 -59 358 17 q 369 -112 369 -91 q 341 -192 369 -163 q 260 -220 313 -220 q 190 -197 216 -220 q 164 -143 164 -174 q 170 -109 164 -125 q 205 -42 176 -92 q 287 117 248 31 q 131 79 167 79 q 82 97 102 79 q 61 151 61 115 q 73 195 61 174 q 106 230 84 216 q 143 239 120 239 q 177 236 160 239 q 242 218 189 233 q 304 202 267 210 q 304 230 304 220 q 299 286 304 258 q 269 393 294 314 q 387 555 345 471 q 326 538 357 549 q 243 519 269 519 q 184 539 205 519 q 162 591 162 559 q 187 657 162 631 q 247 683 212 683 q 347 662 277 683 q 410 643 387 650 q 401 800 410 696 q 399 852 399 833 q 428 933 399 905 q 509 962 456 962 q 578 940 551 962 q 604 889 604 918 q 596 849 604 871 q 562 785 588 828 q 480 639 515 711 z "},"∙":{"ha":472,"x_min":216,"x_max":473,"o":"m 359 602 q 417 586 390 602 q 458 545 444 571 q 473 486 473 519 q 454 416 473 448 q 400 364 436 384 q 332 345 365 345 q 273 360 302 345 q 230 401 243 376 q 216 460 216 427 q 234 531 216 498 q 287 583 253 564 q 359 602 321 602 z "},"‚":{"ha":416,"x_min":39,"x_max":395,"o":"m 81 -253 l 39 -164 q 149 -107 103 -138 q 220 -45 195 -76 q 252 17 237 -24 q 223 4 237 9 q 199 0 210 0 q 133 32 161 0 q 104 109 104 64 q 143 200 104 162 q 239 237 182 237 q 317 216 281 237 q 374 155 353 195 q 395 68 395 116 q 360 -50 395 12 q 261 -162 326 -112 q 81 -253 197 -212 z "},"„":{"ha":722,"x_min":28,"x_max":728,"o":"m 414 -253 l 372 -164 q 482 -107 436 -138 q 553 -45 528 -76 q 585 17 570 -24 q 557 4 570 9 q 532 0 543 0 q 466 32 495 0 q 437 109 437 64 q 476 200 437 162 q 572 237 515 237 q 650 216 614 237 q 707 155 686 195 q 728 68 728 116 q 694 -50 728 12 q 595 -162 660 -112 q 414 -253 530 -212 m 70 -253 l 28 -164 q 138 -107 92 -138 q 209 -45 184 -76 q 241 17 227 -24 q 213 4 226 9 q 188 0 199 0 q 122 32 151 0 q 93 109 93 64 q 132 200 93 162 q 229 237 171 237 q 306 216 270 237 q 363 155 342 195 q 384 68 384 116 q 350 -50 384 12 q 251 -162 315 -112 q 70 -253 186 -212 z "},"‰":{"ha":1889,"x_min":168,"x_max":1930,"o":"m 481 962 q 634 912 578 962 q 690 783 690 862 q 645 613 690 694 q 534 492 601 532 q 376 453 467 453 q 223 504 279 453 q 168 636 168 555 q 211 802 168 723 q 325 921 255 880 q 481 962 394 962 m 473 880 q 406 855 436 880 q 347 756 376 831 q 318 614 318 682 q 336 556 318 576 q 384 535 355 535 q 451 561 419 535 q 511 660 482 586 q 539 796 539 734 q 522 859 539 838 q 473 880 504 880 m 1217 962 l 401 -8 l 292 -8 l 1110 962 l 1217 962 m 1121 500 q 1274 450 1218 500 q 1329 321 1329 400 q 1285 151 1329 233 q 1174 31 1240 70 q 1016 -8 1107 -8 q 863 43 919 -8 q 807 174 807 94 q 851 340 807 261 q 964 459 895 418 q 1121 500 1034 500 m 1114 418 q 1046 393 1076 418 q 987 295 1016 369 q 958 153 958 220 q 976 94 958 115 q 1023 73 995 73 q 1090 99 1059 73 q 1151 198 1122 124 q 1179 335 1179 272 q 1161 397 1179 376 q 1114 418 1143 418 m 1723 500 q 1875 450 1820 500 q 1930 321 1930 400 q 1886 151 1930 233 q 1775 31 1842 70 q 1617 -8 1708 -8 q 1464 43 1520 -8 q 1409 174 1409 94 q 1452 340 1409 261 q 1565 459 1495 418 q 1723 500 1634 500 m 1714 418 q 1647 393 1677 418 q 1588 295 1617 369 q 1558 153 1558 220 q 1577 94 1558 115 q 1624 73 1596 73 q 1691 99 1660 73 q 1751 198 1723 124 q 1780 335 1780 272 q 1762 397 1780 376 q 1714 418 1744 418 z "},"Â":{"ha":1000,"x_min":1,"x_max":1031,"o":"m 609 946 l 821 946 l 944 210 q 958 153 951 164 q 977 137 964 142 q 1031 131 990 131 l 999 0 l 566 0 l 597 131 l 635 131 q 688 139 675 131 q 712 180 712 153 q 706 237 712 193 l 696 313 l 402 313 l 340 204 q 321 157 321 170 q 336 136 321 143 q 384 131 345 131 l 420 131 l 390 0 l 1 0 l 32 131 q 84 137 66 130 q 115 156 102 143 q 158 217 128 169 l 609 946 m 680 438 l 641 726 l 480 438 l 680 438 m 994 1082 l 940 990 l 741 1064 l 543 990 l 489 1082 l 741 1234 l 994 1082 z "},"Ê":{"ha":1000,"x_min":44,"x_max":1105,"o":"m 229 815 l 258 946 l 1015 946 l 1105 662 l 980 621 q 943 698 965 668 q 880 760 915 738 q 796 791 844 781 q 702 798 764 798 l 569 798 l 513 555 l 543 555 q 621 562 594 555 q 662 586 647 570 q 689 635 677 602 q 702 693 694 648 l 828 693 l 738 292 l 612 292 q 625 366 625 349 q 600 416 625 399 q 524 428 582 428 l 487 428 l 439 216 l 433 189 q 429 168 429 177 q 442 150 429 155 q 487 148 448 148 l 565 148 q 725 167 665 148 q 864 251 805 192 q 956 392 923 310 l 1076 340 l 911 0 l 44 0 l 75 131 l 109 131 q 178 147 159 131 q 210 222 197 163 l 325 730 q 332 777 332 764 q 326 799 332 789 q 310 811 320 808 q 273 815 300 815 l 229 815 m 964 1082 l 910 990 l 711 1064 l 513 990 l 459 1082 l 711 1234 l 964 1082 z "},"Á":{"ha":1000,"x_min":1,"x_max":1031,"o":"m 609 946 l 821 946 l 944 210 q 958 153 951 164 q 977 137 964 142 q 1031 131 990 131 l 999 0 l 566 0 l 597 131 l 635 131 q 688 139 675 131 q 712 180 712 153 q 706 237 712 193 l 696 313 l 402 313 l 340 204 q 321 157 321 170 q 336 136 321 143 q 384 131 345 131 l 420 131 l 390 0 l 1 0 l 32 131 q 84 137 66 130 q 115 156 102 143 q 158 217 128 169 l 609 946 m 680 438 l 641 726 l 480 438 l 680 438 m 625 1052 q 767 1233 726 1197 q 849 1270 808 1270 q 913 1245 888 1270 q 939 1186 939 1221 q 918 1129 939 1157 q 843 1071 898 1102 l 682 991 l 625 1052 z "},"Ë":{"ha":1000,"x_min":44,"x_max":1105,"o":"m 229 815 l 258 946 l 1015 946 l 1105 662 l 980 621 q 943 698 965 668 q 880 760 915 738 q 796 791 844 781 q 702 798 764 798 l 569 798 l 513 555 l 543 555 q 621 562 594 555 q 662 586 647 570 q 689 635 677 602 q 702 693 694 648 l 828 693 l 738 292 l 612 292 q 625 366 625 349 q 600 416 625 399 q 524 428 582 428 l 487 428 l 439 216 l 433 189 q 429 168 429 177 q 442 150 429 155 q 487 148 448 148 l 565 148 q 725 167 665 148 q 864 251 805 192 q 956 392 923 310 l 1076 340 l 911 0 l 44 0 l 75 131 l 109 131 q 178 147 159 131 q 210 222 197 163 l 325 730 q 332 777 332 764 q 326 799 332 789 q 310 811 320 808 q 273 815 300 815 l 229 815 m 655 1154 q 611 1058 655 1098 q 522 1018 567 1018 q 458 1043 483 1018 q 433 1109 433 1069 q 473 1201 433 1160 q 565 1242 514 1242 q 630 1217 605 1242 q 655 1154 655 1192 m 960 1154 q 917 1058 960 1098 q 827 1018 873 1018 q 764 1043 789 1018 q 739 1109 739 1069 q 779 1201 739 1160 q 871 1242 819 1242 q 935 1217 910 1242 q 960 1154 960 1192 z "},"È":{"ha":1000,"x_min":44,"x_max":1105,"o":"m 229 815 l 258 946 l 1015 946 l 1105 662 l 980 621 q 943 698 965 668 q 880 760 915 738 q 796 791 844 781 q 702 798 764 798 l 569 798 l 513 555 l 543 555 q 621 562 594 555 q 662 586 647 570 q 689 635 677 602 q 702 693 694 648 l 828 693 l 738 292 l 612 292 q 625 366 625 349 q 600 416 625 399 q 524 428 582 428 l 487 428 l 439 216 l 433 189 q 429 168 429 177 q 442 150 429 155 q 487 148 448 148 l 565 148 q 725 167 665 148 q 864 251 805 192 q 956 392 923 310 l 1076 340 l 911 0 l 44 0 l 75 131 l 109 131 q 178 147 159 131 q 210 222 197 163 l 325 730 q 332 777 332 764 q 326 799 332 789 q 310 811 320 808 q 273 815 300 815 l 229 815 m 785 1052 l 726 991 l 574 1067 q 491 1128 512 1100 q 471 1185 471 1156 q 496 1245 471 1220 q 557 1270 522 1270 q 638 1238 600 1270 q 785 1052 677 1207 z "},"Í":{"ha":528,"x_min":33,"x_max":705,"o":"m 245 946 l 705 946 l 676 815 l 643 815 q 586 808 602 815 q 561 788 570 802 q 543 731 552 774 l 425 206 q 418 167 418 174 q 434 138 418 148 q 485 131 445 131 l 523 131 l 492 0 l 33 0 l 63 131 l 98 131 q 154 138 137 131 q 179 158 171 145 q 199 220 188 172 l 315 736 q 321 776 321 765 q 308 806 321 796 q 254 815 295 815 l 216 815 l 245 946 m 388 1052 q 530 1233 490 1197 q 612 1270 571 1270 q 677 1245 652 1270 q 702 1186 702 1221 q 682 1129 702 1157 q 606 1071 661 1102 l 445 991 l 388 1052 z "},"Î":{"ha":528,"x_min":33,"x_max":762,"o":"m 245 946 l 705 946 l 676 815 l 643 815 q 586 808 602 815 q 561 788 570 802 q 543 731 552 774 l 425 206 q 418 167 418 174 q 434 138 418 148 q 485 131 445 131 l 523 131 l 492 0 l 33 0 l 63 131 l 98 131 q 154 138 137 131 q 179 158 171 145 q 199 220 188 172 l 315 736 q 321 776 321 765 q 308 806 321 796 q 254 815 295 815 l 216 815 l 245 946 m 762 1082 l 708 990 l 509 1064 l 311 990 l 257 1082 l 509 1234 l 762 1082 z "},"Ï":{"ha":528,"x_min":33,"x_max":765,"o":"m 245 946 l 705 946 l 676 815 l 643 815 q 586 808 602 815 q 561 788 570 802 q 543 731 552 774 l 425 206 q 418 167 418 174 q 434 138 418 148 q 485 131 445 131 l 523 131 l 492 0 l 33 0 l 63 131 l 98 131 q 154 138 137 131 q 179 158 171 145 q 199 220 188 172 l 315 736 q 321 776 321 765 q 308 806 321 796 q 254 815 295 815 l 216 815 l 245 946 m 460 1154 q 416 1058 460 1098 q 326 1018 372 1018 q 262 1043 288 1018 q 237 1109 237 1069 q 278 1201 237 1160 q 370 1242 319 1242 q 435 1217 410 1242 q 460 1154 460 1192 m 765 1154 q 721 1058 765 1098 q 632 1018 677 1018 q 568 1043 593 1018 q 543 1109 543 1069 q 584 1201 543 1160 q 675 1242 624 1242 q 740 1217 715 1242 q 765 1154 765 1192 z "},"Ì":{"ha":528,"x_min":33,"x_max":705,"o":"m 245 946 l 705 946 l 676 815 l 643 815 q 586 808 602 815 q 561 788 570 802 q 543 731 552 774 l 425 206 q 418 167 418 174 q 434 138 418 148 q 485 131 445 131 l 523 131 l 492 0 l 33 0 l 63 131 l 98 131 q 154 138 137 131 q 179 158 171 145 q 199 220 188 172 l 315 736 q 321 776 321 765 q 308 806 321 796 q 254 815 295 815 l 216 815 l 245 946 m 596 1052 l 538 991 l 386 1067 q 303 1128 323 1100 q 282 1185 282 1156 q 308 1245 282 1220 q 369 1270 333 1270 q 450 1238 411 1270 q 596 1052 488 1207 z "},"Ó":{"ha":1055,"x_min":139,"x_max":1134,"o":"m 697 962 q 921 905 819 962 q 1078 752 1022 848 q 1134 533 1134 655 q 1060 256 1134 385 q 860 56 987 127 q 581 -16 734 -16 q 239 132 363 -16 q 139 415 139 250 q 214 690 139 560 q 414 891 288 819 q 697 962 540 962 m 687 818 q 550 772 612 818 q 441 615 488 726 q 394 383 394 505 q 420 242 394 302 q 487 156 446 182 q 589 130 528 130 q 725 174 666 130 q 830 334 783 218 q 876 578 876 451 q 850 706 876 649 q 782 791 824 764 q 687 818 741 818 m 652 1052 q 794 1233 753 1197 q 876 1270 835 1270 q 941 1245 916 1270 q 966 1186 966 1221 q 945 1129 966 1157 q 870 1071 925 1102 l 709 991 l 652 1052 z "},"Ô":{"ha":1055,"x_min":139,"x_max":1134,"o":"m 697 962 q 921 905 819 962 q 1078 752 1022 848 q 1134 533 1134 655 q 1060 256 1134 385 q 860 56 987 127 q 581 -16 734 -16 q 239 132 363 -16 q 139 415 139 250 q 214 690 139 560 q 414 891 288 819 q 697 962 540 962 m 687 818 q 550 772 612 818 q 441 615 488 726 q 394 383 394 505 q 420 242 394 302 q 487 156 446 182 q 589 130 528 130 q 725 174 666 130 q 830 334 783 218 q 876 578 876 451 q 850 706 876 649 q 782 791 824 764 q 687 818 741 818 m 964 1082 l 911 990 l 712 1064 l 513 990 l 460 1082 l 712 1234 l 964 1082 z "},"":{"ha":1097,"x_min":0,"x_max":0,"o":""},"Ò":{"ha":1055,"x_min":139,"x_max":1134,"o":"m 697 962 q 921 905 819 962 q 1078 752 1022 848 q 1134 533 1134 655 q 1060 256 1134 385 q 860 56 987 127 q 581 -16 734 -16 q 239 132 363 -16 q 139 415 139 250 q 214 690 139 560 q 414 891 288 819 q 697 962 540 962 m 687 818 q 550 772 612 818 q 441 615 488 726 q 394 383 394 505 q 420 242 394 302 q 487 156 446 182 q 589 130 528 130 q 725 174 666 130 q 830 334 783 218 q 876 578 876 451 q 850 706 876 649 q 782 791 824 764 q 687 818 741 818 m 854 1052 l 795 991 l 644 1067 q 561 1128 581 1100 q 540 1185 540 1156 q 565 1245 540 1220 q 627 1270 591 1270 q 707 1238 669 1270 q 854 1052 746 1207 z "},"Ú":{"ha":1027,"x_min":202,"x_max":1220,"o":"m 233 946 l 692 946 l 662 815 l 632 815 q 577 810 589 815 q 548 789 558 802 q 531 741 538 775 l 449 376 l 445 359 q 434 284 434 319 q 477 182 434 222 q 590 141 521 141 q 690 165 645 141 q 767 236 736 190 q 817 366 798 281 l 902 741 q 906 778 906 760 q 893 806 906 797 q 839 815 880 815 l 802 815 l 833 946 l 1220 946 l 1190 815 l 1154 815 q 1111 812 1122 815 q 1089 799 1100 808 q 1072 777 1078 790 q 1059 732 1065 764 l 964 318 q 927 211 954 272 q 845 96 900 149 q 714 14 791 43 q 545 -16 638 -16 q 362 20 438 -16 q 244 121 286 56 q 202 258 202 185 q 212 347 202 303 l 300 741 q 307 777 307 770 q 289 808 307 798 q 240 815 277 815 l 204 815 l 233 946 m 637 1052 q 780 1233 739 1197 q 862 1270 821 1270 q 926 1245 901 1270 q 951 1186 951 1221 q 931 1129 951 1157 q 856 1071 911 1102 l 694 991 l 637 1052 z "},"Û":{"ha":1027,"x_min":202,"x_max":1220,"o":"m 233 946 l 692 946 l 662 815 l 632 815 q 577 810 589 815 q 548 789 558 802 q 531 741 538 775 l 449 376 l 445 359 q 434 284 434 319 q 477 182 434 222 q 590 141 521 141 q 690 165 645 141 q 767 236 736 190 q 817 366 798 281 l 902 741 q 906 778 906 760 q 893 806 906 797 q 839 815 880 815 l 802 815 l 833 946 l 1220 946 l 1190 815 l 1154 815 q 1111 812 1122 815 q 1089 799 1100 808 q 1072 777 1078 790 q 1059 732 1065 764 l 964 318 q 927 211 954 272 q 845 96 900 149 q 714 14 791 43 q 545 -16 638 -16 q 362 20 438 -16 q 244 121 286 56 q 202 258 202 185 q 212 347 202 303 l 300 741 q 307 777 307 770 q 289 808 307 798 q 240 815 277 815 l 204 815 l 233 946 m 1019 1082 l 965 990 l 766 1064 l 568 990 l 514 1082 l 766 1234 l 1019 1082 z "},"Ù":{"ha":1027,"x_min":202,"x_max":1220,"o":"m 233 946 l 692 946 l 662 815 l 632 815 q 577 810 589 815 q 548 789 558 802 q 531 741 538 775 l 449 376 l 445 359 q 434 284 434 319 q 477 182 434 222 q 590 141 521 141 q 690 165 645 141 q 767 236 736 190 q 817 366 798 281 l 902 741 q 906 778 906 760 q 893 806 906 797 q 839 815 880 815 l 802 815 l 833 946 l 1220 946 l 1190 815 l 1154 815 q 1111 812 1122 815 q 1089 799 1100 808 q 1072 777 1078 790 q 1059 732 1065 764 l 964 318 q 927 211 954 272 q 845 96 900 149 q 714 14 791 43 q 545 -16 638 -16 q 362 20 438 -16 q 244 121 286 56 q 202 258 202 185 q 212 347 202 303 l 300 741 q 307 777 307 770 q 289 808 307 798 q 240 815 277 815 l 204 815 l 233 946 m 840 1052 l 781 991 l 629 1067 q 546 1128 567 1100 q 526 1185 526 1156 q 551 1245 526 1220 q 612 1270 576 1270 q 693 1238 654 1270 q 840 1052 732 1207 z "},"ı":{"ha":528,"x_min":152,"x_max":589,"o":"m 465 693 l 530 693 l 408 220 q 395 160 395 170 q 403 141 395 149 q 424 134 411 134 q 512 184 459 134 l 589 94 q 354 -16 478 -16 q 261 2 299 -16 q 200 57 223 21 q 177 127 177 93 q 182 169 177 139 q 196 240 189 213 l 264 503 l 152 503 l 182 633 q 465 693 340 651 z "},"ˆ":{"ha":694,"x_min":299,"x_max":804,"o":"m 804 861 l 750 769 l 551 843 l 353 769 l 299 861 l 551 1013 l 804 861 z "},"˜":{"ha":667,"x_min":245,"x_max":728,"o":"m 665 958 l 728 907 q 656 829 701 857 q 565 802 612 802 q 451 834 518 802 q 410 852 423 848 q 383 856 397 856 q 341 843 359 856 q 307 798 323 829 l 245 848 q 315 938 277 911 q 401 964 353 964 q 448 960 426 964 q 517 942 470 956 q 597 924 576 924 q 627 930 612 924 q 665 958 642 937 z "},"ˉ":{"ha":667,"x_min":246,"x_max":774,"o":"m 728 819 l 246 819 l 292 941 l 774 941 l 728 819 z "},"˘":{"ha":639,"x_min":257,"x_max":718,"o":"m 619 961 l 718 961 q 698 887 714 917 q 653 834 682 857 q 583 798 625 810 q 487 785 541 785 q 391 798 433 785 q 320 834 349 810 q 276 887 292 857 q 257 961 260 917 l 356 961 q 381 926 368 936 q 418 906 397 911 q 487 899 447 899 q 556 906 527 899 q 593 926 576 911 q 619 961 606 937 z "},"˙":{"ha":528,"x_min":309,"x_max":531,"o":"m 531 917 q 487 821 531 861 q 397 781 443 781 q 334 806 359 781 q 309 871 309 831 q 349 964 309 923 q 441 1004 390 1004 q 506 980 481 1004 q 531 917 531 955 z "},"˚":{"ha":500,"x_min":258,"x_max":559,"o":"m 559 939 q 515 836 559 879 q 408 792 471 792 q 302 835 346 792 q 258 939 258 878 q 303 1043 258 1000 q 410 1087 347 1087 q 515 1044 471 1087 q 559 939 559 1000 m 340 941 q 359 891 340 911 q 404 871 378 871 q 451 891 431 871 q 470 941 470 911 q 451 988 470 968 q 404 1008 431 1008 q 359 988 378 1008 q 340 941 340 968 z "},"¸":{"ha":500,"x_min":1,"x_max":302,"o":"m 100 0 l 165 0 l 144 -72 q 194 -63 175 -63 q 272 -92 243 -63 q 302 -167 302 -121 q 261 -254 302 -220 q 149 -288 221 -288 q 39 -263 77 -288 q 1 -207 1 -238 q 14 -173 1 -186 q 47 -160 27 -160 q 92 -189 73 -160 q 114 -212 102 -205 q 140 -218 125 -218 q 178 -203 164 -218 q 193 -163 193 -189 q 179 -123 193 -138 q 145 -109 165 -109 q 113 -119 132 -109 l 75 -85 l 100 0 z "},"˝":{"ha":778,"x_min":296,"x_max":889,"o":"m 296 817 q 400 983 368 940 q 462 1042 432 1026 q 511 1055 483 1055 q 574 1030 549 1055 q 599 971 599 1006 q 584 922 599 948 q 530 867 570 897 q 359 762 504 849 l 296 817 m 587 817 q 690 983 657 939 q 752 1042 722 1026 q 802 1055 773 1055 q 864 1030 839 1055 q 889 971 889 1006 q 874 922 889 948 q 819 867 860 897 q 648 762 791 846 l 587 817 z "},"˛":{"ha":444,"x_min":8,"x_max":260,"o":"m 200 0 q 149 -58 161 -37 q 137 -99 137 -79 q 144 -125 137 -115 q 165 -142 151 -136 q 205 -151 187 -151 q 260 -138 222 -151 l 241 -223 q 189 -242 208 -238 q 136 -249 160 -249 q 68 -234 100 -249 q 23 -195 37 -218 q 8 -139 8 -171 q 37 -62 8 -94 q 127 0 58 -39 l 200 0 z "},"ˇ":{"ha":694,"x_min":299,"x_max":802,"o":"m 299 919 l 353 1011 l 551 937 l 749 1011 l 802 919 l 551 766 l 299 919 z "},"Ł":{"ha":889,"x_min":6,"x_max":1003,"o":"m 477 562 l 688 645 l 661 528 l 452 447 l 397 206 q 390 170 390 175 q 398 154 390 159 q 431 149 407 149 l 466 149 q 591 155 551 149 q 714 194 661 165 q 810 272 768 222 q 883 390 852 321 l 1003 339 l 838 0 l 6 0 l 36 131 l 68 131 q 124 138 108 131 q 150 158 140 144 q 170 216 159 172 l 199 349 l 74 300 l 100 411 l 225 461 l 288 736 q 295 777 295 770 q 282 807 295 795 q 243 815 273 815 l 191 815 l 220 946 l 679 946 l 648 815 l 608 815 q 566 811 579 815 q 536 789 547 804 q 517 736 526 774 l 477 562 z "},"ł":{"ha":519,"x_min":104,"x_max":605,"o":"m 484 600 l 605 650 l 580 542 l 460 492 l 397 209 q 390 165 390 179 q 398 142 390 151 q 418 134 406 134 q 452 144 432 134 q 508 183 484 160 l 586 96 q 461 8 518 33 q 345 -16 404 -16 q 223 28 270 -16 q 176 138 176 73 q 189 227 176 172 l 227 396 l 104 345 l 129 453 l 250 503 l 317 807 l 210 807 l 240 938 q 363 952 300 939 q 508 995 426 965 l 572 995 l 484 600 z "},"Š":{"ha":972,"x_min":140,"x_max":1036,"o":"m 1010 946 l 1036 618 l 898 597 q 782 755 863 696 q 602 815 701 815 q 515 801 551 815 q 463 763 480 787 q 445 715 445 739 q 476 655 445 683 q 604 601 507 627 q 844 517 768 555 q 960 424 920 479 q 1000 292 1000 370 q 882 68 1000 161 q 611 -16 775 -16 q 438 10 514 -16 q 296 94 362 37 l 237 0 l 140 0 l 140 380 l 277 390 q 355 257 300 319 q 477 163 409 195 q 616 132 545 132 q 739 164 696 132 q 783 243 783 196 q 755 304 783 277 q 647 355 728 331 q 411 434 479 405 q 307 497 343 463 q 251 578 271 531 q 231 673 231 625 q 275 814 231 748 q 407 922 319 881 q 606 962 495 962 q 762 937 689 962 q 868 878 815 918 l 911 946 l 1010 946 m 371 1140 l 425 1232 l 623 1158 l 821 1232 l 874 1140 l 623 987 l 371 1140 z "},"š":{"ha":750,"x_min":94,"x_max":816,"o":"m 527 693 q 687 668 616 693 q 787 609 758 643 q 816 541 816 575 q 792 478 816 503 q 729 453 768 453 q 694 458 711 453 q 662 473 677 463 q 624 505 651 479 q 585 538 596 532 q 545 554 568 549 q 495 560 522 560 q 428 546 448 560 q 408 509 408 531 q 419 481 408 492 q 468 454 435 465 q 660 381 603 410 q 746 314 717 353 q 774 220 774 275 q 735 104 774 159 q 621 16 696 49 q 433 -16 547 -16 q 170 45 269 -16 q 94 156 94 93 q 120 219 94 193 q 184 245 146 245 q 215 240 199 245 q 249 221 231 235 q 286 184 261 212 q 318 153 307 161 q 377 121 350 130 q 447 112 405 112 q 528 126 502 112 q 562 172 562 146 q 536 214 562 197 q 412 261 518 226 q 243 354 290 302 q 196 472 196 405 q 232 581 196 530 q 342 662 268 631 q 527 693 416 693 m 280 919 l 334 1011 l 532 937 l 730 1011 l 783 919 l 532 766 l 280 919 z "},"Ž":{"ha":945,"x_min":56,"x_max":1074,"o":"m 350 946 l 1074 946 l 1044 815 l 404 147 l 470 147 q 657 169 593 147 q 781 246 722 191 q 896 401 840 301 l 1012 342 l 819 0 l 56 0 l 85 131 l 724 795 l 667 795 q 455 753 530 795 q 288 568 359 699 l 172 624 l 350 946 m 452 1140 l 505 1232 l 703 1158 l 902 1232 l 955 1140 l 703 987 l 452 1140 z "},"ž":{"ha":778,"x_min":69,"x_max":844,"o":"m 844 677 l 814 546 l 393 140 q 477 125 423 136 q 532 119 512 119 q 572 129 553 119 q 599 151 590 138 q 614 186 604 156 q 634 232 627 221 q 671 270 649 256 q 718 283 692 283 q 783 254 755 283 q 810 183 810 224 q 778 86 810 134 q 685 11 745 39 q 549 -16 626 -16 q 484 -13 521 -16 q 374 3 456 -10 q 288 15 303 14 q 232 17 260 17 q 69 0 155 17 l 99 131 l 525 541 l 456 556 q 423 560 437 560 q 383 547 399 560 q 347 492 367 534 q 299 427 325 446 q 241 409 274 409 q 178 436 204 409 q 151 502 151 463 q 218 633 151 573 q 408 693 284 693 q 470 690 438 693 q 567 675 492 688 q 649 663 634 665 q 696 661 673 661 q 844 677 755 661 m 299 919 l 353 1011 l 551 937 l 749 1011 l 802 919 l 551 766 l 299 919 z "},"¦":{"ha":861,"x_min":455,"x_max":627,"o":"m 455 996 l 627 996 l 627 435 l 455 370 l 455 996 m 455 258 l 627 323 l 627 -302 l 455 -302 l 455 258 z "},"Ð":{"ha":1056,"x_min":43,"x_max":1139,"o":"m 255 424 l 140 424 l 163 522 l 277 522 l 325 730 q 334 779 334 771 q 317 809 334 798 q 267 815 307 815 l 230 815 l 259 946 l 676 946 q 871 926 797 946 q 989 873 946 906 q 1101 741 1063 817 q 1139 566 1139 665 q 1094 336 1139 444 q 973 156 1049 227 q 780 38 887 76 q 508 0 673 0 l 43 0 l 74 131 l 108 131 q 157 135 143 131 q 189 157 178 142 q 208 212 197 169 l 255 424 m 485 424 l 437 211 q 429 168 429 178 q 438 153 429 158 q 480 148 448 148 l 526 148 q 715 194 647 148 q 827 325 783 241 q 888 571 888 438 q 862 700 888 650 q 789 773 835 750 q 653 796 743 796 l 570 796 l 507 522 l 701 522 l 677 424 l 485 424 z "},"ð":{"ha":833,"x_min":117,"x_max":922,"o":"m 507 995 l 663 995 q 715 928 691 963 l 903 978 l 922 898 l 765 857 q 886 480 886 667 q 824 223 886 340 q 661 45 762 106 q 434 -16 560 -16 q 205 69 292 -16 q 117 288 117 154 q 172 489 117 395 q 321 638 227 583 q 524 693 415 693 q 600 685 569 693 q 663 656 631 677 q 623 815 655 738 l 437 770 l 416 848 l 583 893 q 507 995 543 958 m 540 555 q 455 522 497 555 q 381 410 414 489 q 349 248 349 331 q 377 157 349 191 q 448 123 406 123 q 549 167 502 123 q 612 276 582 197 q 642 429 642 355 q 613 521 642 487 q 540 555 585 555 z "},"Ý":{"ha":917,"x_min":184,"x_max":1124,"o":"m 214 946 l 656 946 l 628 815 l 581 815 q 538 809 548 815 q 522 778 522 798 q 530 743 522 764 l 610 519 l 762 727 q 786 766 781 755 q 791 785 791 777 q 780 807 791 799 q 731 815 768 815 l 701 815 l 731 946 l 1124 946 l 1096 815 q 1043 810 1060 815 q 1009 791 1026 804 q 968 749 992 779 l 674 381 l 635 205 q 628 169 628 176 q 645 138 628 148 q 694 131 656 131 l 731 131 l 701 0 l 243 0 l 273 131 l 300 131 q 361 137 344 131 q 388 156 378 143 q 405 205 397 169 l 443 376 l 292 734 q 264 789 275 776 q 235 808 253 802 q 184 815 218 815 l 214 946 m 583 1052 q 725 1233 684 1197 q 807 1270 766 1270 q 871 1245 846 1270 q 897 1186 897 1221 q 876 1129 897 1157 q 801 1071 856 1102 l 640 991 l 583 1052 z "},"ý":{"ha":833,"x_min":32,"x_max":915,"o":"m 237 505 l 130 505 l 161 635 q 426 693 291 644 l 494 693 l 394 252 q 383 186 383 203 q 396 157 383 168 q 433 146 409 146 q 498 173 463 146 q 593 297 551 214 q 663 505 636 380 l 701 677 l 915 677 l 775 57 q 620 -214 733 -126 q 301 -310 494 -310 q 99 -264 166 -310 q 32 -157 32 -218 q 62 -87 32 -117 q 134 -58 92 -58 q 183 -71 159 -58 q 230 -116 200 -80 q 281 -161 257 -149 q 338 -173 306 -173 q 416 -156 376 -173 q 487 -106 455 -138 q 541 -27 519 -73 q 576 93 563 20 q 506 29 539 51 q 433 -4 473 7 q 348 -16 393 -16 q 250 4 288 -16 q 188 63 212 24 q 163 143 163 103 q 177 239 163 175 l 237 505 m 500 831 q 642 1012 602 976 q 724 1048 683 1048 q 789 1024 764 1048 q 814 965 814 1000 q 793 908 814 936 q 718 850 773 881 l 557 770 l 500 831 z "},"Þ":{"ha":889,"x_min":46,"x_max":969,"o":"m 718 946 l 692 831 l 656 831 q 586 814 605 831 q 558 743 566 797 l 621 742 q 798 730 754 742 q 922 654 874 711 q 969 513 969 598 q 951 413 969 460 q 899 325 934 366 q 816 255 863 283 q 719 219 768 228 q 542 203 633 203 l 437 203 q 428 149 428 170 q 440 123 428 132 q 484 115 452 115 l 531 115 l 504 0 l 46 0 l 76 131 l 111 131 q 179 145 161 131 q 208 204 198 160 l 330 743 q 335 778 335 766 q 329 800 335 791 q 313 812 323 808 q 275 815 304 815 l 231 815 l 260 946 l 718 946 m 469 353 l 517 353 q 635 369 597 353 q 698 423 673 386 q 724 498 724 460 q 708 552 724 530 q 665 583 692 574 q 562 592 638 592 l 526 592 l 469 353 z "},"þ":{"ha":917,"x_min":-35,"x_max":955,"o":"m 326 806 l 220 806 l 250 935 q 509 995 404 951 l 574 995 l 483 588 q 718 693 587 693 q 841 661 787 693 q 925 569 895 629 q 955 426 955 509 q 896 204 955 311 q 745 41 838 98 q 543 -16 652 -16 q 451 -3 492 -16 q 363 41 410 9 l 331 -104 q 324 -142 324 -134 q 341 -166 324 -159 q 400 -172 353 -172 l 432 -172 l 400 -302 l -35 -302 l -7 -172 l 18 -172 q 77 -166 63 -172 q 100 -148 92 -161 q 119 -92 109 -135 l 326 806 m 395 175 q 509 122 447 122 q 601 156 555 122 q 682 268 648 191 q 717 425 717 345 q 694 504 717 477 q 635 530 672 530 q 548 492 595 530 q 453 359 500 453 q 404 220 420 294 l 395 175 z "},"−":{"ha":833,"x_min":191,"x_max":863,"o":"m 863 409 l 191 409 l 191 536 l 863 536 l 863 409 z "},"×":{"ha":833,"x_min":213,"x_max":841,"o":"m 750 159 l 529 380 l 308 159 l 213 254 l 434 475 l 213 696 l 304 787 l 525 566 l 746 787 l 841 692 l 620 471 l 840 250 l 750 159 z "},"¹":{"ha":567,"x_min":201,"x_max":589,"o":"m 587 962 l 485 572 q 481 552 481 555 q 486 540 481 543 q 516 537 492 537 l 589 537 l 570 462 l 201 462 l 220 537 l 277 537 q 328 544 319 537 q 345 578 338 550 l 414 844 l 300 844 l 321 920 q 536 962 416 924 l 587 962 z "},"²":{"ha":567,"x_min":130,"x_max":678,"o":"m 297 749 l 201 753 q 220 849 203 815 q 307 931 245 900 q 456 962 368 962 q 633 911 573 962 q 678 822 678 875 q 634 727 678 776 q 466 620 590 678 l 454 614 l 367 571 l 468 571 q 517 575 507 571 q 536 588 528 578 q 555 631 544 598 l 654 631 l 578 444 l 511 444 l 509 462 l 130 462 l 149 535 q 403 684 263 595 q 507 765 489 738 q 521 807 521 785 q 500 850 521 835 q 422 871 471 871 q 350 854 379 871 q 308 806 321 837 q 297 749 300 786 z "},"³":{"ha":567,"x_min":157,"x_max":666,"o":"m 326 796 l 227 796 q 294 914 238 873 q 468 962 359 962 q 615 925 564 962 q 666 837 666 888 q 655 793 666 812 q 613 747 640 767 q 545 715 586 727 q 616 676 593 703 q 639 616 639 649 q 610 538 639 576 q 523 477 581 500 q 385 453 465 453 q 218 496 279 453 q 157 588 157 540 q 177 632 157 614 q 228 650 196 650 q 273 636 254 650 q 305 587 291 622 q 322 556 313 565 q 350 538 333 545 q 387 532 367 532 q 458 555 432 532 q 485 616 485 579 q 461 663 485 646 q 383 680 438 680 l 349 680 l 368 756 l 410 756 q 492 772 470 756 q 514 814 514 787 q 493 854 514 839 q 431 869 473 869 q 379 860 402 869 q 346 839 357 852 q 326 796 335 827 z "},"½":{"ha":1417,"x_min":201,"x_max":1447,"o":"m 587 962 l 485 572 q 481 552 481 555 q 486 540 481 543 q 516 537 492 537 l 589 537 l 570 462 l 201 462 l 220 537 l 277 537 q 328 544 319 537 q 345 578 338 550 l 414 844 l 300 844 l 321 920 q 536 962 416 924 l 587 962 m 1282 962 l 465 -8 l 357 -8 l 1175 962 l 1282 962 m 1065 287 l 969 291 q 988 387 971 353 q 1075 469 1014 438 q 1225 500 1136 500 q 1402 450 1341 500 q 1447 360 1447 413 q 1402 265 1447 314 q 1234 158 1358 216 l 1222 152 l 1135 109 l 1236 109 q 1285 113 1275 109 q 1304 126 1296 117 q 1323 169 1312 136 l 1422 169 l 1347 -18 l 1279 -18 l 1277 0 l 898 0 l 917 73 q 1171 222 1031 133 q 1276 303 1257 276 q 1289 345 1289 323 q 1268 389 1289 373 q 1190 410 1239 410 q 1118 392 1147 410 q 1076 345 1089 375 q 1065 287 1068 324 z "},"¼":{"ha":1417,"x_min":201,"x_max":1449,"o":"m 587 962 l 485 572 q 481 552 481 555 q 486 540 481 543 q 516 537 492 537 l 589 537 l 570 462 l 201 462 l 220 537 l 277 537 q 328 544 319 537 q 345 578 338 550 l 414 844 l 300 844 l 321 920 q 536 962 416 924 l 587 962 m 1282 962 l 465 -8 l 357 -8 l 1175 962 l 1282 962 m 1275 492 l 1413 492 l 1343 227 l 1449 227 l 1424 135 l 1320 135 l 1286 0 l 1142 0 l 1178 135 l 910 135 l 939 245 l 1275 492 m 1201 227 l 1235 354 l 1061 227 l 1201 227 z "},"¾":{"ha":1417,"x_min":157,"x_max":1449,"o":"m 326 796 l 227 796 q 294 914 238 873 q 468 962 359 962 q 615 925 564 962 q 666 837 666 888 q 655 793 666 812 q 613 747 640 767 q 545 715 586 727 q 616 676 593 703 q 639 616 639 649 q 610 538 639 576 q 523 477 581 500 q 385 453 465 453 q 218 496 279 453 q 157 588 157 540 q 177 632 157 614 q 228 650 196 650 q 273 636 254 650 q 305 587 291 622 q 322 556 313 565 q 350 538 333 545 q 387 532 367 532 q 458 555 432 532 q 485 616 485 579 q 461 663 485 646 q 383 680 438 680 l 349 680 l 368 756 l 410 756 q 492 772 470 756 q 514 814 514 787 q 493 854 514 839 q 431 869 473 869 q 379 860 402 869 q 346 839 357 852 q 326 796 335 827 m 1295 962 l 477 -8 l 369 -8 l 1187 962 l 1295 962 m 1275 492 l 1413 492 l 1343 227 l 1449 227 l 1424 135 l 1320 135 l 1286 0 l 1142 0 l 1178 135 l 910 135 l 939 245 l 1275 492 m 1201 227 l 1235 354 l 1061 227 l 1201 227 z "},"₣":{"ha":917,"x_min":46,"x_max":1065,"o":"m 464 316 l 581 316 l 558 218 l 442 218 q 431 167 431 172 q 443 141 431 151 q 475 131 454 131 l 536 131 l 507 0 l 46 0 l 77 131 l 115 131 q 168 138 151 131 q 193 157 185 145 q 212 218 201 170 l 98 218 l 120 316 l 234 316 l 331 739 q 337 777 337 764 q 330 799 337 789 q 311 812 323 808 q 271 815 304 815 l 233 815 l 262 946 l 976 946 l 1065 659 l 940 619 q 893 708 922 671 q 837 762 865 745 q 752 787 808 778 q 661 795 696 795 l 572 795 l 513 536 l 565 535 q 620 542 591 535 q 665 561 648 549 q 690 591 681 573 q 703 633 695 600 q 713 671 709 661 l 810 671 l 717 267 l 622 267 q 628 299 625 281 q 635 343 635 330 q 622 380 635 364 q 587 402 610 396 q 502 406 572 406 l 484 406 l 464 316 z "},"Ğ":{"ha":1056,"x_min":140,"x_max":1171,"o":"m 1045 946 l 1077 618 l 936 604 q 895 723 926 673 q 819 798 863 773 q 718 822 774 822 q 566 773 640 822 q 445 627 492 724 q 398 420 398 530 q 429 268 398 334 q 507 169 459 201 q 615 137 555 137 q 696 152 659 137 q 752 186 734 166 q 779 249 769 206 l 793 306 q 796 335 796 319 q 786 364 796 355 q 751 374 775 374 l 735 373 l 676 373 l 706 504 l 1171 504 l 1141 373 l 1099 373 q 1053 367 1066 373 q 1030 346 1039 360 q 1011 290 1021 332 l 946 0 l 806 0 l 793 57 q 677 1 734 18 q 554 -16 619 -16 q 260 107 379 -16 q 140 417 140 230 q 212 691 140 566 q 409 889 283 816 q 678 962 534 962 q 774 954 726 962 q 859 930 821 945 q 918 897 885 920 l 946 946 l 1045 946 m 868 1204 l 966 1204 q 947 1130 963 1160 q 902 1077 931 1100 q 831 1040 873 1053 q 736 1027 789 1027 q 640 1040 682 1027 q 569 1077 597 1053 q 525 1130 541 1100 q 506 1204 509 1160 l 605 1204 q 630 1168 617 1179 q 667 1149 646 1154 q 736 1141 696 1141 q 805 1149 776 1141 q 842 1168 825 1154 q 868 1204 855 1179 z "},"ğ":{"ha":861,"x_min":41,"x_max":925,"o":"m 767 677 l 925 677 l 794 105 q 764 -11 776 24 q 707 -132 741 -82 q 615 -223 673 -182 q 480 -287 557 -264 q 313 -310 404 -310 q 159 -288 222 -310 q 69 -231 96 -265 q 41 -157 41 -197 q 71 -88 41 -116 q 144 -60 100 -60 q 191 -71 170 -60 q 241 -117 212 -82 q 292 -162 268 -151 q 349 -174 317 -174 q 463 -135 408 -174 q 550 -24 517 -95 q 583 90 572 21 q 513 29 546 50 q 439 -4 481 8 q 355 -16 397 -16 q 180 58 250 -16 q 109 245 109 132 q 167 471 109 366 q 319 635 224 577 q 522 693 414 693 q 626 676 581 693 q 724 616 671 660 l 767 677 m 670 501 q 614 540 642 527 q 557 553 586 553 q 463 518 510 553 q 382 409 416 484 q 347 253 347 333 q 369 172 347 199 q 428 144 391 144 q 545 214 486 144 q 663 467 628 313 l 670 501 m 755 961 l 853 961 q 834 887 850 917 q 789 834 818 857 q 718 798 760 810 q 623 785 676 785 q 526 798 568 785 q 456 834 484 810 q 412 887 428 857 q 393 961 396 917 l 492 961 q 517 926 504 936 q 554 906 533 911 q 623 899 583 899 q 692 906 663 899 q 729 926 712 911 q 755 961 742 937 z "},"İ":{"ha":528,"x_min":33,"x_max":705,"o":"m 245 946 l 705 946 l 676 815 l 643 815 q 586 808 602 815 q 561 788 570 802 q 543 731 552 774 l 425 206 q 418 167 418 174 q 434 138 418 148 q 485 131 445 131 l 523 131 l 492 0 l 33 0 l 63 131 l 98 131 q 154 138 137 131 q 179 158 171 145 q 199 220 188 172 l 315 736 q 321 776 321 765 q 308 806 321 796 q 254 815 295 815 l 216 815 l 245 946 m 629 1160 q 585 1063 629 1103 q 496 1023 541 1023 q 432 1049 457 1023 q 407 1114 407 1074 q 448 1206 407 1166 q 539 1247 488 1247 q 604 1222 579 1247 q 629 1160 629 1198 z "},"Ş":{"ha":972,"x_min":140,"x_max":1036,"o":"m 1010 946 l 1036 618 l 898 597 q 782 755 863 696 q 602 815 701 815 q 515 801 551 815 q 463 763 480 787 q 445 715 445 739 q 476 655 445 683 q 604 601 507 627 q 844 517 768 555 q 960 424 920 479 q 1000 292 1000 370 q 882 68 1000 161 q 611 -16 775 -16 q 438 10 514 -16 q 296 94 362 37 l 237 0 l 140 0 l 140 380 l 277 390 q 355 257 300 319 q 477 163 409 195 q 616 132 545 132 q 739 164 696 132 q 783 243 783 196 q 755 304 783 277 q 647 355 728 331 q 411 434 479 405 q 307 497 343 463 q 251 578 271 531 q 231 673 231 625 q 275 814 231 748 q 407 922 319 881 q 606 962 495 962 q 762 937 689 962 q 868 878 815 918 l 911 946 l 1010 946 m 541 0 l 606 0 l 585 -72 q 635 -63 616 -63 q 713 -92 684 -63 q 743 -167 743 -121 q 702 -254 743 -220 q 589 -288 662 -288 q 479 -263 517 -288 q 441 -207 441 -238 q 455 -173 441 -186 q 488 -160 468 -160 q 532 -189 514 -160 q 554 -212 543 -205 q 581 -218 566 -218 q 619 -203 605 -218 q 633 -163 633 -189 q 620 -123 633 -138 q 586 -109 606 -109 q 554 -119 573 -109 l 516 -85 l 541 0 z "},"ş":{"ha":750,"x_min":94,"x_max":816,"o":"m 527 693 q 687 668 616 693 q 787 609 758 643 q 816 541 816 575 q 792 478 816 503 q 729 453 768 453 q 694 458 711 453 q 662 473 677 463 q 624 505 651 479 q 585 538 596 532 q 545 554 568 549 q 495 560 522 560 q 428 546 448 560 q 408 509 408 531 q 419 481 408 492 q 468 454 435 465 q 660 381 603 410 q 746 314 717 353 q 774 220 774 275 q 735 104 774 159 q 621 16 696 49 q 433 -16 547 -16 q 170 45 269 -16 q 94 156 94 93 q 120 219 94 193 q 184 245 146 245 q 215 240 199 245 q 249 221 231 235 q 286 184 261 212 q 318 153 307 161 q 377 121 350 130 q 447 112 405 112 q 528 126 502 112 q 562 172 562 146 q 536 214 562 197 q 412 261 518 226 q 243 354 290 302 q 196 472 196 405 q 232 581 196 530 q 342 662 268 631 q 527 693 416 693 m 372 0 l 437 0 l 416 -72 q 466 -63 447 -63 q 544 -92 515 -63 q 574 -167 574 -121 q 533 -254 574 -220 q 420 -288 493 -288 q 311 -263 349 -288 q 273 -207 273 -238 q 286 -173 273 -186 q 319 -160 299 -160 q 363 -189 345 -160 q 386 -212 374 -205 q 412 -218 397 -218 q 450 -203 436 -218 q 465 -163 465 -189 q 451 -123 465 -138 q 417 -109 437 -109 q 385 -119 404 -109 l 347 -85 l 372 0 z "},"Ć":{"ha":972,"x_min":139,"x_max":1067,"o":"m 1034 946 l 1067 591 l 926 575 q 854 760 912 699 q 711 821 797 821 q 564 773 635 821 q 448 631 493 725 q 398 419 398 525 q 429 270 398 335 q 510 172 460 205 q 620 140 560 140 q 714 156 667 140 q 810 206 762 172 q 926 314 858 241 l 1023 230 q 811 45 942 116 q 569 -16 700 -16 q 264 106 385 -16 q 139 422 139 234 q 211 689 139 564 q 407 888 283 814 q 669 962 531 962 q 815 940 745 962 q 905 895 863 925 l 936 946 l 1034 946 m 610 1074 q 753 1256 712 1219 q 835 1292 793 1292 q 899 1268 874 1292 q 924 1208 924 1244 q 904 1152 924 1179 q 829 1093 884 1124 l 667 1013 l 610 1074 z "},"ć":{"ha":778,"x_min":113,"x_max":831,"o":"m 719 227 l 795 124 q 422 -16 612 -16 q 197 64 281 -16 q 113 271 113 144 q 174 476 113 378 q 341 633 235 574 q 570 693 448 693 q 760 636 690 693 q 831 505 831 580 q 801 421 831 452 q 722 390 771 390 q 669 404 692 390 q 630 441 645 417 q 614 482 623 452 q 597 527 606 515 q 574 547 589 539 q 543 554 559 554 q 468 523 506 554 q 384 409 418 483 q 349 263 349 334 q 385 170 349 205 q 479 134 421 134 q 590 158 526 134 q 719 227 654 181 m 472 831 q 614 1012 574 976 q 696 1048 655 1048 q 761 1024 736 1048 q 786 965 786 1000 q 766 908 786 936 q 690 850 745 881 l 529 770 l 472 831 z "},"Č":{"ha":972,"x_min":139,"x_max":1067,"o":"m 1034 946 l 1067 591 l 926 575 q 854 760 912 699 q 711 821 797 821 q 564 773 635 821 q 448 631 493 725 q 398 419 398 525 q 429 270 398 335 q 510 172 460 205 q 620 140 560 140 q 714 156 667 140 q 810 206 762 172 q 926 314 858 241 l 1023 230 q 811 45 942 116 q 569 -16 700 -16 q 264 106 385 -16 q 139 422 139 234 q 211 689 139 564 q 407 888 283 814 q 669 962 531 962 q 815 940 745 962 q 905 895 863 925 l 936 946 l 1034 946 m 456 1162 l 510 1254 l 708 1180 l 907 1254 l 960 1162 l 708 1009 l 456 1162 z "},"č":{"ha":778,"x_min":113,"x_max":831,"o":"m 719 227 l 795 124 q 422 -16 612 -16 q 197 64 281 -16 q 113 271 113 144 q 174 476 113 378 q 341 633 235 574 q 570 693 448 693 q 760 636 690 693 q 831 505 831 580 q 801 421 831 452 q 722 390 771 390 q 669 404 692 390 q 630 441 645 417 q 614 482 623 452 q 597 527 606 515 q 574 547 589 539 q 543 554 559 554 q 468 523 506 554 q 384 409 418 483 q 349 263 349 334 q 385 170 349 205 q 479 134 421 134 q 590 158 526 134 q 719 227 654 181 m 304 919 l 358 1011 l 556 937 l 755 1011 l 808 919 l 556 766 l 304 919 z "},"đ":{"ha":945,"x_min":115,"x_max":1098,"o":"m 957 814 l 1098 814 l 1082 742 l 941 742 l 820 212 l 818 204 q 812 168 812 182 q 821 144 812 152 q 844 136 829 136 q 932 182 873 136 l 1008 94 q 893 13 958 43 q 770 -16 827 -16 q 689 0 726 -16 q 630 44 653 16 q 596 117 607 72 q 521 43 564 74 q 435 -2 478 13 q 346 -16 392 -16 q 172 71 237 -16 q 115 246 115 146 q 174 473 115 364 q 322 638 233 583 q 522 693 412 693 q 622 679 579 693 q 702 633 664 665 l 728 742 l 510 742 l 528 814 l 745 814 l 756 863 l 646 863 l 664 938 q 780 949 729 939 q 932 995 831 960 l 998 995 l 957 814 m 674 505 q 563 555 614 555 q 470 518 519 555 q 388 405 422 481 q 353 250 353 329 q 374 172 353 198 q 428 146 395 146 q 509 178 465 146 q 602 301 553 211 q 674 505 650 391 z "},"¯":{"ha":694,"x_min":-8,"x_max":703,"o":"m -8 1082 l 703 1082 l 703 1013 l -8 1013 l -8 1082 z "},"·":{"ha":528,"x_min":228,"x_max":450,"o":"m 450 522 q 406 426 450 465 q 317 386 362 386 q 253 411 278 386 q 228 477 228 436 q 269 569 228 528 q 360 609 309 609 q 425 584 400 609 q 450 522 450 559 z "},"":{"ha":567,"x_min":142,"x_max":680,"o":"m 507 954 l 644 954 l 575 688 l 680 688 l 656 597 l 551 597 l 517 462 l 374 462 l 410 597 l 142 597 l 171 707 l 507 954 m 433 688 l 467 816 l 293 688 l 433 688 z "},"Ă":{"ha":1000,"x_min":1,"x_max":1031,"o":"m 609 946 l 821 946 l 944 210 q 958 153 951 164 q 977 137 964 142 q 1031 131 990 131 l 999 0 l 566 0 l 597 131 l 635 131 q 688 139 675 131 q 712 180 712 153 q 706 237 712 193 l 696 313 l 402 313 l 340 204 q 321 157 321 170 q 336 136 321 143 q 384 131 345 131 l 420 131 l 390 0 l 1 0 l 32 131 q 84 137 66 130 q 115 156 102 143 q 158 217 128 169 l 609 946 m 680 438 l 641 726 l 480 438 l 680 438 m 865 1182 l 964 1182 q 944 1108 960 1138 q 900 1055 928 1078 q 829 1019 871 1031 q 733 1006 787 1006 q 637 1019 679 1006 q 567 1055 595 1031 q 523 1108 538 1078 q 503 1182 507 1138 l 602 1182 q 627 1147 614 1157 q 665 1127 644 1133 q 733 1120 693 1120 q 802 1127 773 1120 q 840 1147 823 1133 q 865 1182 852 1158 z "},"ă":{"ha":945,"x_min":117,"x_max":1013,"o":"m 731 618 l 774 677 l 930 677 l 826 222 q 816 163 816 176 q 825 143 816 151 q 847 135 833 135 q 885 146 861 135 q 935 182 908 158 l 1013 93 q 892 9 951 35 q 772 -16 833 -16 q 695 -1 730 -16 q 636 41 660 14 q 602 103 612 68 q 531 38 572 66 q 450 -3 489 9 q 363 -16 411 -16 q 235 18 290 -16 q 148 113 180 52 q 117 260 117 174 q 242 565 117 436 q 530 693 368 693 q 634 676 589 693 q 731 618 680 660 m 675 505 q 612 544 638 534 q 559 554 587 554 q 411 458 471 554 q 352 252 352 363 q 376 175 352 205 q 433 146 399 146 q 506 172 470 146 q 601 295 555 210 q 675 505 647 380 m 772 961 l 871 961 q 851 887 867 917 q 807 834 836 857 q 736 798 778 810 q 640 785 694 785 q 544 798 586 785 q 474 834 502 810 q 430 887 446 857 q 410 961 414 917 l 509 961 q 534 926 522 936 q 572 906 551 911 q 640 899 600 899 q 709 906 680 899 q 747 926 730 911 q 772 961 760 937 z "},"Ą":{"ha":1000,"x_min":1,"x_max":1031,"o":"m 609 946 l 821 946 l 944 210 q 958 153 951 164 q 977 137 964 142 q 1031 131 990 131 l 999 0 l 566 0 l 597 131 l 635 131 q 688 139 675 131 q 712 180 712 153 q 706 237 712 193 l 696 313 l 402 313 l 340 204 q 321 157 321 170 q 336 136 321 143 q 384 131 345 131 l 420 131 l 390 0 l 1 0 l 32 131 q 84 137 66 130 q 115 156 102 143 q 158 217 128 169 l 609 946 m 680 438 l 641 726 l 480 438 l 680 438 m 878 0 q 827 -58 840 -37 q 815 -99 815 -79 q 822 -125 815 -115 q 844 -142 829 -136 q 883 -151 865 -151 q 938 -138 901 -151 l 919 -223 q 867 -242 886 -238 q 814 -249 838 -249 q 747 -234 778 -249 q 701 -195 715 -218 q 686 -139 686 -171 q 715 -62 686 -94 q 805 0 736 -39 l 878 0 z "},"ą":{"ha":945,"x_min":117,"x_max":1013,"o":"m 731 618 l 774 677 l 930 677 l 826 222 q 816 163 816 176 q 825 143 816 151 q 847 135 833 135 q 885 146 861 135 q 935 182 908 158 l 1013 93 q 892 9 951 35 q 772 -16 833 -16 q 695 -1 730 -16 q 636 41 660 14 q 602 103 612 68 q 531 38 572 66 q 450 -3 489 9 q 363 -16 411 -16 q 235 18 290 -16 q 148 113 180 52 q 117 260 117 174 q 242 565 117 436 q 530 693 368 693 q 634 676 589 693 q 731 618 680 660 m 675 505 q 612 544 638 534 q 559 554 587 554 q 411 458 471 554 q 352 252 352 363 q 376 175 352 205 q 433 146 399 146 q 506 172 470 146 q 601 295 555 210 q 675 505 647 380 m 766 0 q 715 -58 728 -37 q 703 -99 703 -79 q 710 -125 703 -115 q 732 -142 718 -136 q 771 -151 753 -151 q 826 -138 789 -151 l 807 -223 q 755 -242 774 -238 q 702 -249 726 -249 q 635 -234 666 -249 q 589 -195 604 -218 q 574 -139 574 -171 q 604 -62 574 -94 q 693 0 624 -39 l 766 0 z "},"Ď":{"ha":1056,"x_min":43,"x_max":1139,"o":"m 43 0 l 74 131 l 108 131 q 157 135 143 131 q 189 157 178 142 q 208 212 197 169 l 325 730 q 334 779 334 771 q 317 809 334 798 q 267 815 307 815 l 230 815 l 259 946 l 676 946 q 871 926 797 946 q 989 873 946 906 q 1101 741 1063 817 q 1139 566 1139 665 q 1094 336 1139 444 q 973 156 1049 227 q 780 38 887 76 q 508 0 673 0 l 43 0 m 570 796 l 437 211 q 429 168 429 178 q 438 153 429 158 q 480 148 448 148 l 526 148 q 715 194 647 148 q 827 325 783 241 q 888 571 888 438 q 862 700 888 650 q 789 773 835 750 q 653 796 743 796 l 570 796 m 439 1157 l 493 1249 l 691 1175 l 890 1249 l 943 1157 l 691 1004 l 439 1157 z "},"ď":{"ha":1108,"x_min":115,"x_max":1274,"o":"m 998 995 l 820 212 l 818 204 q 812 168 812 182 q 844 136 812 136 q 932 182 873 136 l 1008 94 q 900 16 966 49 q 770 -16 833 -16 q 596 117 629 -16 q 489 23 557 62 q 346 -16 421 -16 q 178 63 241 -16 q 115 246 115 142 q 228 555 115 416 q 521 693 341 693 q 702 633 635 693 l 743 806 l 633 806 l 664 938 q 788 951 732 939 q 932 995 844 964 l 998 995 m 674 505 q 563 555 614 555 q 419 463 484 555 q 353 250 353 371 q 374 173 353 199 q 428 146 395 146 q 574 253 503 146 q 674 505 645 361 m 1006 578 l 971 654 q 1152 807 1126 717 q 1107 793 1127 793 q 1050 821 1074 793 q 1026 886 1026 849 q 1060 963 1026 932 q 1141 995 1093 995 q 1236 954 1198 995 q 1274 853 1274 913 q 1207 698 1274 774 q 1006 578 1140 623 z "},"Đ":{"ha":1056,"x_min":43,"x_max":1139,"o":"m 255 424 l 140 424 l 163 522 l 277 522 l 325 730 q 334 779 334 771 q 317 809 334 798 q 267 815 307 815 l 230 815 l 259 946 l 676 946 q 871 926 797 946 q 989 873 946 906 q 1101 741 1063 817 q 1139 566 1139 665 q 1094 336 1139 444 q 973 156 1049 227 q 780 38 887 76 q 508 0 673 0 l 43 0 l 74 131 l 108 131 q 157 135 143 131 q 189 157 178 142 q 208 212 197 169 l 255 424 m 485 424 l 437 211 q 429 168 429 178 q 438 153 429 158 q 480 148 448 148 l 526 148 q 715 194 647 148 q 827 325 783 241 q 888 571 888 438 q 862 700 888 650 q 789 773 835 750 q 653 796 743 796 l 570 796 l 507 522 l 701 522 l 677 424 l 485 424 z "},"Ę":{"ha":1000,"x_min":44,"x_max":1105,"o":"m 229 815 l 258 946 l 1015 946 l 1105 662 l 980 621 q 943 698 965 668 q 880 760 915 738 q 796 791 844 781 q 702 798 764 798 l 569 798 l 513 555 l 543 555 q 621 562 594 555 q 662 586 647 570 q 689 635 677 602 q 702 693 694 648 l 828 693 l 738 292 l 612 292 q 625 366 625 349 q 600 416 625 399 q 524 428 582 428 l 487 428 l 439 216 l 433 189 q 429 168 429 177 q 442 150 429 155 q 487 148 448 148 l 565 148 q 725 167 665 148 q 864 251 805 192 q 956 392 923 310 l 1076 340 l 911 0 l 44 0 l 75 131 l 109 131 q 178 147 159 131 q 210 222 197 163 l 325 730 q 332 777 332 764 q 326 799 332 789 q 310 811 320 808 q 273 815 300 815 l 229 815 m 810 0 q 760 -58 772 -37 q 747 -99 747 -79 q 754 -125 747 -115 q 776 -142 762 -136 q 815 -151 798 -151 q 870 -138 833 -151 l 851 -223 q 800 -242 819 -238 q 746 -249 770 -249 q 679 -234 710 -249 q 633 -195 648 -218 q 618 -139 618 -171 q 648 -62 618 -94 q 737 0 668 -39 l 810 0 z "},"ę":{"ha":778,"x_min":113,"x_max":835,"o":"m 715 244 l 801 146 q 613 21 702 58 q 431 -16 525 -16 q 226 39 300 -16 q 113 272 113 126 q 174 476 113 381 q 352 632 235 572 q 600 693 468 693 q 773 644 711 693 q 835 524 835 594 q 813 439 835 475 q 733 357 785 390 q 576 303 681 325 q 353 280 471 281 l 353 263 q 389 171 353 207 q 483 135 425 135 q 587 161 531 135 q 715 244 663 196 m 378 399 q 543 424 485 406 q 625 468 601 441 q 643 512 643 488 q 626 549 643 534 q 580 564 608 564 q 506 544 546 564 q 434 490 466 525 q 378 399 403 456 m 506 0 q 455 -58 467 -37 q 443 -99 443 -79 q 450 -125 443 -115 q 471 -142 457 -136 q 511 -151 493 -151 q 566 -138 528 -151 l 547 -223 q 495 -242 514 -238 q 441 -249 466 -249 q 374 -234 406 -249 q 329 -195 343 -218 q 314 -139 314 -171 q 343 -62 314 -94 q 433 0 363 -39 l 506 0 z "},"Ě":{"ha":1000,"x_min":44,"x_max":1105,"o":"m 229 815 l 258 946 l 1015 946 l 1105 662 l 980 621 q 943 698 965 668 q 880 760 915 738 q 796 791 844 781 q 702 798 764 798 l 569 798 l 513 555 l 543 555 q 621 562 594 555 q 662 586 647 570 q 689 635 677 602 q 702 693 694 648 l 828 693 l 738 292 l 612 292 q 625 366 625 349 q 600 416 625 399 q 524 428 582 428 l 487 428 l 439 216 l 433 189 q 429 168 429 177 q 442 150 429 155 q 487 148 448 148 l 565 148 q 725 167 665 148 q 864 251 805 192 q 956 392 923 310 l 1076 340 l 911 0 l 44 0 l 75 131 l 109 131 q 178 147 159 131 q 210 222 197 163 l 325 730 q 332 777 332 764 q 326 799 332 789 q 310 811 320 808 q 273 815 300 815 l 229 815 m 412 1157 l 466 1249 l 664 1175 l 863 1249 l 916 1157 l 664 1004 l 412 1157 z "},"ě":{"ha":778,"x_min":113,"x_max":835,"o":"m 715 244 l 801 146 q 613 21 702 58 q 431 -16 525 -16 q 226 39 300 -16 q 113 272 113 126 q 174 476 113 381 q 352 632 235 572 q 600 693 468 693 q 773 644 711 693 q 835 524 835 594 q 813 439 835 475 q 733 357 785 390 q 576 303 681 325 q 353 280 471 281 l 353 263 q 389 171 353 207 q 483 135 425 135 q 587 161 531 135 q 715 244 663 196 m 378 399 q 543 424 485 406 q 625 468 601 441 q 643 512 643 488 q 626 549 643 534 q 580 564 608 564 q 506 544 546 564 q 434 490 466 525 q 378 399 403 456 m 299 936 l 353 1028 l 551 954 l 749 1028 l 802 936 l 551 783 l 299 936 z "},"Ĳ":{"ha":1389,"x_min":33,"x_max":1586,"o":"m 245 946 l 705 946 l 676 815 l 643 815 q 573 801 592 815 q 543 731 555 786 l 425 206 q 418 167 418 174 q 431 139 418 148 q 485 131 445 131 l 523 131 l 492 0 l 33 0 l 63 131 l 98 131 q 169 146 152 131 q 199 220 186 162 l 315 736 q 321 776 321 765 q 309 805 321 795 q 254 815 296 815 l 216 815 l 245 946 m 1127 946 l 1586 946 l 1557 815 l 1517 815 q 1454 798 1473 815 q 1423 728 1435 781 l 1329 313 q 1181 63 1290 142 q 912 -16 1072 -16 q 679 59 770 -16 q 588 252 588 134 q 626 374 588 328 q 718 420 664 420 q 796 389 766 420 q 825 305 825 359 q 823 273 825 291 q 819 232 819 242 q 849 160 819 189 q 934 132 880 132 q 1036 172 994 132 q 1105 336 1078 213 l 1196 741 q 1202 777 1202 768 q 1188 807 1202 800 q 1136 815 1173 815 l 1099 815 l 1127 946 z "},"ĳ":{"ha":972,"x_min":152,"x_max":1101,"o":"m 463 995 q 544 962 514 995 q 573 882 573 928 q 531 785 573 825 q 439 745 490 745 q 358 776 394 745 q 322 859 322 808 q 361 952 322 909 q 463 995 399 995 m 986 995 q 1069 962 1038 995 q 1101 881 1101 930 q 1058 784 1101 822 q 964 746 1016 746 q 884 778 918 746 q 850 860 850 809 q 887 952 850 910 q 986 995 924 995 m 465 693 l 530 693 l 408 220 q 395 161 395 170 q 424 134 395 134 q 512 184 458 134 l 589 94 q 354 -16 480 -16 q 220 31 263 -16 q 177 127 177 79 q 196 240 177 168 l 264 503 l 152 503 l 182 633 q 465 693 342 651 m 1044 693 l 878 -44 q 831 -177 860 -125 q 724 -269 802 -229 q 534 -310 646 -310 q 388 -270 434 -310 q 342 -182 342 -230 q 370 -112 342 -139 q 440 -84 397 -84 q 543 -142 491 -84 q 570 -169 564 -165 q 590 -172 576 -172 q 656 -78 635 -172 l 787 504 l 682 504 l 712 635 q 979 693 822 637 l 1044 693 z "},"Ĺ":{"ha":889,"x_min":6,"x_max":1003,"o":"m 220 946 l 679 946 l 648 815 l 608 815 q 566 811 579 815 q 536 789 547 804 q 517 736 526 774 l 397 206 q 390 170 390 175 q 398 154 390 159 q 431 149 407 149 l 466 149 q 591 155 551 149 q 714 194 661 165 q 810 272 768 222 q 883 390 852 321 l 1003 339 l 838 0 l 6 0 l 36 131 l 68 131 q 124 138 108 131 q 150 158 140 144 q 170 216 159 172 l 288 736 q 295 777 295 770 q 282 807 295 795 q 243 815 273 815 l 191 815 l 220 946 m 495 1052 q 637 1233 597 1197 q 720 1270 678 1270 q 784 1245 759 1270 q 809 1186 809 1221 q 789 1129 809 1157 q 713 1071 768 1102 l 552 991 l 495 1052 z "},"ĺ":{"ha":528,"x_min":180,"x_max":636,"o":"m 576 995 l 401 209 q 394 165 394 179 q 402 142 394 151 q 422 134 410 134 q 456 144 436 134 q 511 183 488 160 l 589 96 q 465 8 522 33 q 349 -16 408 -16 q 227 28 273 -16 q 180 138 180 73 q 193 227 180 172 l 321 807 l 213 807 l 244 938 q 367 952 304 939 q 511 995 430 965 l 576 995 m 322 1059 q 465 1241 424 1204 q 547 1277 505 1277 q 611 1253 586 1277 q 636 1194 636 1229 q 616 1137 636 1164 q 541 1078 595 1109 l 379 998 l 322 1059 z "},"Ľ":{"ha":889,"x_min":6,"x_max":1025,"o":"m 220 946 l 679 946 l 648 815 l 608 815 q 566 811 579 815 q 536 789 547 804 q 517 736 526 774 l 397 206 q 390 170 390 175 q 398 154 390 159 q 431 149 407 149 l 466 149 q 591 155 551 149 q 714 194 661 165 q 810 272 768 222 q 883 390 852 321 l 1003 339 l 838 0 l 6 0 l 36 131 l 68 131 q 124 138 108 131 q 150 158 140 144 q 170 216 159 172 l 288 736 q 295 777 295 770 q 282 807 295 795 q 243 815 273 815 l 191 815 l 220 946 m 741 562 l 704 642 q 896 805 868 708 q 848 789 869 789 q 788 819 814 789 q 762 888 762 848 q 798 970 762 937 q 884 1003 834 1003 q 984 960 944 1003 q 1025 851 1025 918 q 956 691 1025 772 q 741 562 887 611 z "},"ľ":{"ha":684,"x_min":176,"x_max":847,"o":"m 572 995 l 397 209 q 390 165 390 179 q 418 134 390 134 q 507 183 454 134 l 585 96 q 345 -16 469 -16 q 225 26 274 -16 q 176 138 176 68 q 189 227 176 172 l 317 807 l 209 807 l 240 938 q 507 995 356 939 l 572 995 m 580 578 l 544 654 q 725 807 700 717 q 681 793 701 793 q 623 821 647 793 q 600 886 600 849 q 633 963 600 932 q 715 995 667 995 q 809 954 771 995 q 847 853 847 913 q 774 691 847 762 q 580 578 701 621 z "},"Ŀ":{"ha":889,"x_min":6,"x_max":1003,"o":"m 220 946 l 679 946 l 648 815 l 608 815 q 566 811 579 815 q 536 789 547 804 q 517 736 526 774 l 397 206 q 390 170 390 175 q 398 154 390 159 q 431 149 407 149 l 466 149 q 591 155 551 149 q 714 194 661 165 q 810 272 768 222 q 883 390 852 321 l 1003 339 l 838 0 l 6 0 l 36 131 l 68 131 q 124 138 108 131 q 150 158 140 144 q 170 216 159 172 l 288 736 q 295 777 295 770 q 282 807 295 795 q 243 815 273 815 l 191 815 l 220 946 m 762 497 q 718 401 762 441 q 628 361 673 361 q 564 386 589 361 q 539 452 539 412 q 580 544 539 503 q 671 585 621 585 q 736 560 711 585 q 762 497 762 535 z "},"ŀ":{"ha":610,"x_min":180,"x_max":723,"o":"m 576 995 l 401 209 q 394 165 394 179 q 402 142 394 151 q 422 134 410 134 q 456 144 436 134 q 511 183 488 160 l 589 96 q 465 8 522 33 q 349 -16 408 -16 q 227 28 273 -16 q 180 138 180 73 q 193 227 180 172 l 321 807 l 213 807 l 244 938 q 367 952 304 939 q 511 995 430 965 l 576 995 m 723 522 q 679 425 723 465 q 589 385 635 385 q 526 411 551 385 q 500 476 500 436 q 541 568 500 528 q 633 609 582 609 q 698 584 673 609 q 723 522 723 559 z "},"Ń":{"ha":1027,"x_min":43,"x_max":1213,"o":"m 258 946 l 626 946 l 801 354 l 894 742 q 900 778 900 767 q 884 808 900 798 q 833 815 873 815 l 795 815 l 827 946 l 1213 946 l 1181 815 l 1143 815 q 1093 807 1109 815 q 1067 783 1077 800 q 1048 723 1059 772 l 884 0 l 690 0 l 477 705 l 366 212 q 357 167 357 175 q 376 136 357 146 q 425 131 387 131 l 463 131 l 433 0 l 43 0 l 73 131 l 100 131 q 174 143 153 131 q 204 199 195 156 l 326 742 q 332 778 332 766 q 316 808 332 798 q 271 815 305 815 l 227 815 l 258 946 m 622 1052 q 764 1233 724 1197 q 846 1270 805 1270 q 911 1245 886 1270 q 936 1186 936 1221 q 916 1129 936 1157 q 840 1071 895 1102 l 679 991 l 622 1052 z "},"ń":{"ha":945,"x_min":139,"x_max":1023,"o":"m 139 -3 l 253 502 l 147 502 l 176 631 q 437 690 302 638 l 500 690 l 471 559 q 553 636 515 610 q 632 677 591 663 q 716 690 673 690 q 848 643 797 690 q 899 527 899 595 q 897 492 899 509 q 886 444 896 484 l 838 229 q 827 168 827 180 q 836 146 827 155 q 858 138 844 138 q 946 186 898 138 l 1023 98 q 900 10 955 35 q 785 -14 844 -14 q 656 32 702 -14 q 610 131 610 77 q 626 229 610 162 l 672 436 q 680 485 680 469 q 667 515 680 503 q 632 526 654 526 q 585 515 606 526 q 506 436 548 493 q 436 308 463 378 q 376 98 408 237 l 353 -3 l 139 -3 m 556 831 q 699 1012 658 976 q 781 1048 739 1048 q 845 1024 820 1048 q 870 965 870 1000 q 850 908 870 936 q 774 850 829 881 l 613 770 l 556 831 z "},"Ň":{"ha":1027,"x_min":43,"x_max":1213,"o":"m 258 946 l 626 946 l 801 354 l 894 742 q 900 778 900 767 q 884 808 900 798 q 833 815 873 815 l 795 815 l 827 946 l 1213 946 l 1181 815 l 1143 815 q 1093 807 1109 815 q 1067 783 1077 800 q 1048 723 1059 772 l 884 0 l 690 0 l 477 705 l 366 212 q 357 167 357 175 q 376 136 357 146 q 425 131 387 131 l 463 131 l 433 0 l 43 0 l 73 131 l 100 131 q 174 143 153 131 q 204 199 195 156 l 326 742 q 332 778 332 766 q 316 808 332 798 q 271 815 305 815 l 227 815 l 258 946 m 492 1157 l 545 1249 l 743 1175 l 942 1249 l 995 1157 l 743 1004 l 492 1157 z "},"ň":{"ha":945,"x_min":139,"x_max":1023,"o":"m 139 -3 l 253 502 l 147 502 l 176 631 q 437 690 302 638 l 500 690 l 471 559 q 553 636 515 610 q 632 677 591 663 q 716 690 673 690 q 848 643 797 690 q 899 527 899 595 q 897 492 899 509 q 886 444 896 484 l 838 229 q 827 168 827 180 q 836 146 827 155 q 858 138 844 138 q 946 186 898 138 l 1023 98 q 900 10 955 35 q 785 -14 844 -14 q 656 32 702 -14 q 610 131 610 77 q 626 229 610 162 l 672 436 q 680 485 680 469 q 667 515 680 503 q 632 526 654 526 q 585 515 606 526 q 506 436 548 493 q 436 308 463 378 q 376 98 408 237 l 353 -3 l 139 -3 m 385 936 l 439 1028 l 637 954 l 836 1028 l 888 936 l 637 783 l 385 936 z "},"ŉ":{"ha":1250,"x_min":102,"x_max":1329,"o":"m 444 0 l 558 505 l 452 505 l 481 634 q 742 693 607 641 l 806 693 l 776 562 q 858 639 820 612 q 937 680 896 666 q 1021 693 979 693 q 1153 645 1102 693 q 1204 530 1204 597 q 1202 495 1204 512 q 1192 447 1201 487 l 1143 231 q 1133 171 1133 182 q 1141 149 1133 157 q 1163 141 1149 141 q 1251 189 1203 141 l 1329 100 q 1205 13 1260 37 q 1090 -12 1149 -12 q 961 34 1007 -12 q 916 134 916 80 q 931 231 916 165 l 977 439 q 985 488 985 472 q 972 517 985 506 q 937 529 960 529 q 890 517 911 529 q 811 438 853 496 q 741 310 768 381 q 682 100 713 239 l 659 0 l 444 0 m 144 505 l 102 593 q 212 651 166 620 q 283 712 258 682 q 315 774 300 734 q 287 762 300 766 q 262 758 273 758 q 196 789 224 758 q 167 866 167 821 q 206 957 167 920 q 302 995 245 995 q 380 973 344 995 q 437 912 416 951 q 458 825 458 873 q 424 707 458 769 q 325 595 389 645 q 144 505 260 545 z "},"Ő":{"ha":1056,"x_min":139,"x_max":1134,"o":"m 697 962 q 921 905 819 962 q 1078 752 1022 848 q 1134 533 1134 655 q 1060 256 1134 385 q 860 56 987 127 q 581 -16 734 -16 q 239 132 363 -16 q 139 415 139 250 q 214 690 139 560 q 414 891 288 819 q 697 962 540 962 m 687 818 q 550 772 612 818 q 441 615 488 726 q 394 383 394 505 q 420 242 394 302 q 487 156 446 182 q 589 130 528 130 q 725 174 666 130 q 830 334 783 218 q 876 578 876 451 q 850 706 876 649 q 782 791 824 764 q 687 818 741 818 m 504 1038 q 607 1204 575 1161 q 669 1263 640 1247 q 719 1276 690 1276 q 781 1251 756 1276 q 806 1192 806 1227 q 792 1143 806 1169 q 737 1088 777 1118 q 566 983 711 1070 l 504 1038 m 794 1038 q 897 1204 865 1160 q 960 1263 930 1247 q 1009 1276 981 1276 q 1072 1251 1046 1276 q 1097 1192 1097 1227 q 1082 1143 1097 1169 q 1027 1088 1067 1118 q 856 983 998 1067 l 794 1038 z "},"ő":{"ha":833,"x_min":117,"x_max":945,"o":"m 545 693 q 779 615 685 693 q 873 404 873 536 q 816 193 873 293 q 663 39 758 94 q 448 -16 568 -16 q 206 67 296 -16 q 117 283 117 150 q 173 489 117 393 q 327 638 229 584 q 545 693 425 693 m 538 555 q 452 522 493 555 q 380 413 411 490 q 349 255 349 336 q 377 157 349 190 q 450 124 405 124 q 537 156 496 124 q 610 263 578 187 q 641 423 641 339 q 613 522 641 489 q 538 555 585 555 m 352 817 q 455 983 423 940 q 517 1042 488 1026 q 567 1055 538 1055 q 629 1030 604 1055 q 654 971 654 1006 q 640 922 654 948 q 585 867 625 897 q 414 762 559 849 l 352 817 m 642 817 q 745 983 713 939 q 808 1042 778 1026 q 857 1055 829 1055 q 920 1030 895 1055 q 945 971 945 1006 q 930 922 945 948 q 875 867 916 897 q 704 762 846 846 l 642 817 z "},"Ŕ":{"ha":1027,"x_min":45,"x_max":1078,"o":"m 258 946 l 703 946 q 928 919 856 946 q 1039 839 1000 892 q 1078 716 1078 785 q 1000 527 1078 609 q 781 419 922 444 l 916 202 q 967 142 946 153 q 1057 131 988 131 l 1027 0 l 770 0 l 549 407 l 480 407 l 433 202 q 429 168 429 184 q 446 138 429 147 q 494 131 458 131 l 533 131 l 505 0 l 45 0 l 73 131 l 105 131 q 178 145 159 131 q 206 202 197 159 l 326 736 q 332 777 332 762 q 326 799 332 789 q 309 812 319 809 q 269 815 302 815 l 228 815 l 258 946 m 512 546 l 618 546 q 744 562 703 546 q 808 613 785 578 q 831 692 831 648 q 789 773 831 750 q 652 796 746 796 l 569 796 l 512 546 m 597 1052 q 740 1233 699 1197 q 822 1270 781 1270 q 886 1245 861 1270 q 911 1186 911 1221 q 891 1129 911 1157 q 816 1071 871 1102 l 654 991 l 597 1052 z "},"ŕ":{"ha":694,"x_min":136,"x_max":823,"o":"m 496 693 l 463 541 q 537 630 501 599 q 615 677 574 661 q 696 693 656 693 q 789 662 755 693 q 823 581 823 630 q 793 496 823 530 q 718 462 762 462 q 684 467 700 462 q 638 491 675 469 q 595 505 613 505 q 568 499 581 505 q 521 462 547 489 q 465 381 495 435 q 416 255 443 341 q 372 93 389 170 l 349 0 l 136 0 l 249 503 l 144 503 l 175 634 q 434 693 285 636 l 496 693 m 431 831 q 573 1012 532 976 q 655 1048 614 1048 q 720 1024 694 1048 q 745 965 745 1000 q 724 908 745 936 q 649 850 704 881 l 488 770 l 431 831 z "},"Ř":{"ha":1027,"x_min":45,"x_max":1078,"o":"m 258 946 l 703 946 q 928 919 856 946 q 1039 839 1000 892 q 1078 716 1078 785 q 1000 527 1078 609 q 781 419 922 444 l 916 202 q 967 142 946 153 q 1057 131 988 131 l 1027 0 l 770 0 l 549 407 l 480 407 l 433 202 q 429 168 429 184 q 446 138 429 147 q 494 131 458 131 l 533 131 l 505 0 l 45 0 l 73 131 l 105 131 q 178 145 159 131 q 206 202 197 159 l 326 736 q 332 777 332 762 q 326 799 332 789 q 309 812 319 809 q 269 815 302 815 l 228 815 l 258 946 m 512 546 l 618 546 q 744 562 703 546 q 808 613 785 578 q 831 692 831 648 q 789 773 831 750 q 652 796 746 796 l 569 796 l 512 546 m 426 1157 l 479 1249 l 677 1175 l 876 1249 l 929 1157 l 677 1004 l 426 1157 z "},"ř":{"ha":694,"x_min":136,"x_max":823,"o":"m 496 693 l 463 541 q 537 630 501 599 q 615 677 574 661 q 696 693 656 693 q 789 662 755 693 q 823 581 823 630 q 793 496 823 530 q 718 462 762 462 q 684 467 700 462 q 638 491 675 469 q 595 505 613 505 q 568 499 581 505 q 521 462 547 489 q 465 381 495 435 q 416 255 443 341 q 372 93 389 170 l 349 0 l 136 0 l 249 503 l 144 503 l 175 634 q 434 693 285 636 l 496 693 m 275 936 l 329 1028 l 527 954 l 726 1028 l 779 936 l 527 783 l 275 936 z "},"Ś":{"ha":972,"x_min":140,"x_max":1036,"o":"m 1010 946 l 1036 618 l 898 597 q 782 755 863 696 q 602 815 701 815 q 515 801 551 815 q 463 763 480 787 q 445 715 445 739 q 476 655 445 683 q 604 601 507 627 q 844 517 768 555 q 960 424 920 479 q 1000 292 1000 370 q 882 68 1000 161 q 611 -16 775 -16 q 438 10 514 -16 q 296 94 362 37 l 237 0 l 140 0 l 140 380 l 277 390 q 355 257 300 319 q 477 163 409 195 q 616 132 545 132 q 739 164 696 132 q 783 243 783 196 q 755 304 783 277 q 647 355 728 331 q 411 434 479 405 q 307 497 343 463 q 251 578 271 531 q 231 673 231 625 q 275 814 231 748 q 407 922 319 881 q 606 962 495 962 q 762 937 689 962 q 868 878 815 918 l 911 946 l 1010 946 m 570 1052 q 712 1233 671 1197 q 794 1270 753 1270 q 859 1245 833 1270 q 884 1186 884 1221 q 863 1129 884 1157 q 788 1071 843 1102 l 627 991 l 570 1052 z "},"ś":{"ha":750,"x_min":94,"x_max":816,"o":"m 527 693 q 687 668 616 693 q 787 609 758 643 q 816 541 816 575 q 792 478 816 503 q 729 453 768 453 q 694 458 711 453 q 662 473 677 463 q 624 505 651 479 q 585 538 596 532 q 545 554 568 549 q 495 560 522 560 q 428 546 448 560 q 408 509 408 531 q 419 481 408 492 q 468 454 435 465 q 660 381 603 410 q 746 314 717 353 q 774 220 774 275 q 735 104 774 159 q 621 16 696 49 q 433 -16 547 -16 q 170 45 269 -16 q 94 156 94 93 q 120 219 94 193 q 184 245 146 245 q 215 240 199 245 q 249 221 231 235 q 286 184 261 212 q 318 153 307 161 q 377 121 350 130 q 447 112 405 112 q 528 126 502 112 q 562 172 562 146 q 536 214 562 197 q 412 261 518 226 q 243 354 290 302 q 196 472 196 405 q 232 581 196 530 q 342 662 268 631 q 527 693 416 693 m 458 831 q 601 1012 560 976 q 683 1048 642 1048 q 747 1024 722 1048 q 772 965 772 1000 q 752 908 772 936 q 677 850 732 881 l 515 770 l 458 831 z "},"Ţ":{"ha":972,"x_min":149,"x_max":1116,"o":"m 319 977 l 409 977 l 414 946 l 951 946 l 963 977 l 1053 977 l 1116 635 l 979 608 l 949 701 q 917 759 939 731 q 866 803 895 787 q 812 820 836 820 q 775 779 785 820 l 648 218 q 640 165 640 180 q 700 131 640 131 l 743 131 l 713 0 l 254 0 l 285 131 l 319 131 l 336 130 q 391 148 374 130 q 420 218 408 165 l 543 765 q 547 800 547 787 q 521 820 547 820 q 404 765 463 820 q 273 593 344 709 l 149 657 l 319 977 m 366 -353 l 338 -300 q 463 -197 446 -252 q 428 -208 444 -208 q 383 -188 401 -208 q 364 -142 364 -168 q 391 -88 364 -110 q 454 -66 417 -66 q 528 -95 498 -66 q 557 -165 557 -124 q 366 -353 557 -282 z "},"ţ":{"ha":611,"x_min":155,"x_max":705,"o":"m 420 908 l 559 908 l 506 677 l 705 677 l 673 546 l 475 546 l 408 248 q 398 186 398 204 q 446 137 398 137 q 599 241 507 137 l 688 163 q 544 27 612 71 q 391 -16 476 -16 q 238 40 294 -16 q 182 160 182 96 q 196 258 182 197 l 260 546 l 155 546 l 183 659 q 420 908 352 703 m 226 -353 l 198 -300 q 323 -197 307 -252 q 288 -208 303 -208 q 243 -188 262 -208 q 224 -142 224 -168 q 251 -88 224 -111 q 315 -66 277 -66 q 388 -95 359 -66 q 418 -165 418 -123 q 226 -353 418 -282 z "},"Ť":{"ha":972,"x_min":149,"x_max":1116,"o":"m 319 977 l 409 977 l 414 946 l 951 946 l 963 977 l 1053 977 l 1116 635 l 979 608 l 972 629 q 936 730 946 711 q 879 795 915 770 q 812 820 843 820 q 789 811 798 820 q 775 779 781 803 l 648 218 q 640 165 640 180 q 656 137 640 146 q 700 131 666 131 l 743 131 l 713 0 l 254 0 l 285 131 l 319 131 l 336 130 q 390 147 372 130 q 420 218 408 164 l 543 765 q 547 800 547 787 q 541 814 547 809 q 521 820 535 820 q 463 806 490 820 q 373 734 418 783 q 273 593 340 699 l 149 657 l 319 977 m 469 1157 l 523 1249 l 721 1175 l 920 1249 l 972 1157 l 721 1004 l 469 1157 z "},"ť":{"ha":611,"x_min":155,"x_max":829,"o":"m 657 728 l 635 777 q 751 875 734 817 q 722 866 735 866 q 685 884 701 866 q 670 925 670 901 q 692 975 670 954 q 744 995 713 995 q 804 969 779 995 q 829 903 829 943 q 782 801 829 847 q 657 728 736 755 m 420 908 l 559 908 l 506 677 l 705 677 l 673 546 l 475 546 l 408 248 q 398 186 398 204 q 446 137 398 137 q 599 241 507 137 l 688 163 q 544 27 612 71 q 391 -16 476 -16 q 238 40 294 -16 q 182 160 182 96 q 196 258 182 197 l 260 546 l 155 546 l 183 659 q 420 908 352 703 z "},"Ů":{"ha":1027,"x_min":202,"x_max":1220,"o":"m 233 946 l 692 946 l 662 815 l 632 815 q 577 810 589 815 q 548 789 558 802 q 531 741 538 775 l 449 376 l 445 359 q 434 284 434 319 q 477 182 434 222 q 590 141 521 141 q 690 165 645 141 q 767 236 736 190 q 817 366 798 281 l 902 741 q 906 778 906 760 q 893 806 906 797 q 839 815 880 815 l 802 815 l 833 946 l 1220 946 l 1190 815 l 1154 815 q 1111 812 1122 815 q 1089 799 1100 808 q 1072 777 1078 790 q 1059 732 1065 764 l 964 318 q 927 211 954 272 q 845 96 900 149 q 714 14 791 43 q 545 -16 638 -16 q 362 20 438 -16 q 244 121 286 56 q 202 258 202 185 q 212 347 202 303 l 300 741 q 307 777 307 770 q 289 808 307 798 q 240 815 277 815 l 204 815 l 233 946 m 903 1160 q 859 1057 903 1100 q 753 1013 815 1013 q 647 1056 690 1013 q 603 1160 603 1099 q 647 1264 603 1221 q 754 1308 692 1308 q 860 1265 816 1308 q 903 1160 903 1221 m 684 1162 q 703 1113 684 1133 q 749 1093 722 1093 q 795 1113 776 1093 q 814 1162 814 1133 q 795 1209 814 1190 q 749 1229 776 1229 q 703 1209 722 1229 q 684 1162 684 1190 z "},"ů":{"ha":945,"x_min":134,"x_max":1008,"o":"m 925 677 l 819 206 q 812 166 812 175 q 821 144 812 153 q 842 135 829 135 q 876 145 857 135 q 930 183 907 161 l 1008 94 q 767 -16 891 -16 q 650 24 694 -16 q 595 119 613 56 q 488 23 553 62 q 343 -16 423 -16 q 214 30 262 -16 q 165 149 165 77 q 176 223 165 191 q 180 243 178 233 l 239 503 l 134 503 l 163 633 q 299 651 227 635 q 431 693 370 667 l 495 693 l 393 238 q 385 190 385 203 q 398 158 385 170 q 431 145 411 145 q 490 166 459 145 q 573 257 536 197 q 642 406 611 317 q 676 523 672 494 q 680 546 677 534 l 711 677 l 925 677 m 781 939 q 737 836 781 879 q 631 792 693 792 q 525 835 568 792 q 481 939 481 878 q 525 1043 481 1000 q 632 1087 570 1087 q 738 1044 694 1087 q 781 939 781 1000 m 562 941 q 581 891 562 911 q 627 871 600 871 q 673 891 654 871 q 692 941 692 911 q 673 988 692 968 q 627 1008 654 1008 q 581 988 600 1008 q 562 941 562 968 z "},"Ű":{"ha":1027,"x_min":202,"x_max":1220,"o":"m 233 946 l 692 946 l 662 815 l 632 815 q 577 810 589 815 q 548 789 558 802 q 531 741 538 775 l 449 376 l 445 359 q 434 284 434 319 q 477 182 434 222 q 590 141 521 141 q 690 165 645 141 q 767 236 736 190 q 817 366 798 281 l 902 741 q 906 778 906 760 q 893 806 906 797 q 839 815 880 815 l 802 815 l 833 946 l 1220 946 l 1190 815 l 1154 815 q 1111 812 1122 815 q 1089 799 1100 808 q 1072 777 1078 790 q 1059 732 1065 764 l 964 318 q 927 211 954 272 q 845 96 900 149 q 714 14 791 43 q 545 -16 638 -16 q 362 20 438 -16 q 244 121 286 56 q 202 258 202 185 q 212 347 202 303 l 300 741 q 307 777 307 770 q 289 808 307 798 q 240 815 277 815 l 204 815 l 233 946 m 500 1038 q 603 1204 571 1161 q 665 1263 635 1247 q 715 1276 686 1276 q 777 1251 752 1276 q 802 1192 802 1227 q 788 1143 802 1169 q 733 1088 773 1118 q 562 983 707 1070 l 500 1038 m 790 1038 q 893 1204 861 1160 q 956 1263 926 1247 q 1005 1276 977 1276 q 1067 1251 1042 1276 q 1093 1192 1093 1227 q 1078 1143 1093 1169 q 1023 1088 1063 1118 q 852 983 994 1067 l 790 1038 z "},"ű":{"ha":945,"x_min":134,"x_max":1008,"o":"m 925 677 l 819 206 q 812 166 812 175 q 821 144 812 153 q 842 135 829 135 q 876 145 857 135 q 930 183 907 161 l 1008 94 q 767 -16 891 -16 q 650 24 694 -16 q 595 119 613 56 q 488 23 553 62 q 343 -16 423 -16 q 214 30 262 -16 q 165 149 165 77 q 176 223 165 191 q 180 243 178 233 l 239 503 l 134 503 l 163 633 q 299 651 227 635 q 431 693 370 667 l 495 693 l 393 238 q 385 190 385 203 q 398 158 385 170 q 431 145 411 145 q 490 166 459 145 q 573 257 536 197 q 642 406 611 317 q 676 523 672 494 q 680 546 677 534 l 711 677 l 925 677 m 390 817 q 493 983 461 940 q 555 1042 526 1026 q 605 1055 576 1055 q 667 1030 642 1055 q 692 971 692 1006 q 678 922 692 948 q 623 867 663 897 q 452 762 597 849 l 390 817 m 680 817 q 783 983 751 939 q 846 1042 816 1026 q 895 1055 867 1055 q 958 1030 932 1055 q 983 971 983 1006 q 968 922 983 948 q 913 867 954 897 q 742 762 884 846 l 680 817 z "},"Ź":{"ha":945,"x_min":56,"x_max":1074,"o":"m 350 946 l 1074 946 l 1044 815 l 404 147 l 470 147 q 657 169 593 147 q 781 246 722 191 q 896 401 840 301 l 1012 342 l 819 0 l 56 0 l 85 131 l 724 795 l 667 795 q 455 753 530 795 q 288 568 359 699 l 172 624 l 350 946 m 580 1052 q 722 1233 682 1197 q 804 1270 763 1270 q 869 1245 844 1270 q 894 1186 894 1221 q 873 1129 894 1157 q 798 1071 853 1102 l 637 991 l 580 1052 z "},"ź":{"ha":778,"x_min":69,"x_max":844,"o":"m 844 677 l 814 546 l 393 140 q 477 125 423 136 q 532 119 512 119 q 572 129 553 119 q 599 151 590 138 q 614 186 604 156 q 634 232 627 221 q 671 270 649 256 q 718 283 692 283 q 783 254 755 283 q 810 183 810 224 q 778 86 810 134 q 685 11 745 39 q 549 -16 626 -16 q 484 -13 521 -16 q 374 3 456 -10 q 288 15 303 14 q 232 17 260 17 q 69 0 155 17 l 99 131 l 525 541 l 456 556 q 423 560 437 560 q 383 547 399 560 q 347 492 367 534 q 299 427 325 446 q 241 409 274 409 q 178 436 204 409 q 151 502 151 463 q 218 633 151 573 q 408 693 284 693 q 470 690 438 693 q 567 675 492 688 q 649 663 634 665 q 696 661 673 661 q 844 677 755 661 m 472 831 q 614 1012 574 976 q 696 1048 655 1048 q 761 1024 736 1048 q 786 965 786 1000 q 766 908 786 936 q 690 850 745 881 l 529 770 l 472 831 z "},"Ż":{"ha":945,"x_min":56,"x_max":1074,"o":"m 350 946 l 1074 946 l 1044 815 l 404 147 l 470 147 q 657 169 593 147 q 781 246 722 191 q 896 401 840 301 l 1012 342 l 819 0 l 56 0 l 85 131 l 724 795 l 667 795 q 455 753 530 795 q 288 568 359 699 l 172 624 l 350 946 m 821 1138 q 777 1042 821 1082 q 688 1002 733 1002 q 624 1027 649 1002 q 599 1093 599 1053 q 640 1185 599 1144 q 731 1225 680 1225 q 796 1201 771 1225 q 821 1138 821 1176 z "},"ż":{"ha":778,"x_min":69,"x_max":844,"o":"m 844 677 l 814 546 l 393 140 q 477 125 423 136 q 532 119 512 119 q 572 129 553 119 q 599 151 590 138 q 614 186 604 156 q 634 232 627 221 q 671 270 649 256 q 718 283 692 283 q 783 254 755 283 q 810 183 810 224 q 778 86 810 134 q 685 11 745 39 q 549 -16 626 -16 q 484 -13 521 -16 q 374 3 456 -10 q 288 15 303 14 q 232 17 260 17 q 69 0 155 17 l 99 131 l 525 541 l 456 556 q 423 560 437 560 q 383 547 399 560 q 347 492 367 534 q 299 427 325 446 q 241 409 274 409 q 178 436 204 409 q 151 502 151 463 q 218 633 151 573 q 408 693 284 693 q 470 690 438 693 q 567 675 492 688 q 649 663 634 665 q 696 661 673 661 q 844 677 755 661 m 672 917 q 628 821 672 861 q 538 781 584 781 q 475 806 500 781 q 450 871 450 831 q 490 964 450 923 q 582 1004 531 1004 q 647 980 622 1004 q 672 917 672 955 z "},"":{"ha":911,"x_min":50,"x_max":878,"o":"m 878 920 l 878 676 l 853 676 q 811 793 840 748 q 754 850 783 838 q 669 863 725 863 l 400 863 l 400 128 q 424 48 400 72 q 516 24 448 24 l 552 24 l 552 0 l 50 0 l 50 24 l 82 24 q 165 49 144 24 q 186 142 186 74 l 186 788 q 159 877 186 859 q 69 895 132 895 l 50 895 l 50 920 l 878 920 z "},"":{"ha":1086,"x_min":48,"x_max":1039,"o":"m 1039 455 q 904 116 1039 253 q 543 -21 768 -21 q 299 32 408 -21 q 119 197 191 85 q 48 460 48 308 q 115 715 48 604 q 297 884 182 827 q 542 941 412 941 q 815 868 691 941 q 989 683 939 795 q 1039 455 1039 570 m 800 450 q 730 776 800 661 q 544 891 659 891 q 359 782 433 891 q 286 462 286 673 q 354 150 286 271 q 541 28 421 28 q 729 141 659 28 q 800 450 800 255 m 424 290 l 399 290 l 399 634 l 424 634 q 449 563 424 584 q 543 542 474 542 q 637 562 612 542 q 663 634 663 581 l 688 634 l 688 290 l 663 290 q 564 380 663 380 q 473 373 495 380 q 437 345 451 366 q 424 290 424 324 z "},"":{"ha":1105,"x_min":48,"x_max":1057,"o":"m 349 0 l 349 24 q 422 46 399 24 q 445 124 444 68 q 141 232 235 134 q 48 460 48 331 q 148 694 48 600 q 445 794 247 788 q 446 810 446 804 q 424 872 446 850 q 349 895 401 894 l 349 920 l 756 920 l 756 895 q 682 872 704 894 q 659 810 659 851 q 660 794 659 804 q 957 694 858 788 q 1057 460 1057 600 q 1004 282 1057 361 q 873 168 951 203 q 660 124 795 134 q 683 46 661 68 q 756 24 706 24 l 756 0 l 349 0 m 445 744 q 311 681 361 747 q 262 454 262 614 q 319 231 262 287 q 445 175 377 175 l 445 744 m 660 176 q 671 175 668 175 q 787 231 731 175 q 844 463 844 286 q 660 744 844 744 l 660 176 z "},"":{"ha":767,"x_min":52,"x_max":742,"o":"m 516 634 l 702 634 l 638 336 l 633 318 l 627 290 q 593 169 610 214 q 618 109 599 133 q 658 85 637 85 q 717 186 713 85 l 742 186 q 715 22 741 64 q 654 -19 690 -19 q 566 118 591 -19 q 332 -19 490 -19 q 130 68 208 -19 q 52 296 52 156 q 129 547 52 440 q 315 653 205 653 q 486 502 425 653 l 516 634 m 468 417 q 396 566 427 534 q 331 598 366 598 q 270 541 288 598 q 252 278 252 483 q 269 76 252 123 q 321 29 286 29 q 374 61 349 29 q 429 232 399 92 l 468 417 z "},"":{"ha":695,"x_min":52,"x_max":644,"o":"m 328 568 q 283 614 310 589 q 184 719 215 676 q 153 814 153 762 q 203 908 153 876 q 335 941 254 941 q 498 910 433 941 q 564 827 564 880 q 544 782 564 798 q 497 766 524 766 q 397 829 451 766 q 288 890 345 890 q 223 869 249 890 q 198 820 198 848 q 343 673 198 758 q 512 563 459 606 q 605 444 566 520 q 644 290 644 368 q 554 72 644 163 q 338 -19 465 -19 q 136 63 221 -19 q 52 278 52 145 q 86 412 52 357 q 172 504 121 468 q 328 568 223 540 m 357 531 q 268 453 294 507 q 243 270 243 399 q 270 72 243 115 q 340 28 296 28 q 450 252 450 28 q 357 531 450 418 z "},"":{"ha":621,"x_min":52,"x_max":570,"o":"m 277 332 q 130 395 178 346 q 82 495 82 444 q 146 606 82 559 q 345 653 211 653 q 506 621 454 653 q 558 541 558 589 q 539 495 558 515 q 484 475 521 475 q 429 492 448 475 q 410 526 410 509 q 416 558 410 537 q 419 574 419 567 q 351 606 419 606 q 254 480 254 606 q 273 384 254 408 q 345 360 292 360 q 373 361 359 360 q 418 365 407 365 q 443 357 432 365 q 454 337 454 349 q 418 312 454 312 q 385 313 403 312 q 345 315 361 315 q 250 171 250 315 q 350 28 250 28 q 404 42 381 28 q 427 75 427 57 q 422 102 427 83 q 420 123 420 113 q 442 171 420 155 q 492 186 463 186 q 549 165 529 186 q 570 113 570 143 q 505 19 570 57 q 342 -19 439 -19 q 135 32 219 -19 q 52 161 52 83 q 73 229 52 197 q 138 289 94 262 q 277 332 183 315 z "},"":{"ha":772,"x_min":52,"x_max":743,"o":"m 743 634 l 743 493 l 477 493 q 656 239 656 395 q 570 55 656 129 q 364 -19 484 -19 q 141 85 231 -19 q 52 323 52 189 q 156 550 52 465 q 457 634 261 634 l 743 634 m 412 493 q 240 313 240 488 q 279 113 240 197 q 370 28 318 28 q 442 86 416 28 q 468 241 468 144 q 412 493 468 380 z "},"":{"ha":608,"x_min":48,"x_max":560,"o":"m 560 634 l 560 492 l 368 492 q 347 207 347 267 q 366 129 347 157 q 417 100 386 100 q 501 214 487 100 l 524 214 q 476 33 520 85 q 373 -19 432 -19 q 276 31 316 -19 q 236 207 236 81 q 257 492 236 291 q 220 494 231 494 q 127 475 157 494 q 75 411 98 457 l 48 411 q 129 574 92 532 q 193 625 165 616 q 313 634 221 634 l 560 634 z "},"":{"ha":842,"x_min":52,"x_max":790,"o":"m 473 -290 l 365 -290 l 365 -18 q 223 22 298 -18 q 99 144 147 62 q 52 327 52 227 q 140 561 52 467 q 349 653 229 655 l 349 629 q 259 537 286 608 q 233 323 233 465 q 273 97 233 168 q 365 25 313 26 l 365 451 q 411 607 365 562 q 525 653 456 653 q 704 566 617 653 q 790 336 790 479 q 752 168 790 250 q 640 35 714 85 q 473 -18 566 -15 l 473 -290 m 473 25 q 564 95 522 27 q 607 321 607 162 q 579 511 607 447 q 509 576 551 576 q 481 545 488 576 q 473 400 473 514 l 473 25 z "},"‗":{"ha":694,"x_min":-8,"x_max":703,"o":"m -8 -113 l 703 -113 l 703 -182 l -8 -182 l -8 -113 m -8 -233 l 703 -233 l 703 -302 l -8 -302 l -8 -233 z "},"′":{"ha":250,"x_min":232,"x_max":407,"o":"m 232 574 l 241 801 q 253 883 243 853 q 290 938 262 913 q 349 962 318 962 q 407 889 407 962 q 381 801 407 863 l 285 574 l 232 574 z "},"″":{"ha":528,"x_min":245,"x_max":671,"o":"m 245 574 l 255 801 q 266 883 257 852 q 303 938 275 913 q 362 962 332 962 q 420 890 420 962 q 401 817 420 858 q 395 801 397 808 l 298 574 l 245 574 m 496 574 l 505 801 q 516 883 507 852 q 554 938 526 913 q 612 962 582 962 q 671 890 671 962 q 651 817 671 858 q 644 801 647 808 l 549 574 l 496 574 z "},"‼":{"ha":807,"x_min":127,"x_max":905,"o":"m 355 288 l 226 288 q 269 642 252 436 q 285 821 277 752 q 335 926 293 889 q 427 962 376 962 q 509 931 476 962 q 543 852 543 901 q 499 708 543 807 q 355 288 420 528 m 718 288 l 589 288 q 631 642 614 436 q 648 821 640 752 q 697 926 656 889 q 790 962 739 962 q 871 931 838 962 q 905 852 905 901 q 862 708 905 807 q 718 288 783 528 m 261 232 q 345 200 313 232 q 376 118 376 168 q 337 24 376 65 q 237 -16 298 -16 q 158 16 189 -16 q 127 96 127 47 q 171 196 127 159 q 261 232 215 232 m 624 232 q 707 200 675 232 q 739 118 739 168 q 700 24 739 65 q 600 -16 660 -16 q 521 16 551 -16 q 490 96 490 47 q 533 194 490 157 q 624 232 576 232 z "},"ⁿ":{"ha":614,"x_min":155,"x_max":747,"o":"m 155 395 l 229 699 l 160 699 l 180 785 q 355 821 267 789 l 408 821 l 395 769 q 541 821 457 821 q 631 790 595 821 q 666 718 666 760 q 657 666 666 701 l 626 537 q 619 504 619 509 q 631 489 619 489 q 689 523 653 489 l 747 460 q 584 389 667 389 q 494 417 526 389 q 463 480 463 446 q 473 541 463 499 l 503 665 q 507 692 507 684 q 485 713 507 713 q 405 656 448 713 q 326 458 361 600 l 310 395 l 155 395 z "},"₧":{"ha":2136,"x_min":46,"x_max":2201,"o":"m 1026 665 q 1160 757 1102 688 q 1243 908 1218 826 l 1382 908 l 1329 677 l 1773 677 q 1912 693 1835 693 q 2118 649 2036 693 q 2201 541 2201 606 q 2176 476 2201 501 q 2109 451 2150 451 q 2058 463 2080 451 q 2008 503 2035 475 q 1954 547 1979 535 q 1885 559 1929 559 q 1815 544 1836 559 q 1794 511 1794 528 q 1814 478 1794 491 q 1915 437 1834 465 q 2058 379 2011 404 q 2132 315 2105 355 q 2159 220 2159 275 q 2067 51 2159 117 q 1815 -16 1976 -16 q 1644 7 1722 -16 q 1529 65 1566 31 q 1482 130 1491 98 q 1213 -16 1356 -16 q 1062 39 1119 -16 q 1005 160 1005 94 q 1019 258 1005 197 l 1084 546 l 984 546 q 597 374 881 374 l 476 374 l 438 211 q 432 165 432 182 q 488 131 432 131 l 535 131 l 504 0 l 46 0 l 76 131 l 111 131 q 179 145 160 131 q 208 204 197 159 l 330 743 q 335 778 335 766 q 322 807 335 800 q 275 815 309 815 l 231 815 l 260 946 l 684 946 q 870 924 803 946 q 983 845 937 901 q 1029 705 1029 789 q 1026 665 1029 686 m 509 524 l 572 524 q 682 536 644 524 q 752 591 720 549 q 783 684 783 633 q 746 768 783 741 q 625 795 709 795 l 572 795 l 509 524 m 1484 188 q 1568 246 1508 246 q 1672 184 1619 246 q 1828 112 1732 112 q 1915 131 1884 112 q 1947 174 1947 149 q 1927 208 1947 195 q 1796 258 1906 220 q 1626 350 1671 302 q 1581 469 1581 398 q 1597 546 1581 511 l 1298 546 l 1231 248 q 1221 186 1221 205 q 1269 137 1221 137 q 1422 241 1330 137 l 1484 188 z "},"℅":{"ha":1310,"x_min":217,"x_max":1311,"o":"m 615 682 l 671 610 q 423 521 551 521 q 270 574 323 521 q 217 698 217 627 q 307 884 217 806 q 517 962 397 962 q 644 927 595 962 q 693 842 693 892 q 671 788 693 808 q 615 768 649 768 q 563 786 581 768 q 535 839 545 804 q 500 869 526 869 q 423 812 461 869 q 385 695 385 755 q 406 641 385 661 q 459 621 427 621 q 615 682 526 621 m 1234 962 l 417 -8 l 309 -8 l 1127 962 l 1234 962 m 1092 431 q 1247 383 1183 431 q 1311 250 1311 335 q 1276 126 1311 185 q 1180 28 1242 67 q 1030 -10 1118 -10 q 871 40 933 -10 q 810 177 810 91 q 890 356 810 280 q 1092 431 970 431 m 1088 338 q 1007 281 1040 338 q 975 159 975 224 q 1031 85 975 85 q 1113 140 1080 85 q 1145 262 1145 195 q 1088 338 1145 338 z "},"ℓ":{"ha":579,"x_min":117,"x_max":688,"o":"m 117 327 l 224 404 l 279 642 q 334 836 308 770 q 411 939 361 901 q 530 976 462 976 q 651 931 615 976 q 688 838 688 886 q 635 702 688 776 q 481 550 583 627 l 429 509 l 385 328 q 356 163 356 209 q 406 84 356 84 q 515 220 465 84 l 553 208 q 326 -14 473 -14 q 215 37 256 -14 q 175 149 175 87 q 193 279 175 207 l 211 348 l 137 297 l 117 327 m 441 565 q 590 709 537 637 q 644 836 644 781 q 626 889 644 869 q 587 909 609 909 q 527 873 547 909 q 471 697 507 838 l 467 682 l 441 565 z "},"←":{"ha":1389,"x_min":54,"x_max":1335,"o":"m 334 594 l 385 594 q 253 385 330 479 l 1335 385 l 1335 316 l 253 316 q 387 106 322 247 l 334 106 q 54 338 183 278 l 54 368 q 334 594 174 416 z "},"↑":{"ha":694,"x_min":104,"x_max":591,"o":"m 104 712 q 330 992 281 872 l 361 992 q 591 711 420 862 l 591 659 q 382 792 451 724 l 382 -291 l 313 -291 l 313 792 q 104 660 219 715 l 104 712 z "},"→":{"ha":1389,"x_min":54,"x_max":1335,"o":"m 1055 594 q 1335 368 1215 416 l 1335 338 q 1054 106 1205 278 l 1002 106 q 1135 316 1066 247 l 54 316 l 54 385 l 1135 385 q 1003 594 1058 479 l 1055 594 z "},"↓":{"ha":694,"x_min":104,"x_max":591,"o":"m 104 -11 l 104 41 q 313 -92 219 -14 l 313 992 l 382 992 l 382 -92 q 591 42 451 -22 l 591 -10 q 361 -291 420 -161 l 330 -291 q 104 -11 281 -172 z "},"↔":{"ha":1389,"x_min":54,"x_max":1335,"o":"m 1335 366 l 1335 336 q 1059 107 1212 282 l 1005 107 q 1137 318 1052 224 l 252 318 q 383 107 336 224 l 329 107 q 54 336 177 282 l 54 366 q 329 595 177 420 l 383 595 q 252 385 336 479 l 1137 385 q 1005 595 1052 479 l 1059 595 q 1335 366 1212 420 z "},"↕":{"ha":694,"x_min":103,"x_max":591,"o":"m 332 992 l 362 992 q 591 716 416 869 l 591 662 q 380 794 475 709 l 380 -92 q 591 40 475 -6 l 591 -14 q 362 -290 416 -166 l 332 -290 q 103 -14 278 -166 l 103 40 q 314 -92 219 -6 l 314 794 q 103 662 219 709 l 103 716 q 332 992 278 869 z "},"↨":{"ha":694,"x_min":103,"x_max":591,"o":"m 332 992 l 362 992 q 591 716 416 869 l 591 662 q 380 794 475 709 l 380 -92 q 591 40 475 -6 l 591 -14 q 362 -290 416 -166 l 332 -290 q 103 -14 278 -166 l 103 40 q 314 -92 219 -6 l 314 794 q 103 662 219 709 l 103 716 q 332 992 278 869 m 104 -354 l 591 -354 l 591 -420 l 104 -420 l 104 -354 z "},"∟":{"ha":1360,"x_min":245,"x_max":1114,"o":"m 245 867 l 313 867 l 313 68 l 1114 68 l 1114 0 l 245 0 l 245 867 z "},"∩":{"ha":998,"x_min":123,"x_max":875,"o":"m 211 0 l 123 0 l 123 404 q 125 559 124 484 q 139 690 126 633 q 180 794 151 747 q 259 883 208 842 q 372 947 310 924 q 499 969 434 969 q 684 921 598 969 q 812 805 770 872 q 865 663 855 738 q 875 404 875 589 l 875 0 l 788 0 l 788 408 q 780 632 788 564 q 741 754 772 700 q 642 846 709 808 q 499 884 574 884 q 356 845 423 884 q 258 754 288 806 q 219 633 227 701 q 211 408 211 564 l 211 0 z "},"≡":{"ha":833,"x_min":116,"x_max":789,"o":"m 116 856 l 789 856 l 789 731 l 116 731 l 116 856 m 116 537 l 789 537 l 789 409 l 116 409 l 116 537 m 116 215 l 789 215 l 789 90 l 116 90 l 116 215 z "},"□":{"ha":839,"x_min":165,"x_max":805,"o":"m 165 640 l 805 640 l 805 0 l 165 0 l 165 640 m 216 589 l 216 52 l 753 52 l 753 589 l 216 589 z "},"▪":{"ha":492,"x_min":169,"x_max":537,"o":"m 537 643 l 537 275 l 169 275 l 169 643 l 537 643 z "},"▫":{"ha":492,"x_min":169,"x_max":537,"o":"m 537 643 l 537 275 l 169 275 l 169 643 l 537 643 m 486 591 l 220 591 l 220 326 l 486 326 l 486 591 z "},"●":{"ha":839,"x_min":203,"x_max":800,"o":"m 502 690 q 712 603 625 690 q 800 392 800 515 q 713 181 800 269 q 502 93 625 93 q 291 181 378 93 q 203 392 203 269 q 292 605 203 520 q 502 690 381 690 z "},"◦":{"ha":492,"x_min":151,"x_max":538,"o":"m 345 652 q 481 596 425 652 q 538 458 538 539 q 481 321 538 378 q 345 264 425 264 q 207 321 264 264 q 151 458 151 378 q 208 596 151 539 q 345 652 264 652 m 345 601 q 244 560 287 601 q 202 458 202 519 q 244 358 202 400 q 345 316 286 316 q 445 358 404 316 q 486 458 486 400 q 445 559 486 517 q 345 601 403 601 z "},"":{"ha":472,"x_min":26,"x_max":347,"o":"m 63 -523 l 26 -444 q 218 -280 190 -377 q 170 -296 191 -296 q 110 -267 136 -296 q 84 -197 84 -237 q 120 -115 84 -149 q 206 -82 156 -82 q 306 -125 266 -82 q 347 -234 347 -168 q 278 -394 347 -313 q 63 -523 209 -474 z "},"Ā":{"ha":1000,"x_min":1,"x_max":1031,"o":"m 609 946 l 821 946 l 944 210 q 958 153 951 164 q 977 137 964 142 q 1031 131 990 131 l 999 0 l 566 0 l 597 131 l 635 131 q 688 139 675 131 q 712 180 712 153 q 706 237 712 193 l 696 313 l 402 313 l 340 204 q 321 157 321 170 q 336 136 321 143 q 384 131 345 131 l 420 131 l 390 0 l 1 0 l 32 131 q 84 137 66 130 q 115 156 102 143 q 158 217 128 169 l 609 946 m 680 438 l 641 726 l 480 438 l 680 438 m 955 1040 l 473 1040 l 518 1162 l 1000 1162 l 955 1040 z "},"ā":{"ha":945,"x_min":117,"x_max":1013,"o":"m 731 618 l 774 677 l 930 677 l 826 222 q 816 163 816 176 q 825 143 816 151 q 847 135 833 135 q 885 146 861 135 q 935 182 908 158 l 1013 93 q 892 9 951 35 q 772 -16 833 -16 q 695 -1 730 -16 q 636 41 660 14 q 602 103 612 68 q 531 38 572 66 q 450 -3 489 9 q 363 -16 411 -16 q 235 18 290 -16 q 148 113 180 52 q 117 260 117 174 q 242 565 117 436 q 530 693 368 693 q 634 676 589 693 q 731 618 680 660 m 675 505 q 612 544 638 534 q 559 554 587 554 q 411 458 471 554 q 352 252 352 363 q 376 175 352 205 q 433 146 399 146 q 506 172 470 146 q 601 295 555 210 q 675 505 647 380 m 857 819 l 375 819 l 420 941 l 903 941 l 857 819 z "},"Ĉ":{"ha":972,"x_min":139,"x_max":1067,"o":"m 1034 946 l 1067 591 l 926 575 q 854 760 912 699 q 711 821 797 821 q 564 773 635 821 q 448 631 493 725 q 398 419 398 525 q 429 270 398 335 q 510 172 460 205 q 620 140 560 140 q 714 156 667 140 q 810 206 762 172 q 926 314 858 241 l 1023 230 q 811 45 942 116 q 569 -16 700 -16 q 264 106 385 -16 q 139 422 139 234 q 211 689 139 564 q 407 888 283 814 q 669 962 531 962 q 815 940 745 962 q 905 895 863 925 l 936 946 l 1034 946 m 958 1106 l 904 1015 l 705 1088 l 507 1015 l 453 1106 l 705 1259 l 958 1106 z "},"ĉ":{"ha":778,"x_min":113,"x_max":861,"o":"m 719 227 l 795 124 q 422 -16 612 -16 q 197 64 281 -16 q 113 271 113 144 q 174 476 113 378 q 341 633 235 574 q 570 693 448 693 q 760 636 690 693 q 831 505 831 580 q 801 421 831 452 q 722 390 771 390 q 669 404 692 390 q 630 441 645 417 q 614 482 623 452 q 597 527 606 515 q 574 547 589 539 q 543 554 559 554 q 468 523 506 554 q 384 409 418 483 q 349 263 349 334 q 385 170 349 205 q 479 134 421 134 q 590 158 526 134 q 719 227 654 181 m 861 886 l 808 794 l 609 868 l 410 794 l 357 886 l 609 1038 l 861 886 z "},"Ċ":{"ha":972,"x_min":139,"x_max":1067,"o":"m 1034 946 l 1067 591 l 926 575 q 854 760 912 699 q 711 821 797 821 q 564 773 635 821 q 448 631 493 725 q 398 419 398 525 q 429 270 398 335 q 510 172 460 205 q 620 140 560 140 q 714 156 667 140 q 810 206 762 172 q 926 314 858 241 l 1023 230 q 811 45 942 116 q 569 -16 700 -16 q 264 106 385 -16 q 139 422 139 234 q 211 689 139 564 q 407 888 283 814 q 669 962 531 962 q 815 940 745 962 q 905 895 863 925 l 936 946 l 1034 946 m 851 1138 q 807 1042 851 1082 q 718 1002 763 1002 q 654 1027 679 1002 q 629 1093 629 1053 q 669 1185 629 1144 q 761 1225 710 1225 q 826 1201 801 1225 q 851 1138 851 1176 z "},"ċ":{"ha":778,"x_min":113,"x_max":831,"o":"m 719 227 l 795 124 q 422 -16 612 -16 q 197 64 281 -16 q 113 271 113 144 q 174 476 113 378 q 341 633 235 574 q 570 693 448 693 q 760 636 690 693 q 831 505 831 580 q 801 421 831 452 q 722 390 771 390 q 669 404 692 390 q 630 441 645 417 q 614 482 623 452 q 597 527 606 515 q 574 547 589 539 q 543 554 559 554 q 468 523 506 554 q 384 409 418 483 q 349 263 349 334 q 385 170 349 205 q 479 134 421 134 q 590 158 526 134 q 719 227 654 181 m 692 917 q 648 821 692 861 q 559 781 604 781 q 495 806 520 781 q 470 871 470 831 q 511 964 470 923 q 602 1004 551 1004 q 667 980 642 1004 q 692 917 692 955 z "},"Ē":{"ha":1000,"x_min":44,"x_max":1105,"o":"m 229 815 l 258 946 l 1015 946 l 1105 662 l 980 621 q 943 698 965 668 q 880 760 915 738 q 796 791 844 781 q 702 798 764 798 l 569 798 l 513 555 l 543 555 q 621 562 594 555 q 662 586 647 570 q 689 635 677 602 q 702 693 694 648 l 828 693 l 738 292 l 612 292 q 625 366 625 349 q 600 416 625 399 q 524 428 582 428 l 487 428 l 439 216 l 433 189 q 429 168 429 177 q 442 150 429 155 q 487 148 448 148 l 565 148 q 725 167 665 148 q 864 251 805 192 q 956 392 923 310 l 1076 340 l 911 0 l 44 0 l 75 131 l 109 131 q 178 147 159 131 q 210 222 197 163 l 325 730 q 332 777 332 764 q 326 799 332 789 q 310 811 320 808 q 273 815 300 815 l 229 815 m 930 1040 l 448 1040 l 494 1162 l 976 1162 l 930 1040 z "},"ē":{"ha":778,"x_min":113,"x_max":846,"o":"m 715 244 l 801 146 q 613 21 702 58 q 431 -16 525 -16 q 226 39 300 -16 q 113 272 113 126 q 174 476 113 381 q 352 632 235 572 q 600 693 468 693 q 773 644 711 693 q 835 524 835 594 q 813 439 835 475 q 733 357 785 390 q 576 303 681 325 q 353 280 471 281 l 353 263 q 389 171 353 207 q 483 135 425 135 q 587 161 531 135 q 715 244 663 196 m 378 399 q 543 424 485 406 q 625 468 601 441 q 643 512 643 488 q 626 549 643 534 q 580 564 608 564 q 506 544 546 564 q 434 490 466 525 q 378 399 403 456 m 800 819 l 318 819 l 363 941 l 846 941 l 800 819 z "},"Ĕ":{"ha":1000,"x_min":44,"x_max":1105,"o":"m 229 815 l 258 946 l 1015 946 l 1105 662 l 980 621 q 943 698 965 668 q 880 760 915 738 q 796 791 844 781 q 702 798 764 798 l 569 798 l 513 555 l 543 555 q 621 562 594 555 q 662 586 647 570 q 689 635 677 602 q 702 693 694 648 l 828 693 l 738 292 l 612 292 q 625 366 625 349 q 600 416 625 399 q 524 428 582 428 l 487 428 l 439 216 l 433 189 q 429 168 429 177 q 442 150 429 155 q 487 148 448 148 l 565 148 q 725 167 665 148 q 864 251 805 192 q 956 392 923 310 l 1076 340 l 911 0 l 44 0 l 75 131 l 109 131 q 178 147 159 131 q 210 222 197 163 l 325 730 q 332 777 332 764 q 326 799 332 789 q 310 811 320 808 q 273 815 300 815 l 229 815 m 841 1182 l 939 1182 q 920 1108 936 1138 q 875 1055 904 1078 q 804 1019 846 1031 q 709 1006 762 1006 q 612 1019 654 1006 q 542 1055 570 1031 q 498 1108 514 1078 q 479 1182 482 1138 l 578 1182 q 603 1147 590 1157 q 640 1127 619 1133 q 709 1120 669 1120 q 778 1127 749 1120 q 815 1147 798 1133 q 841 1182 828 1158 z "},"ĕ":{"ha":778,"x_min":113,"x_max":835,"o":"m 715 244 l 801 146 q 613 21 702 58 q 431 -16 525 -16 q 226 39 300 -16 q 113 272 113 126 q 174 476 113 381 q 352 632 235 572 q 600 693 468 693 q 773 644 711 693 q 835 524 835 594 q 813 439 835 475 q 733 357 785 390 q 576 303 681 325 q 353 280 471 281 l 353 263 q 389 171 353 207 q 483 135 425 135 q 587 161 531 135 q 715 244 663 196 m 378 399 q 543 424 485 406 q 625 468 601 441 q 643 512 643 488 q 626 549 643 534 q 580 564 608 564 q 506 544 546 564 q 434 490 466 525 q 378 399 403 456 m 718 961 l 817 961 q 797 887 813 917 q 752 834 781 857 q 682 798 724 810 q 586 785 640 785 q 490 798 532 785 q 419 834 448 810 q 375 887 391 857 q 356 961 359 917 l 455 961 q 480 926 467 936 q 517 906 496 911 q 586 899 546 899 q 655 906 626 899 q 692 926 675 911 q 718 961 705 937 z "},"Ė":{"ha":1000,"x_min":44,"x_max":1105,"o":"m 229 815 l 258 946 l 1015 946 l 1105 662 l 980 621 q 943 698 965 668 q 880 760 915 738 q 796 791 844 781 q 702 798 764 798 l 569 798 l 513 555 l 543 555 q 621 562 594 555 q 662 586 647 570 q 689 635 677 602 q 702 693 694 648 l 828 693 l 738 292 l 612 292 q 625 366 625 349 q 600 416 625 399 q 524 428 582 428 l 487 428 l 439 216 l 433 189 q 429 168 429 177 q 442 150 429 155 q 487 148 448 148 l 565 148 q 725 167 665 148 q 864 251 805 192 q 956 392 923 310 l 1076 340 l 911 0 l 44 0 l 75 131 l 109 131 q 178 147 159 131 q 210 222 197 163 l 325 730 q 332 777 332 764 q 326 799 332 789 q 310 811 320 808 q 273 815 300 815 l 229 815 m 806 1138 q 762 1042 806 1082 q 672 1002 718 1002 q 608 1027 633 1002 q 583 1093 583 1053 q 624 1185 583 1144 q 715 1225 665 1225 q 781 1201 755 1225 q 806 1138 806 1176 z "}}}
